<ttFont>
    <TTGlyph name="A" xMin="-9" yMin="0" xMax="1791" yMax="1593">
      <contour>
        <pt x="548" y="641" on="1"/>
        <pt x="861" y="641" on="1"/>
        <pt x="707" y="1223" on="1"/>
      </contour>
      <contour>
        <pt x="290" y="0" on="1"/>
        <pt x="216" y="0" on="0"/>
        <pt x="104" y="38" on="0"/>
        <pt x="29" y="103" on="0"/>
        <pt x="-9" y="188" on="0"/>
        <pt x="-9" y="236" on="1"/>
        <pt x="-9" y="260" on="0"/>
        <pt x="13" y="281" on="0"/>
        <pt x="49" y="293" on="0"/>
        <pt x="94" y="303" on="0"/>
        <pt x="140" y="329" on="0"/>
        <pt x="182" y="378" on="0"/>
        <pt x="197" y="424" on="1"/>
        <pt x="443" y="1174" on="1"/>
        <pt x="450" y="1195" on="0"/>
        <pt x="457" y="1227" on="0"/>
        <pt x="457" y="1239" on="1"/>
        <pt x="457" y="1270" on="0"/>
        <pt x="423" y="1292" on="0"/>
        <pt x="382" y="1304" on="0"/>
        <pt x="348" y="1321" on="0"/>
        <pt x="348" y="1347" on="1"/>
        <pt x="348" y="1354" on="0"/>
        <pt x="349" y="1358" on="1"/>
        <pt x="359" y="1427" on="0"/>
        <pt x="449" y="1518" on="0"/>
        <pt x="598" y="1571" on="0"/>
        <pt x="800" y="1593" on="0"/>
        <pt x="922" y="1593" on="1"/>
        <pt x="1025" y="1593" on="0"/>
        <pt x="1214" y="1578" on="0"/>
        <pt x="1366" y="1528" on="0"/>
        <pt x="1468" y="1436" on="0"/>
        <pt x="1484" y="1358" on="1"/>
        <pt x="1486" y="1348" on="0"/>
        <pt x="1486" y="1344" on="1"/>
        <pt x="1486" y="1327" on="0"/>
        <pt x="1467" y="1310" on="0"/>
        <pt x="1439" y="1300" on="0"/>
        <pt x="1407" y="1293" on="0"/>
        <pt x="1379" y="1279" on="0"/>
        <pt x="1360" y="1252" on="0"/>
        <pt x="1360" y="1228" on="1"/>
        <pt x="1360" y="1207" on="0"/>
        <pt x="1369" y="1174" on="1"/>
        <pt x="1590" y="424" on="1"/>
        <pt x="1603" y="379" on="0"/>
        <pt x="1643" y="329" on="0"/>
        <pt x="1688" y="303" on="0"/>
        <pt x="1733" y="293" on="0"/>
        <pt x="1769" y="281" on="0"/>
        <pt x="1791" y="260" on="0"/>
        <pt x="1791" y="236" on="1"/>
        <pt x="1791" y="111" on="0"/>
        <pt x="1533" y="0" on="0"/>
        <pt x="1289" y="0" on="1"/>
        <pt x="1171" y="0" on="0"/>
        <pt x="988" y="27" on="0"/>
        <pt x="862" y="84" on="0"/>
        <pt x="797" y="174" on="0"/>
        <pt x="797" y="236" on="1"/>
        <pt x="797" y="257" on="0"/>
        <pt x="816" y="278" on="0"/>
        <pt x="844" y="289" on="0"/>
        <pt x="878" y="297" on="0"/>
        <pt x="906" y="312" on="0"/>
        <pt x="925" y="341" on="0"/>
        <pt x="925" y="368" on="1"/>
        <pt x="925" y="391" on="0"/>
        <pt x="918" y="420" on="1"/>
        <pt x="902" y="489" on="1"/>
        <pt x="496" y="489" on="1"/>
        <pt x="472" y="420" on="1"/>
        <pt x="459" y="382" on="0"/>
        <pt x="459" y="358" on="1"/>
        <pt x="459" y="335" on="0"/>
        <pt x="478" y="310" on="0"/>
        <pt x="506" y="297" on="0"/>
        <pt x="540" y="289" on="0"/>
        <pt x="568" y="278" on="0"/>
        <pt x="587" y="256" on="0"/>
        <pt x="587" y="236" on="1"/>
        <pt x="587" y="188" on="0"/>
        <pt x="549" y="103" on="0"/>
        <pt x="474" y="38" on="0"/>
        <pt x="363" y="0" on="0"/>
      </contour>
    </TTGlyph>
    <TTGlyph name="AE" xMin="-10" yMin="0" xMax="2419" yMax="1593">
      <contour>
        <pt x="626" y="641" on="1"/>
        <pt x="898" y="641" on="1"/>
        <pt x="897" y="1223" on="1"/>
      </contour>
      <contour>
        <pt x="896" y="489" on="1"/>
        <pt x="544" y="489" on="1"/>
        <pt x="507" y="420" on="1"/>
        <pt x="486" y="382" on="0"/>
        <pt x="482" y="358" on="1"/>
        <pt x="477" y="335" on="0"/>
        <pt x="492" y="310" on="0"/>
        <pt x="517" y="297" on="0"/>
        <pt x="549" y="289" on="0"/>
        <pt x="575" y="278" on="0"/>
        <pt x="590" y="256" on="0"/>
        <pt x="586" y="236" on="1"/>
        <pt x="577" y="188" on="0"/>
        <pt x="522" y="103" on="0"/>
        <pt x="435" y="38" on="0"/>
        <pt x="317" y="0" on="0"/>
        <pt x="244" y="0" on="1"/>
        <pt x="170" y="0" on="0"/>
        <pt x="66" y="38" on="0"/>
        <pt x="3" y="103" on="0"/>
        <pt x="-19" y="188" on="0"/>
        <pt x="-10" y="236" on="1"/>
        <pt x="-5" y="260" on="0"/>
        <pt x="21" y="281" on="0"/>
        <pt x="59" y="293" on="0"/>
        <pt x="107" y="303" on="0"/>
        <pt x="157" y="329" on="0"/>
        <pt x="209" y="378" on="0"/>
        <pt x="233" y="424" on="1"/>
        <pt x="624" y="1174" on="1"/>
        <pt x="635" y="1195" on="0"/>
        <pt x="648" y="1227" on="0"/>
        <pt x="650" y="1239" on="1"/>
        <pt x="654" y="1260" on="0"/>
        <pt x="642" y="1282" on="0"/>
        <pt x="621" y="1295" on="0"/>
        <pt x="594" y="1302" on="0"/>
        <pt x="571" y="1312" on="0"/>
        <pt x="559" y="1330" on="0"/>
        <pt x="562" y="1347" on="1"/>
        <pt x="563" y="1349" on="0"/>
        <pt x="563" y="1355" on="0"/>
        <pt x="565" y="1358" on="1"/>
        <pt x="589" y="1427" on="0"/>
        <pt x="697" y="1518" on="0"/>
        <pt x="856" y="1571" on="0"/>
        <pt x="1062" y="1593" on="0"/>
        <pt x="1184" y="1593" on="1"/>
        <pt x="1217" y="1593" on="0"/>
        <pt x="1268" y="1571" on="0"/>
        <pt x="1306" y="1536" on="0"/>
        <pt x="1332" y="1491" on="0"/>
        <pt x="1340" y="1468" on="1"/>
        <pt x="1359" y="1413" on="0"/>
        <pt x="1362" y="1344" on="1"/>
        <pt x="1361" y="1335" on="0"/>
        <pt x="1361" y="1314" on="1"/>
        <pt x="1361" y="1174" on="1"/>
        <pt x="1362" y="424" on="1"/>
        <pt x="898" y="420" on="1"/>
      </contour>
      <contour>
        <pt x="2093" y="844" on="1"/>
        <pt x="2093" y="791" on="0"/>
        <pt x="2069" y="691" on="0"/>
        <pt x="2019" y="614" on="0"/>
        <pt x="1941" y="567" on="0"/>
        <pt x="1886" y="567" on="1"/>
        <pt x="1854" y="567" on="0"/>
        <pt x="1810" y="594" on="0"/>
        <pt x="1776" y="643" on="0"/>
        <pt x="1744" y="711" on="0"/>
        <pt x="1724" y="752" on="1"/>
        <pt x="1644" y="762" on="1"/>
        <pt x="1644" y="205" on="1"/>
        <pt x="1986" y="221" on="1"/>
        <pt x="2027" y="395" on="1"/>
        <pt x="2044" y="452" on="0"/>
        <pt x="2092" y="531" on="0"/>
        <pt x="2149" y="580" on="0"/>
        <pt x="2213" y="602" on="0"/>
        <pt x="2245" y="602" on="1"/>
        <pt x="2282" y="602" on="0"/>
        <pt x="2346" y="577" on="0"/>
        <pt x="2393" y="529" on="0"/>
        <pt x="2419" y="462" on="0"/>
        <pt x="2419" y="420" on="1"/>
        <pt x="2419" y="379" on="0"/>
        <pt x="2402" y="284" on="0"/>
        <pt x="2369" y="191" on="0"/>
        <pt x="2319" y="105" on="0"/>
        <pt x="2251" y="39" on="0"/>
        <pt x="2166" y="0" on="0"/>
        <pt x="2115" y="0" on="1"/>
        <pt x="1245" y="0" on="1"/>
        <pt x="1127" y="0" on="0"/>
        <pt x="944" y="27" on="0"/>
        <pt x="819" y="84" on="0"/>
        <pt x="754" y="174" on="0"/>
        <pt x="754" y="236" on="1"/>
        <pt x="754" y="260" on="0"/>
        <pt x="778" y="281" on="0"/>
        <pt x="813" y="292" on="0"/>
        <pt x="854" y="302" on="0"/>
        <pt x="889" y="327" on="0"/>
        <pt x="913" y="375" on="0"/>
        <pt x="913" y="420" on="1"/>
        <pt x="913" y="1174" on="1"/>
        <pt x="913" y="1218" on="0"/>
        <pt x="889" y="1267" on="0"/>
        <pt x="854" y="1292" on="0"/>
        <pt x="813" y="1302" on="0"/>
        <pt x="778" y="1313" on="0"/>
        <pt x="754" y="1334" on="0"/>
        <pt x="754" y="1358" on="1"/>
        <pt x="754" y="1420" on="0"/>
        <pt x="819" y="1509" on="0"/>
        <pt x="944" y="1566" on="0"/>
        <pt x="1127" y="1593" on="0"/>
        <pt x="1245" y="1593" on="1"/>
        <pt x="2103" y="1593" on="1"/>
        <pt x="2176" y="1593" on="0"/>
        <pt x="2284" y="1513" on="0"/>
        <pt x="2355" y="1392" on="0"/>
        <pt x="2390" y="1252" on="0"/>
        <pt x="2390" y="1192" on="1"/>
        <pt x="2390" y="1152" on="0"/>
        <pt x="2365" y="1088" on="0"/>
        <pt x="2320" y="1044" on="0"/>
        <pt x="2259" y="1020" on="0"/>
        <pt x="2224" y="1020" on="1"/>
        <pt x="2193" y="1020" on="0"/>
        <pt x="2133" y="1041" on="0"/>
        <pt x="2079" y="1088" on="0"/>
        <pt x="2033" y="1163" on="0"/>
        <pt x="2017" y="1217" on="1"/>
        <pt x="1978" y="1384" on="1"/>
        <pt x="1644" y="1384" on="1"/>
        <pt x="1644" y="924" on="1"/>
        <pt x="1724" y="934" on="1"/>
        <pt x="1744" y="974" on="0"/>
        <pt x="1776" y="1042" on="0"/>
        <pt x="1810" y="1091" on="0"/>
        <pt x="1854" y="1118" on="0"/>
        <pt x="1886" y="1118" on="1"/>
        <pt x="1941" y="1118" on="0"/>
        <pt x="2019" y="1071" on="0"/>
        <pt x="2069" y="995" on="0"/>
        <pt x="2093" y="896" on="0"/>
      </contour>
    </TTGlyph>
    <TTGlyph name="Aacute" xMin="-9" yMin="0" xMax="1791" yMax="2529">
      <component glyphName="A" x="0" y="0" flags="0x1004"/>
      <component glyphName="acute" x="526" y="1638" flags="0x1004"/>
    </TTGlyph>
    <TTGlyph name="Abreve" xMin="-9" yMin="0" xMax="1791" yMax="2195">
      <component glyphName="A" x="0" y="0" flags="0x1004"/>
      <component glyphName="breve" x="360" y="1638" flags="0x1004"/>
    </TTGlyph>
    <TTGlyph name="Acircumflex" xMin="-9" yMin="0" xMax="1791" yMax="2498">
      <component glyphName="A" x="0" y="0" flags="0x1004"/>
      <component glyphName="circumflex" x="425" y="1638" flags="0x1004"/>
    </TTGlyph>
    <TTGlyph name="Adieresis" xMin="-9" yMin="0" xMax="1791" yMax="2195">
      <component glyphName="A" x="0" y="0" flags="0x1004"/>
      <component glyphName="dieresis" x="156" y="1638" flags="0x1004"/>
    </TTGlyph>
    <TTGlyph name="Agrave" xMin="-9" yMin="0" xMax="1791" yMax="2529">
      <component glyphName="A" x="0" y="0" flags="0x1004"/>
      <component glyphName="grave" x="302" y="1638" flags="0x1004"/>
    </TTGlyph>
    <TTGlyph name="Amacron" xMin="-9" yMin="0" xMax="1791" yMax="2142">
      <component glyphName="A" x="0" y="0" flags="0x1004"/>
      <component glyphName="macron" x="220" y="1638" flags="0x1004"/>
    </TTGlyph>
    <TTGlyph name="Aogonek" xMin="-9" yMin="-701" xMax="1791" yMax="1593">
      <component glyphName="A" x="0" y="0" flags="0x1004"/>
      <component glyphName="ogonek" x="1010" y="0" flags="0x1004"/>
    </TTGlyph>
    <TTGlyph name="Aring" xMin="-9" yMin="0" xMax="1791" yMax="2496">
      <component glyphName="A" x="0" y="0" flags="0x1004"/>
      <component glyphName="ring" x="431" y="1638" flags="0x1004"/>
    </TTGlyph>
    <TTGlyph name="Atilde" xMin="-9" yMin="0" xMax="1791" yMax="2345">
      <component glyphName="A" x="0" y="0" flags="0x1004"/>
      <component glyphName="tilde" x="291" y="1638" flags="0x1004"/>
    </TTGlyph>
    <TTGlyph name="B" xMin="54" yMin="0" xMax="1856" yMax="1593">
      <contour>
        <pt x="1041" y="897" on="1"/>
        <pt x="1085" y="897" on="0"/>
        <pt x="1140" y="930" on="0"/>
        <pt x="1170" y="992" on="0"/>
        <pt x="1180" y="1081" on="0"/>
        <pt x="1180" y="1137" on="1"/>
        <pt x="1180" y="1197" on="0"/>
        <pt x="1165" y="1294" on="0"/>
        <pt x="1125" y="1361" on="0"/>
        <pt x="1057" y="1397" on="0"/>
        <pt x="1004" y="1397" on="1"/>
        <pt x="962" y="1397" on="0"/>
        <pt x="915" y="1366" on="0"/>
        <pt x="893" y="1315" on="0"/>
        <pt x="889" y="1247" on="0"/>
        <pt x="889" y="1210" on="1"/>
        <pt x="889" y="907" on="1"/>
        <pt x="894" y="904" on="0"/>
        <pt x="912" y="902" on="1"/>
        <pt x="927" y="900" on="0"/>
        <pt x="987" y="897" on="0"/>
      </contour>
      <contour>
        <pt x="1041" y="731" on="1"/>
        <pt x="987" y="731" on="0"/>
        <pt x="927" y="728" on="0"/>
        <pt x="912" y="726" on="1"/>
        <pt x="894" y="723" on="0"/>
        <pt x="889" y="721" on="1"/>
        <pt x="889" y="418" on="1"/>
        <pt x="889" y="381" on="0"/>
        <pt x="893" y="313" on="0"/>
        <pt x="915" y="262" on="0"/>
        <pt x="962" y="231" on="0"/>
        <pt x="1004" y="231" on="1"/>
        <pt x="1057" y="231" on="0"/>
        <pt x="1125" y="267" on="0"/>
        <pt x="1165" y="334" on="0"/>
        <pt x="1180" y="431" on="0"/>
        <pt x="1180" y="492" on="1"/>
        <pt x="1180" y="548" on="0"/>
        <pt x="1170" y="637" on="0"/>
        <pt x="1140" y="698" on="0"/>
        <pt x="1085" y="731" on="0"/>
      </contour>
      <contour>
        <pt x="545" y="0" on="1"/>
        <pt x="427" y="0" on="0"/>
        <pt x="244" y="27" on="0"/>
        <pt x="119" y="84" on="0"/>
        <pt x="54" y="174" on="0"/>
        <pt x="54" y="236" on="1"/>
        <pt x="54" y="260" on="0"/>
        <pt x="78" y="281" on="0"/>
        <pt x="113" y="292" on="0"/>
        <pt x="154" y="302" on="0"/>
        <pt x="189" y="327" on="0"/>
        <pt x="213" y="375" on="0"/>
        <pt x="213" y="420" on="1"/>
        <pt x="213" y="1174" on="1"/>
        <pt x="213" y="1218" on="0"/>
        <pt x="189" y="1267" on="0"/>
        <pt x="154" y="1292" on="0"/>
        <pt x="113" y="1302" on="0"/>
        <pt x="78" y="1313" on="0"/>
        <pt x="54" y="1334" on="0"/>
        <pt x="54" y="1358" on="1"/>
        <pt x="54" y="1420" on="0"/>
        <pt x="119" y="1509" on="0"/>
        <pt x="244" y="1566" on="0"/>
        <pt x="427" y="1593" on="0"/>
        <pt x="545" y="1593" on="1"/>
        <pt x="1078" y="1593" on="1"/>
        <pt x="1245" y="1593" on="0"/>
        <pt x="1484" y="1558" on="0"/>
        <pt x="1646" y="1498" on="0"/>
        <pt x="1743" y="1416" on="0"/>
        <pt x="1794" y="1321" on="0"/>
        <pt x="1809" y="1218" on="0"/>
        <pt x="1809" y="1167" on="1"/>
        <pt x="1809" y="1108" on="0"/>
        <pt x="1779" y="1018" on="0"/>
        <pt x="1727" y="950" on="0"/>
        <pt x="1658" y="903" on="0"/>
        <pt x="1581" y="872" on="0"/>
        <pt x="1499" y="856" on="0"/>
        <pt x="1461" y="854" on="1"/>
        <pt x="1532" y="849" on="0"/>
        <pt x="1673" y="807" on="0"/>
        <pt x="1786" y="716" on="0"/>
        <pt x="1856" y="567" on="0"/>
        <pt x="1856" y="455" on="1"/>
        <pt x="1856" y="393" on="0"/>
        <pt x="1822" y="277" on="0"/>
        <pt x="1743" y="176" on="0"/>
        <pt x="1614" y="93" on="0"/>
        <pt x="1424" y="33" on="0"/>
        <pt x="1167" y="0" on="0"/>
        <pt x="1000" y="0" on="1"/>
      </contour>
    </TTGlyph>
    <TTGlyph name="C" xMin="54" yMin="-25" xMax="1541" yMax="1620">
      <contour>
        <pt x="859" y="-25" on="1"/>
        <pt x="728" y="-25" on="0"/>
        <pt x="508" y="34" on="0"/>
        <pt x="329" y="140" on="0"/>
        <pt x="193" y="286" on="0"/>
        <pt x="101" y="460" on="0"/>
        <pt x="54" y="655" on="0"/>
        <pt x="54" y="758" on="1"/>
        <pt x="54" y="876" on="0"/>
        <pt x="94" y="1095" on="0"/>
        <pt x="182" y="1287" on="0"/>
        <pt x="322" y="1445" on="0"/>
        <pt x="522" y="1558" on="0"/>
        <pt x="785" y="1620" on="0"/>
        <pt x="953" y="1620" on="1"/>
        <pt x="1064" y="1620" on="0"/>
        <pt x="1264" y="1560" on="0"/>
        <pt x="1415" y="1449" on="0"/>
        <pt x="1504" y="1290" on="0"/>
        <pt x="1504" y="1192" on="1"/>
        <pt x="1504" y="1152" on="0"/>
        <pt x="1479" y="1088" on="0"/>
        <pt x="1434" y="1044" on="0"/>
        <pt x="1373" y="1020" on="0"/>
        <pt x="1338" y="1020" on="1"/>
        <pt x="1307" y="1020" on="0"/>
        <pt x="1245" y="1040" on="0"/>
        <pt x="1189" y="1087" on="0"/>
        <pt x="1144" y="1162" on="0"/>
        <pt x="1131" y="1217" on="1"/>
        <pt x="1113" y="1295" on="0"/>
        <pt x="1027" y="1376" on="0"/>
        <pt x="978" y="1376" on="1"/>
        <pt x="941" y="1376" on="0"/>
        <pt x="868" y="1330" on="0"/>
        <pt x="811" y="1235" on="0"/>
        <pt x="775" y="1089" on="0"/>
        <pt x="775" y="989" on="1"/>
        <pt x="775" y="857" on="0"/>
        <pt x="805" y="662" on="0"/>
        <pt x="858" y="524" on="0"/>
        <pt x="929" y="436" on="0"/>
        <pt x="1011" y="386" on="0"/>
        <pt x="1099" y="367" on="0"/>
        <pt x="1143" y="367" on="1"/>
        <pt x="1188" y="367" on="0"/>
        <pt x="1274" y="388" on="0"/>
        <pt x="1345" y="419" on="0"/>
        <pt x="1396" y="454" on="0"/>
        <pt x="1408" y="469" on="1"/>
        <pt x="1423" y="489" on="0"/>
        <pt x="1458" y="508" on="0"/>
        <pt x="1473" y="508" on="1"/>
        <pt x="1501" y="508" on="0"/>
        <pt x="1541" y="450" on="0"/>
        <pt x="1541" y="399" on="1"/>
        <pt x="1541" y="319" on="0"/>
        <pt x="1442" y="167" on="0"/>
        <pt x="1262" y="48" on="0"/>
        <pt x="1011" y="-25" on="0"/>
      </contour>
    </TTGlyph>
    <TTGlyph name="Cacute" xMin="54" yMin="-25" xMax="1541" yMax="2529">
      <component glyphName="C" x="0" y="0" flags="0x1204"/>
      <component glyphName="acute" x="480" y="1638" flags="0x1004"/>
    </TTGlyph>
    <TTGlyph name="Ccaron" xMin="54" yMin="-25" xMax="1541" yMax="2507">
      <component glyphName="C" x="0" y="0" flags="0x1204"/>
      <component glyphName="caron" x="345" y="1638" flags="0x1004"/>
    </TTGlyph>
    <TTGlyph name="Ccedilla" xMin="57" yMin="-614" xMax="1544" yMax="1620">
      <component glyphName="C" x="3" y="0" flags="0x1004"/>
      <component glyphName="cedilla" x="554" y="0" flags="0x1004"/>
    </TTGlyph>
    <TTGlyph name="Ccircumflex" xMin="54" yMin="-25" xMax="1541" yMax="2498">
      <component glyphName="C" x="0" y="0" flags="0x1204"/>
      <component glyphName="circumflex" x="378" y="1638" flags="0x1004"/>
    </TTGlyph>
    <TTGlyph name="Cdotaccent" xMin="54" yMin="-25" xMax="1541" yMax="2355">
      <component glyphName="C" x="0" y="0" flags="0x1204"/>
      <component glyphName="period" x="462" y="1880" flags="0x1004"/>
    </TTGlyph>
    <TTGlyph name="D" xMin="54" yMin="0" xMax="1901" yMax="1593">
      <contour>
        <pt x="1237" y="854" on="1"/>
        <pt x="1237" y="962" on="0"/>
        <pt x="1215" y="1158" on="0"/>
        <pt x="1167" y="1308" on="0"/>
        <pt x="1089" y="1397" on="0"/>
        <pt x="1033" y="1397" on="1"/>
        <pt x="991" y="1397" on="0"/>
        <pt x="940" y="1366" on="0"/>
        <pt x="914" y="1315" on="0"/>
        <pt x="906" y="1247" on="0"/>
        <pt x="906" y="1210" on="1"/>
        <pt x="906" y="418" on="1"/>
        <pt x="906" y="381" on="0"/>
        <pt x="914" y="313" on="0"/>
        <pt x="940" y="262" on="0"/>
        <pt x="991" y="231" on="0"/>
        <pt x="1033" y="231" on="1"/>
        <pt x="1089" y="231" on="0"/>
        <pt x="1167" y="321" on="0"/>
        <pt x="1215" y="484" on="0"/>
        <pt x="1237" y="714" on="0"/>
      </contour>
      <contour>
        <pt x="1033" y="1593" on="1"/>
        <pt x="1195" y="1593" on="0"/>
        <pt x="1450" y="1537" on="0"/>
        <pt x="1643" y="1437" on="0"/>
        <pt x="1778" y="1298" on="0"/>
        <pt x="1863" y="1131" on="0"/>
        <pt x="1901" y="943" on="0"/>
        <pt x="1901" y="844" on="1"/>
        <pt x="1901" y="732" on="0"/>
        <pt x="1871" y="519" on="0"/>
        <pt x="1793" y="332" on="0"/>
        <pt x="1657" y="175" on="0"/>
        <pt x="1446" y="63" on="0"/>
        <pt x="1149" y="0" on="0"/>
        <pt x="949" y="0" on="1"/>
        <pt x="545" y="0" on="1"/>
        <pt x="427" y="0" on="0"/>
        <pt x="244" y="27" on="0"/>
        <pt x="119" y="84" on="0"/>
        <pt x="54" y="174" on="0"/>
        <pt x="54" y="236" on="1"/>
        <pt x="54" y="260" on="0"/>
        <pt x="78" y="281" on="0"/>
        <pt x="113" y="292" on="0"/>
        <pt x="154" y="302" on="0"/>
        <pt x="189" y="327" on="0"/>
        <pt x="213" y="375" on="0"/>
        <pt x="213" y="420" on="1"/>
        <pt x="213" y="1176" on="1"/>
        <pt x="213" y="1220" on="0"/>
        <pt x="189" y="1269" on="0"/>
        <pt x="154" y="1294" on="0"/>
        <pt x="113" y="1304" on="0"/>
        <pt x="78" y="1315" on="0"/>
        <pt x="54" y="1336" on="0"/>
        <pt x="54" y="1360" on="1"/>
        <pt x="54" y="1422" on="0"/>
        <pt x="119" y="1511" on="0"/>
        <pt x="244" y="1567" on="0"/>
        <pt x="427" y="1593" on="0"/>
        <pt x="545" y="1593" on="1"/>
      </contour>
    </TTGlyph>
    <TTGlyph name="Dcaron" xMin="54" yMin="0" xMax="1901" yMax="2507">
      <component glyphName="D" x="0" y="0" flags="0x1204"/>
      <component glyphName="caron" x="342" y="1638" flags="0x1004"/>
    </TTGlyph>
    <TTGlyph name="Dcroat" xMin="54" yMin="0" xMax="1901" yMax="1593">
      <contour>
        <pt x="95" y="837" on="1"/>
        <pt x="95" y="871" on="0"/>
        <pt x="116" y="911" on="0"/>
        <pt x="154" y="930" on="0"/>
        <pt x="209" y="935" on="0"/>
        <pt x="242" y="935" on="1"/>
        <pt x="956" y="935" on="1"/>
        <pt x="992" y="935" on="0"/>
        <pt x="1050" y="932" on="0"/>
        <pt x="1091" y="914" on="0"/>
        <pt x="1113" y="874" on="0"/>
        <pt x="1113" y="837" on="1"/>
        <pt x="1113" y="800" on="0"/>
        <pt x="1091" y="760" on="0"/>
        <pt x="1050" y="742" on="0"/>
        <pt x="992" y="739" on="0"/>
        <pt x="956" y="739" on="1"/>
        <pt x="242" y="739" on="1"/>
        <pt x="209" y="739" on="0"/>
        <pt x="154" y="742" on="0"/>
        <pt x="116" y="760" on="0"/>
        <pt x="95" y="800" on="0"/>
      </contour>
      <contour>
        <pt x="1237" y="854" on="1"/>
        <pt x="1237" y="962" on="0"/>
        <pt x="1215" y="1158" on="0"/>
        <pt x="1167" y="1308" on="0"/>
        <pt x="1089" y="1397" on="0"/>
        <pt x="1033" y="1397" on="1"/>
        <pt x="991" y="1397" on="0"/>
        <pt x="940" y="1366" on="0"/>
        <pt x="914" y="1315" on="0"/>
        <pt x="906" y="1247" on="0"/>
        <pt x="906" y="1210" on="1"/>
        <pt x="906" y="418" on="1"/>
        <pt x="906" y="381" on="0"/>
        <pt x="914" y="313" on="0"/>
        <pt x="940" y="262" on="0"/>
        <pt x="991" y="231" on="0"/>
        <pt x="1033" y="231" on="1"/>
        <pt x="1089" y="231" on="0"/>
        <pt x="1167" y="321" on="0"/>
        <pt x="1215" y="484" on="0"/>
        <pt x="1237" y="714" on="0"/>
      </contour>
      <contour>
        <pt x="1033" y="1593" on="1"/>
        <pt x="1195" y="1593" on="0"/>
        <pt x="1450" y="1537" on="0"/>
        <pt x="1643" y="1437" on="0"/>
        <pt x="1778" y="1298" on="0"/>
        <pt x="1863" y="1131" on="0"/>
        <pt x="1901" y="943" on="0"/>
        <pt x="1901" y="844" on="1"/>
        <pt x="1901" y="732" on="0"/>
        <pt x="1871" y="519" on="0"/>
        <pt x="1793" y="332" on="0"/>
        <pt x="1657" y="175" on="0"/>
        <pt x="1446" y="63" on="0"/>
        <pt x="1149" y="0" on="0"/>
        <pt x="949" y="0" on="1"/>
        <pt x="545" y="0" on="1"/>
        <pt x="427" y="0" on="0"/>
        <pt x="244" y="27" on="0"/>
        <pt x="119" y="84" on="0"/>
        <pt x="54" y="174" on="0"/>
        <pt x="54" y="236" on="1"/>
        <pt x="54" y="260" on="0"/>
        <pt x="78" y="281" on="0"/>
        <pt x="113" y="292" on="0"/>
        <pt x="154" y="302" on="0"/>
        <pt x="189" y="327" on="0"/>
        <pt x="213" y="375" on="0"/>
        <pt x="213" y="420" on="1"/>
        <pt x="213" y="1176" on="1"/>
        <pt x="213" y="1220" on="0"/>
        <pt x="189" y="1269" on="0"/>
        <pt x="154" y="1294" on="0"/>
        <pt x="113" y="1304" on="0"/>
        <pt x="78" y="1315" on="0"/>
        <pt x="54" y="1336" on="0"/>
        <pt x="54" y="1360" on="1"/>
        <pt x="54" y="1422" on="0"/>
        <pt x="119" y="1511" on="0"/>
        <pt x="244" y="1567" on="0"/>
        <pt x="427" y="1593" on="0"/>
        <pt x="545" y="1593" on="1"/>
      </contour>
    </TTGlyph>
    <TTGlyph name="E" xMin="54" yMin="0" xMax="1719" yMax="1593">
      <contour>
        <pt x="1393" y="844" on="1"/>
        <pt x="1393" y="791" on="0"/>
        <pt x="1369" y="691" on="0"/>
        <pt x="1319" y="614" on="0"/>
        <pt x="1241" y="567" on="0"/>
        <pt x="1186" y="567" on="1"/>
        <pt x="1154" y="567" on="0"/>
        <pt x="1110" y="594" on="0"/>
        <pt x="1076" y="643" on="0"/>
        <pt x="1044" y="711" on="0"/>
        <pt x="1024" y="752" on="1"/>
        <pt x="944" y="762" on="1"/>
        <pt x="944" y="205" on="1"/>
        <pt x="1286" y="221" on="1"/>
        <pt x="1327" y="395" on="1"/>
        <pt x="1344" y="452" on="0"/>
        <pt x="1392" y="531" on="0"/>
        <pt x="1449" y="580" on="0"/>
        <pt x="1513" y="602" on="0"/>
        <pt x="1545" y="602" on="1"/>
        <pt x="1582" y="602" on="0"/>
        <pt x="1646" y="577" on="0"/>
        <pt x="1693" y="529" on="0"/>
        <pt x="1719" y="462" on="0"/>
        <pt x="1719" y="420" on="1"/>
        <pt x="1719" y="379" on="0"/>
        <pt x="1702" y="284" on="0"/>
        <pt x="1669" y="191" on="0"/>
        <pt x="1619" y="105" on="0"/>
        <pt x="1551" y="39" on="0"/>
        <pt x="1466" y="0" on="0"/>
        <pt x="1415" y="0" on="1"/>
        <pt x="545" y="0" on="1"/>
        <pt x="427" y="0" on="0"/>
        <pt x="244" y="27" on="0"/>
        <pt x="119" y="84" on="0"/>
        <pt x="54" y="174" on="0"/>
        <pt x="54" y="236" on="1"/>
        <pt x="54" y="260" on="0"/>
        <pt x="78" y="281" on="0"/>
        <pt x="113" y="292" on="0"/>
        <pt x="154" y="302" on="0"/>
        <pt x="189" y="327" on="0"/>
        <pt x="213" y="375" on="0"/>
        <pt x="213" y="420" on="1"/>
        <pt x="213" y="1174" on="1"/>
        <pt x="213" y="1218" on="0"/>
        <pt x="189" y="1267" on="0"/>
        <pt x="154" y="1292" on="0"/>
        <pt x="113" y="1302" on="0"/>
        <pt x="78" y="1313" on="0"/>
        <pt x="54" y="1334" on="0"/>
        <pt x="54" y="1358" on="1"/>
        <pt x="54" y="1420" on="0"/>
        <pt x="119" y="1509" on="0"/>
        <pt x="244" y="1566" on="0"/>
        <pt x="427" y="1593" on="0"/>
        <pt x="545" y="1593" on="1"/>
        <pt x="1403" y="1593" on="1"/>
        <pt x="1476" y="1593" on="0"/>
        <pt x="1584" y="1513" on="0"/>
        <pt x="1655" y="1392" on="0"/>
        <pt x="1690" y="1252" on="0"/>
        <pt x="1690" y="1192" on="1"/>
        <pt x="1690" y="1152" on="0"/>
        <pt x="1665" y="1088" on="0"/>
        <pt x="1620" y="1044" on="0"/>
        <pt x="1559" y="1020" on="0"/>
        <pt x="1524" y="1020" on="1"/>
        <pt x="1493" y="1020" on="0"/>
        <pt x="1433" y="1041" on="0"/>
        <pt x="1379" y="1088" on="0"/>
        <pt x="1333" y="1163" on="0"/>
        <pt x="1317" y="1217" on="1"/>
        <pt x="1278" y="1384" on="1"/>
        <pt x="944" y="1384" on="1"/>
        <pt x="944" y="924" on="1"/>
        <pt x="1024" y="934" on="1"/>
        <pt x="1044" y="974" on="0"/>
        <pt x="1076" y="1042" on="0"/>
        <pt x="1110" y="1091" on="0"/>
        <pt x="1154" y="1118" on="0"/>
        <pt x="1186" y="1118" on="1"/>
        <pt x="1241" y="1118" on="0"/>
        <pt x="1319" y="1071" on="0"/>
        <pt x="1369" y="995" on="0"/>
        <pt x="1393" y="896" on="0"/>
      </contour>
    </TTGlyph>
    <TTGlyph name="Eacute" xMin="54" yMin="0" xMax="1719" yMax="2529">
      <component glyphName="E" x="0" y="0" flags="0x1204"/>
      <component glyphName="acute" x="590" y="1638" flags="0x1004"/>
    </TTGlyph>
    <TTGlyph name="Ecaron" xMin="54" yMin="0" xMax="1719" yMax="2507">
      <component glyphName="E" x="0" y="0" flags="0x1204"/>
      <component glyphName="caron" x="417" y="1638" flags="0x1004"/>
    </TTGlyph>
    <TTGlyph name="Ecircumflex" xMin="54" yMin="0" xMax="1719" yMax="2498">
      <component glyphName="E" x="0" y="0" flags="0x1204"/>
      <component glyphName="circumflex" x="466" y="1638" flags="0x1004"/>
    </TTGlyph>
    <TTGlyph name="Edieresis" xMin="54" yMin="0" xMax="1719" yMax="2195">
      <component glyphName="E" x="0" y="0" flags="0x1204"/>
      <component glyphName="dieresis" x="142" y="1638" flags="0x1004"/>
    </TTGlyph>
    <TTGlyph name="Edotaccent" xMin="54" yMin="0" xMax="1719" yMax="2355">
      <component glyphName="E" x="0" y="0" flags="0x1204"/>
      <component glyphName="period" x="399" y="1880" flags="0x1004"/>
    </TTGlyph>
    <TTGlyph name="Egrave" xMin="54" yMin="0" xMax="1719" yMax="2529">
      <component glyphName="E" x="0" y="0" flags="0x1204"/>
      <component glyphName="grave" x="254" y="1638" flags="0x1004"/>
    </TTGlyph>
    <TTGlyph name="Emacron" xMin="54" yMin="0" xMax="1719" yMax="2142">
      <component glyphName="E" x="0" y="0" flags="0x1204"/>
      <component glyphName="macron" x="259" y="1638" flags="0x1004"/>
    </TTGlyph>
    <TTGlyph name="Eng" xMin="65" yMin="-538" xMax="1762" yMax="1593">
      <contour>
        <pt x="894" y="101" on="1"/>
        <pt x="931" y="101" on="0"/>
        <pt x="1011" y="81" on="0"/>
        <pt x="1078" y="40" on="0"/>
        <pt x="1121" y="-24" on="0"/>
        <pt x="1121" y="-69" on="1"/>
        <pt x="1121" y="-110" on="0"/>
        <pt x="1087" y="-180" on="0"/>
        <pt x="1047" y="-237" on="0"/>
        <pt x="1013" y="-281" on="0"/>
        <pt x="1013" y="-296" on="1"/>
        <pt x="1013" y="-313" on="0"/>
        <pt x="1047" y="-329" on="0"/>
        <pt x="1074" y="-329" on="1"/>
        <pt x="1107" y="-329" on="0"/>
        <pt x="1189" y="-305" on="0"/>
        <pt x="1263" y="-258" on="0"/>
        <pt x="1313" y="-188" on="0"/>
        <pt x="1313" y="-143" on="1"/>
        <pt x="1313" y="723" on="1"/>
        <pt x="1604" y="723" on="1"/>
        <pt x="1604" y="-143" on="1"/>
        <pt x="1604" y="-243" on="0"/>
        <pt x="1525" y="-391" on="0"/>
        <pt x="1396" y="-489" on="0"/>
        <pt x="1231" y="-538" on="0"/>
        <pt x="1144" y="-538" on="1"/>
        <pt x="1055" y="-538" on="0"/>
        <pt x="884" y="-488" on="0"/>
        <pt x="751" y="-388" on="0"/>
        <pt x="669" y="-241" on="0"/>
        <pt x="669" y="-143" on="1"/>
        <pt x="669" y="-94" on="0"/>
        <pt x="699" y="-6" on="0"/>
        <pt x="757" y="61" on="0"/>
        <pt x="841" y="101" on="0"/>
      </contour>
      <contour>
        <pt x="534" y="776" on="1"/>
        <pt x="527" y="781" on="0"/>
        <pt x="523" y="781" on="1"/>
        <pt x="514" y="781" on="0"/>
        <pt x="514" y="771" on="1"/>
        <pt x="514" y="768" on="0"/>
        <pt x="515" y="766" on="1"/>
        <pt x="515" y="424" on="1"/>
        <pt x="515" y="379" on="0"/>
        <pt x="539" y="329" on="0"/>
        <pt x="575" y="303" on="0"/>
        <pt x="617" y="293" on="0"/>
        <pt x="653" y="281" on="0"/>
        <pt x="677" y="260" on="0"/>
        <pt x="677" y="236" on="1"/>
        <pt x="677" y="174" on="0"/>
        <pt x="622" y="84" on="0"/>
        <pt x="536" y="27" on="0"/>
        <pt x="429" y="0" on="0"/>
        <pt x="378" y="0" on="1"/>
        <pt x="318" y="0" on="0"/>
        <pt x="205" y="27" on="0"/>
        <pt x="118" y="84" on="0"/>
        <pt x="65" y="174" on="0"/>
        <pt x="65" y="236" on="1"/>
        <pt x="65" y="260" on="0"/>
        <pt x="89" y="281" on="0"/>
        <pt x="124" y="292" on="0"/>
        <pt x="165" y="302" on="0"/>
        <pt x="200" y="327" on="0"/>
        <pt x="224" y="375" on="0"/>
        <pt x="224" y="420" on="1"/>
        <pt x="224" y="1174" on="1"/>
        <pt x="224" y="1218" on="0"/>
        <pt x="200" y="1267" on="0"/>
        <pt x="165" y="1292" on="0"/>
        <pt x="124" y="1302" on="0"/>
        <pt x="89" y="1313" on="0"/>
        <pt x="65" y="1334" on="0"/>
        <pt x="65" y="1358" on="1"/>
        <pt x="65" y="1420" on="0"/>
        <pt x="115" y="1509" on="0"/>
        <pt x="202" y="1566" on="0"/>
        <pt x="320" y="1593" on="0"/>
        <pt x="388" y="1593" on="1"/>
        <pt x="440" y="1593" on="0"/>
        <pt x="515" y="1576" on="0"/>
        <pt x="582" y="1537" on="0"/>
        <pt x="656" y="1471" on="0"/>
        <pt x="708" y="1423" on="1"/>
        <pt x="1281" y="889" on="1"/>
        <pt x="1283" y="887" on="0"/>
        <pt x="1290" y="883" on="0"/>
        <pt x="1295" y="883" on="1"/>
        <pt x="1301" y="883" on="0"/>
        <pt x="1312" y="894" on="0"/>
        <pt x="1312" y="911" on="1"/>
        <pt x="1312" y="1169" on="1"/>
        <pt x="1312" y="1215" on="0"/>
        <pt x="1288" y="1265" on="0"/>
        <pt x="1252" y="1291" on="0"/>
        <pt x="1210" y="1301" on="0"/>
        <pt x="1174" y="1313" on="0"/>
        <pt x="1150" y="1334" on="0"/>
        <pt x="1150" y="1358" on="1"/>
        <pt x="1150" y="1420" on="0"/>
        <pt x="1205" y="1509" on="0"/>
        <pt x="1291" y="1566" on="0"/>
        <pt x="1398" y="1593" on="0"/>
        <pt x="1449" y="1593" on="1"/>
        <pt x="1509" y="1593" on="0"/>
        <pt x="1622" y="1566" on="0"/>
        <pt x="1709" y="1509" on="0"/>
        <pt x="1762" y="1420" on="0"/>
        <pt x="1762" y="1358" on="1"/>
        <pt x="1762" y="1334" on="0"/>
        <pt x="1739" y="1313" on="0"/>
        <pt x="1704" y="1302" on="0"/>
        <pt x="1663" y="1292" on="0"/>
        <pt x="1628" y="1267" on="0"/>
        <pt x="1605" y="1218" on="0"/>
        <pt x="1605" y="1174" on="1"/>
        <pt x="1605" y="215" on="1"/>
        <pt x="1605" y="149" on="0"/>
        <pt x="1583" y="65" on="0"/>
        <pt x="1542" y="18" on="0"/>
        <pt x="1485" y="0" on="0"/>
        <pt x="1451" y="0" on="1"/>
        <pt x="1427" y="0" on="0"/>
        <pt x="1375" y="20" on="0"/>
        <pt x="1317" y="59" on="0"/>
        <pt x="1247" y="117" on="0"/>
        <pt x="1205" y="154" on="1"/>
      </contour>
    </TTGlyph>
    <TTGlyph name="Eogonek" xMin="54" yMin="-701" xMax="1719" yMax="1593">
      <component glyphName="E" x="0" y="0" flags="0x1204"/>
      <component glyphName="ogonek" x="871" y="0" flags="0x1004"/>
    </TTGlyph>
    <TTGlyph name="Eth" xMin="54" yMin="0" xMax="1901" yMax="1593">
      <contour>
        <pt x="82" y="842" on="1"/>
        <pt x="82" y="876" on="0"/>
        <pt x="103" y="916" on="0"/>
        <pt x="141" y="935" on="0"/>
        <pt x="196" y="940" on="0"/>
        <pt x="229" y="940" on="1"/>
        <pt x="943" y="940" on="1"/>
        <pt x="979" y="940" on="0"/>
        <pt x="1037" y="937" on="0"/>
        <pt x="1078" y="919" on="0"/>
        <pt x="1100" y="879" on="0"/>
        <pt x="1100" y="842" on="1"/>
        <pt x="1100" y="805" on="0"/>
        <pt x="1078" y="765" on="0"/>
        <pt x="1037" y="747" on="0"/>
        <pt x="979" y="744" on="0"/>
        <pt x="943" y="744" on="1"/>
        <pt x="229" y="744" on="1"/>
        <pt x="196" y="744" on="0"/>
        <pt x="141" y="747" on="0"/>
        <pt x="103" y="765" on="0"/>
        <pt x="82" y="805" on="0"/>
      </contour>
      <contour>
        <pt x="1237" y="854" on="1"/>
        <pt x="1237" y="962" on="0"/>
        <pt x="1215" y="1158" on="0"/>
        <pt x="1167" y="1308" on="0"/>
        <pt x="1089" y="1397" on="0"/>
        <pt x="1033" y="1397" on="1"/>
        <pt x="991" y="1397" on="0"/>
        <pt x="940" y="1366" on="0"/>
        <pt x="914" y="1315" on="0"/>
        <pt x="906" y="1247" on="0"/>
        <pt x="906" y="1210" on="1"/>
        <pt x="906" y="418" on="1"/>
        <pt x="906" y="381" on="0"/>
        <pt x="914" y="313" on="0"/>
        <pt x="940" y="262" on="0"/>
        <pt x="991" y="231" on="0"/>
        <pt x="1033" y="231" on="1"/>
        <pt x="1089" y="231" on="0"/>
        <pt x="1167" y="321" on="0"/>
        <pt x="1215" y="484" on="0"/>
        <pt x="1237" y="714" on="0"/>
      </contour>
      <contour>
        <pt x="1033" y="1593" on="1"/>
        <pt x="1195" y="1593" on="0"/>
        <pt x="1450" y="1537" on="0"/>
        <pt x="1643" y="1437" on="0"/>
        <pt x="1778" y="1298" on="0"/>
        <pt x="1863" y="1131" on="0"/>
        <pt x="1901" y="943" on="0"/>
        <pt x="1901" y="844" on="1"/>
        <pt x="1901" y="732" on="0"/>
        <pt x="1871" y="519" on="0"/>
        <pt x="1793" y="332" on="0"/>
        <pt x="1657" y="175" on="0"/>
        <pt x="1446" y="63" on="0"/>
        <pt x="1149" y="0" on="0"/>
        <pt x="949" y="0" on="1"/>
        <pt x="545" y="0" on="1"/>
        <pt x="427" y="0" on="0"/>
        <pt x="244" y="27" on="0"/>
        <pt x="119" y="84" on="0"/>
        <pt x="54" y="174" on="0"/>
        <pt x="54" y="236" on="1"/>
        <pt x="54" y="260" on="0"/>
        <pt x="78" y="281" on="0"/>
        <pt x="113" y="292" on="0"/>
        <pt x="154" y="302" on="0"/>
        <pt x="189" y="327" on="0"/>
        <pt x="213" y="375" on="0"/>
        <pt x="213" y="420" on="1"/>
        <pt x="213" y="1176" on="1"/>
        <pt x="213" y="1220" on="0"/>
        <pt x="189" y="1269" on="0"/>
        <pt x="154" y="1294" on="0"/>
        <pt x="113" y="1304" on="0"/>
        <pt x="78" y="1315" on="0"/>
        <pt x="54" y="1336" on="0"/>
        <pt x="54" y="1360" on="1"/>
        <pt x="54" y="1422" on="0"/>
        <pt x="119" y="1511" on="0"/>
        <pt x="244" y="1567" on="0"/>
        <pt x="427" y="1593" on="0"/>
        <pt x="545" y="1593" on="1"/>
      </contour>
    </TTGlyph>
    <TTGlyph name="Euro" xMin="45" yMin="-23" xMax="1694" yMax="1620">
      <contour>
        <pt x="45" y="954" on="1"/>
        <pt x="45" y="982" on="0"/>
        <pt x="62" y="1017" on="0"/>
        <pt x="88" y="1037" on="0"/>
        <pt x="119" y="1044" on="0"/>
        <pt x="133" y="1044" on="1"/>
        <pt x="240" y="1044" on="1"/>
        <pt x="271" y="1169" on="0"/>
        <pt x="401" y="1380" on="0"/>
        <pt x="611" y="1534" on="0"/>
        <pt x="908" y="1620" on="0"/>
        <pt x="1106" y="1620" on="1"/>
        <pt x="1217" y="1620" on="0"/>
        <pt x="1417" y="1560" on="0"/>
        <pt x="1568" y="1449" on="0"/>
        <pt x="1657" y="1290" on="0"/>
        <pt x="1657" y="1192" on="1"/>
        <pt x="1657" y="1152" on="0"/>
        <pt x="1632" y="1088" on="0"/>
        <pt x="1587" y="1044" on="0"/>
        <pt x="1526" y="1020" on="0"/>
        <pt x="1491" y="1020" on="1"/>
        <pt x="1460" y="1020" on="0"/>
        <pt x="1398" y="1040" on="0"/>
        <pt x="1342" y="1087" on="0"/>
        <pt x="1297" y="1162" on="0"/>
        <pt x="1284" y="1217" on="1"/>
        <pt x="1266" y="1295" on="0"/>
        <pt x="1180" y="1376" on="0"/>
        <pt x="1131" y="1376" on="1"/>
        <pt x="1096" y="1376" on="0"/>
        <pt x="1029" y="1336" on="0"/>
        <pt x="973" y="1254" on="0"/>
        <pt x="934" y="1129" on="0"/>
        <pt x="929" y="1044" on="1"/>
        <pt x="1247" y="1044" on="1"/>
        <pt x="1262" y="1044" on="0"/>
        <pt x="1293" y="1037" on="0"/>
        <pt x="1318" y="1017" on="0"/>
        <pt x="1335" y="982" on="0"/>
        <pt x="1335" y="954" on="1"/>
        <pt x="1335" y="927" on="0"/>
        <pt x="1318" y="893" on="0"/>
        <pt x="1293" y="874" on="0"/>
        <pt x="1262" y="866" on="0"/>
        <pt x="1247" y="866" on="1"/>
        <pt x="932" y="866" on="1"/>
        <pt x="934" y="839" on="0"/>
        <pt x="939" y="789" on="0"/>
        <pt x="942" y="766" on="1"/>
        <pt x="1247" y="766" on="1"/>
        <pt x="1262" y="766" on="0"/>
        <pt x="1293" y="759" on="0"/>
        <pt x="1318" y="739" on="0"/>
        <pt x="1335" y="704" on="0"/>
        <pt x="1335" y="676" on="1"/>
        <pt x="1335" y="649" on="0"/>
        <pt x="1318" y="615" on="0"/>
        <pt x="1293" y="595" on="0"/>
        <pt x="1262" y="588" on="0"/>
        <pt x="1247" y="588" on="1"/>
        <pt x="986" y="588" on="1"/>
        <pt x="1013" y="520" on="0"/>
        <pt x="1084" y="435" on="0"/>
        <pt x="1165" y="385" on="0"/>
        <pt x="1253" y="367" on="0"/>
        <pt x="1296" y="367" on="1"/>
        <pt x="1341" y="367" on="0"/>
        <pt x="1427" y="388" on="0"/>
        <pt x="1498" y="419" on="0"/>
        <pt x="1549" y="454" on="0"/>
        <pt x="1561" y="469" on="1"/>
        <pt x="1576" y="489" on="0"/>
        <pt x="1611" y="508" on="0"/>
        <pt x="1626" y="508" on="1"/>
        <pt x="1654" y="508" on="0"/>
        <pt x="1694" y="450" on="0"/>
        <pt x="1694" y="399" on="1"/>
        <pt x="1694" y="319" on="0"/>
        <pt x="1595" y="167" on="0"/>
        <pt x="1415" y="49" on="0"/>
        <pt x="1164" y="-23" on="0"/>
        <pt x="1012" y="-23" on="1"/>
        <pt x="844" y="-23" on="0"/>
        <pt x="574" y="73" on="0"/>
        <pt x="376" y="239" on="0"/>
        <pt x="249" y="462" on="0"/>
        <pt x="224" y="588" on="1"/>
        <pt x="133" y="588" on="1"/>
        <pt x="119" y="588" on="0"/>
        <pt x="88" y="595" on="0"/>
        <pt x="62" y="615" on="0"/>
        <pt x="45" y="649" on="0"/>
        <pt x="45" y="676" on="1"/>
        <pt x="45" y="704" on="0"/>
        <pt x="62" y="739" on="0"/>
        <pt x="88" y="759" on="0"/>
        <pt x="119" y="766" on="0"/>
        <pt x="133" y="766" on="1"/>
        <pt x="207" y="766" on="1"/>
        <pt x="207" y="792" on="0"/>
        <pt x="209" y="841" on="0"/>
        <pt x="211" y="866" on="1"/>
        <pt x="133" y="866" on="1"/>
        <pt x="119" y="866" on="0"/>
        <pt x="88" y="874" on="0"/>
        <pt x="62" y="893" on="0"/>
        <pt x="45" y="927" on="0"/>
      </contour>
    </TTGlyph>
    <TTGlyph name="F" xMin="42" yMin="0" xMax="1641" yMax="1593">
      <contour>
        <pt x="967" y="924" on="1"/>
        <pt x="987" y="964" on="0"/>
        <pt x="1019" y="1032" on="0"/>
        <pt x="1053" y="1081" on="0"/>
        <pt x="1097" y="1108" on="0"/>
        <pt x="1129" y="1108" on="1"/>
        <pt x="1183" y="1108" on="0"/>
        <pt x="1262" y="1061" on="0"/>
        <pt x="1312" y="985" on="0"/>
        <pt x="1336" y="886" on="0"/>
        <pt x="1336" y="834" on="1"/>
        <pt x="1336" y="781" on="0"/>
        <pt x="1312" y="681" on="0"/>
        <pt x="1262" y="604" on="0"/>
        <pt x="1183" y="557" on="0"/>
        <pt x="1129" y="557" on="1"/>
        <pt x="1097" y="557" on="0"/>
        <pt x="1053" y="584" on="0"/>
        <pt x="1019" y="633" on="0"/>
        <pt x="987" y="700" on="0"/>
        <pt x="967" y="741" on="1"/>
        <pt x="863" y="752" on="1"/>
        <pt x="863" y="420" on="1"/>
        <pt x="863" y="376" on="0"/>
        <pt x="887" y="327" on="0"/>
        <pt x="923" y="302" on="0"/>
        <pt x="965" y="292" on="0"/>
        <pt x="1001" y="281" on="0"/>
        <pt x="1025" y="260" on="0"/>
        <pt x="1025" y="236" on="1"/>
        <pt x="1025" y="174" on="0"/>
        <pt x="960" y="84" on="0"/>
        <pt x="834" y="27" on="0"/>
        <pt x="651" y="0" on="0"/>
        <pt x="533" y="0" on="1"/>
        <pt x="415" y="0" on="0"/>
        <pt x="232" y="27" on="0"/>
        <pt x="107" y="84" on="0"/>
        <pt x="42" y="174" on="0"/>
        <pt x="42" y="236" on="1"/>
        <pt x="42" y="260" on="0"/>
        <pt x="66" y="281" on="0"/>
        <pt x="101" y="292" on="0"/>
        <pt x="142" y="302" on="0"/>
        <pt x="177" y="327" on="0"/>
        <pt x="201" y="375" on="0"/>
        <pt x="201" y="420" on="1"/>
        <pt x="201" y="1174" on="1"/>
        <pt x="201" y="1218" on="0"/>
        <pt x="177" y="1267" on="0"/>
        <pt x="142" y="1292" on="0"/>
        <pt x="101" y="1302" on="0"/>
        <pt x="66" y="1313" on="0"/>
        <pt x="42" y="1334" on="0"/>
        <pt x="42" y="1358" on="1"/>
        <pt x="42" y="1420" on="0"/>
        <pt x="107" y="1509" on="0"/>
        <pt x="232" y="1566" on="0"/>
        <pt x="415" y="1593" on="0"/>
        <pt x="533" y="1593" on="1"/>
        <pt x="1354" y="1593" on="1"/>
        <pt x="1427" y="1593" on="0"/>
        <pt x="1535" y="1513" on="0"/>
        <pt x="1606" y="1392" on="0"/>
        <pt x="1641" y="1252" on="0"/>
        <pt x="1641" y="1192" on="1"/>
        <pt x="1641" y="1152" on="0"/>
        <pt x="1616" y="1088" on="0"/>
        <pt x="1571" y="1044" on="0"/>
        <pt x="1510" y="1020" on="0"/>
        <pt x="1475" y="1020" on="1"/>
        <pt x="1444" y="1020" on="0"/>
        <pt x="1384" y="1041" on="0"/>
        <pt x="1330" y="1088" on="0"/>
        <pt x="1285" y="1163" on="0"/>
        <pt x="1270" y="1217" on="1"/>
        <pt x="1270" y="1384" on="1"/>
        <pt x="863" y="1384" on="1"/>
        <pt x="863" y="913" on="1"/>
      </contour>
    </TTGlyph>
    <TTGlyph name="G" xMin="44" yMin="-25" xMax="1699" yMax="1620">
      <contour>
        <pt x="1605" y="420" on="1"/>
        <pt x="1605" y="347" on="0"/>
        <pt x="1555" y="225" on="0"/>
        <pt x="1466" y="126" on="0"/>
        <pt x="1342" y="51" on="0"/>
        <pt x="1195" y="1" on="0"/>
        <pt x="1029" y="-25" on="0"/>
        <pt x="943" y="-25" on="1"/>
        <pt x="837" y="-25" on="0"/>
        <pt x="620" y="15" on="0"/>
        <pt x="421" y="98" on="0"/>
        <pt x="247" y="225" on="0"/>
        <pt x="118" y="399" on="0"/>
        <pt x="44" y="621" on="0"/>
        <pt x="44" y="758" on="1"/>
        <pt x="44" y="911" on="0"/>
        <pt x="118" y="1158" on="0"/>
        <pt x="246" y="1349" on="0"/>
        <pt x="420" y="1488" on="0"/>
        <pt x="618" y="1577" on="0"/>
        <pt x="832" y="1620" on="0"/>
        <pt x="937" y="1620" on="1"/>
        <pt x="1063" y="1620" on="0"/>
        <pt x="1294" y="1561" on="0"/>
        <pt x="1471" y="1450" on="0"/>
        <pt x="1576" y="1289" on="0"/>
        <pt x="1576" y="1188" on="1"/>
        <pt x="1576" y="1148" on="0"/>
        <pt x="1551" y="1084" on="0"/>
        <pt x="1506" y="1040" on="0"/>
        <pt x="1445" y="1016" on="0"/>
        <pt x="1410" y="1016" on="1"/>
        <pt x="1379" y="1016" on="0"/>
        <pt x="1317" y="1036" on="0"/>
        <pt x="1261" y="1083" on="0"/>
        <pt x="1217" y="1158" on="0"/>
        <pt x="1204" y="1212" on="1"/>
        <pt x="1195" y="1251" on="0"/>
        <pt x="1150" y="1311" on="0"/>
        <pt x="1093" y="1352" on="0"/>
        <pt x="1033" y="1372" on="0"/>
        <pt x="1009" y="1372" on="1"/>
        <pt x="972" y="1372" on="0"/>
        <pt x="886" y="1326" on="0"/>
        <pt x="813" y="1231" on="0"/>
        <pt x="765" y="1085" on="0"/>
        <pt x="765" y="985" on="1"/>
        <pt x="765" y="853" on="0"/>
        <pt x="792" y="652" on="0"/>
        <pt x="836" y="506" on="0"/>
        <pt x="893" y="409" on="0"/>
        <pt x="954" y="352" on="0"/>
        <pt x="1014" y="328" on="0"/>
        <pt x="1039" y="328" on="1"/>
        <pt x="1070" y="328" on="0"/>
        <pt x="1109" y="356" on="0"/>
        <pt x="1109" y="375" on="1"/>
        <pt x="1109" y="433" on="0"/>
        <pt x="1082" y="497" on="0"/>
        <pt x="1042" y="532" on="0"/>
        <pt x="994" y="547" on="0"/>
        <pt x="954" y="566" on="0"/>
        <pt x="927" y="600" on="0"/>
        <pt x="927" y="635" on="1"/>
        <pt x="927" y="713" on="0"/>
        <pt x="992" y="807" on="0"/>
        <pt x="1098" y="857" on="0"/>
        <pt x="1234" y="872" on="0"/>
        <pt x="1306" y="872" on="1"/>
        <pt x="1423" y="872" on="0"/>
        <pt x="1575" y="849" on="0"/>
        <pt x="1664" y="808" on="0"/>
        <pt x="1699" y="752" on="0"/>
        <pt x="1699" y="719" on="1"/>
        <pt x="1699" y="670" on="0"/>
        <pt x="1685" y="613" on="0"/>
        <pt x="1664" y="577" on="0"/>
        <pt x="1640" y="552" on="0"/>
        <pt x="1619" y="519" on="0"/>
        <pt x="1605" y="466" on="0"/>
      </contour>
    </TTGlyph>
    <TTGlyph name="Gbreve" xMin="44" yMin="-25" xMax="1699" yMax="2195">
      <component glyphName="G" x="0" y="0" flags="0x1204"/>
      <component glyphName="breve" x="414" y="1638" flags="0x1004"/>
    </TTGlyph>
    <TTGlyph name="Gcircumflex" xMin="44" yMin="-25" xMax="1699" yMax="2498">
      <component glyphName="G" x="0" y="0" flags="0x1204"/>
      <component glyphName="circumflex" x="422" y="1638" flags="0x1004"/>
    </TTGlyph>
    <TTGlyph name="Gcommaaccent" xMin="44" yMin="-924" xMax="1699" yMax="1620">
      <component glyphName="G" x="0" y="0" flags="0x1004"/>
      <component glyphName="commaaccent" x="555" y="0" flags="0x1004"/>
    </TTGlyph>
    <TTGlyph name="Gdotaccent" xMin="44" yMin="-25" xMax="1699" yMax="2355">
      <component glyphName="G" x="0" y="0" flags="0x1204"/>
      <component glyphName="period" x="484" y="1880" flags="0x1004"/>
    </TTGlyph>
    <TTGlyph name="H" xMin="55" yMin="0" xMax="2176" yMax="1593">
      <contour>
        <pt x="1337" y="729" on="1"/>
        <pt x="886" y="729" on="1"/>
        <pt x="886" y="424" on="1"/>
        <pt x="886" y="379" on="0"/>
        <pt x="911" y="329" on="0"/>
        <pt x="947" y="303" on="0"/>
        <pt x="989" y="293" on="0"/>
        <pt x="1024" y="281" on="0"/>
        <pt x="1048" y="260" on="0"/>
        <pt x="1048" y="236" on="1"/>
        <pt x="1048" y="111" on="0"/>
        <pt x="790" y="0" on="0"/>
        <pt x="546" y="0" on="1"/>
        <pt x="428" y="0" on="0"/>
        <pt x="245" y="27" on="0"/>
        <pt x="120" y="84" on="0"/>
        <pt x="55" y="174" on="0"/>
        <pt x="55" y="236" on="1"/>
        <pt x="55" y="260" on="0"/>
        <pt x="79" y="281" on="0"/>
        <pt x="114" y="292" on="0"/>
        <pt x="155" y="302" on="0"/>
        <pt x="190" y="327" on="0"/>
        <pt x="214" y="375" on="0"/>
        <pt x="214" y="420" on="1"/>
        <pt x="214" y="1174" on="1"/>
        <pt x="214" y="1218" on="0"/>
        <pt x="190" y="1267" on="0"/>
        <pt x="155" y="1292" on="0"/>
        <pt x="114" y="1302" on="0"/>
        <pt x="79" y="1313" on="0"/>
        <pt x="55" y="1334" on="0"/>
        <pt x="55" y="1358" on="1"/>
        <pt x="55" y="1420" on="0"/>
        <pt x="120" y="1509" on="0"/>
        <pt x="245" y="1566" on="0"/>
        <pt x="428" y="1593" on="0"/>
        <pt x="546" y="1593" on="1"/>
        <pt x="668" y="1593" on="0"/>
        <pt x="856" y="1566" on="0"/>
        <pt x="983" y="1509" on="0"/>
        <pt x="1048" y="1420" on="0"/>
        <pt x="1048" y="1358" on="1"/>
        <pt x="1048" y="1334" on="0"/>
        <pt x="1024" y="1313" on="0"/>
        <pt x="989" y="1302" on="0"/>
        <pt x="947" y="1292" on="0"/>
        <pt x="912" y="1267" on="0"/>
        <pt x="888" y="1218" on="0"/>
        <pt x="888" y="1174" on="1"/>
        <pt x="888" y="922" on="1"/>
        <pt x="1337" y="922" on="1"/>
        <pt x="1337" y="1174" on="1"/>
        <pt x="1337" y="1218" on="0"/>
        <pt x="1313" y="1267" on="0"/>
        <pt x="1278" y="1292" on="0"/>
        <pt x="1236" y="1302" on="0"/>
        <pt x="1201" y="1313" on="0"/>
        <pt x="1177" y="1334" on="0"/>
        <pt x="1177" y="1358" on="1"/>
        <pt x="1177" y="1482" on="0"/>
        <pt x="1434" y="1593" on="0"/>
        <pt x="1679" y="1593" on="1"/>
        <pt x="1920" y="1593" on="0"/>
        <pt x="2176" y="1482" on="0"/>
        <pt x="2176" y="1358" on="1"/>
        <pt x="2176" y="1334" on="0"/>
        <pt x="2151" y="1313" on="0"/>
        <pt x="2114" y="1302" on="0"/>
        <pt x="2070" y="1292" on="0"/>
        <pt x="2033" y="1267" on="0"/>
        <pt x="2008" y="1218" on="0"/>
        <pt x="2008" y="1174" on="1"/>
        <pt x="2008" y="424" on="1"/>
        <pt x="2008" y="379" on="0"/>
        <pt x="2033" y="329" on="0"/>
        <pt x="2070" y="303" on="0"/>
        <pt x="2114" y="293" on="0"/>
        <pt x="2151" y="281" on="0"/>
        <pt x="2176" y="260" on="0"/>
        <pt x="2176" y="236" on="1"/>
        <pt x="2176" y="174" on="0"/>
        <pt x="2111" y="84" on="0"/>
        <pt x="1985" y="27" on="0"/>
        <pt x="1799" y="0" on="0"/>
        <pt x="1679" y="0" on="1"/>
        <pt x="1557" y="0" on="0"/>
        <pt x="1369" y="27" on="0"/>
        <pt x="1242" y="84" on="0"/>
        <pt x="1177" y="174" on="0"/>
        <pt x="1177" y="236" on="1"/>
        <pt x="1177" y="260" on="0"/>
        <pt x="1201" y="281" on="0"/>
        <pt x="1236" y="293" on="0"/>
        <pt x="1278" y="303" on="0"/>
        <pt x="1313" y="329" on="0"/>
        <pt x="1337" y="378" on="0"/>
        <pt x="1337" y="424" on="1"/>
      </contour>
    </TTGlyph>
    <TTGlyph name="Hbar" xMin="48" yMin="0" xMax="2175" yMax="1593">
      <contour>
        <pt x="48" y="1113" on="1"/>
        <pt x="48" y="1135" on="0"/>
        <pt x="62" y="1163" on="0"/>
        <pt x="83" y="1179" on="0"/>
        <pt x="107" y="1185" on="0"/>
        <pt x="118" y="1185" on="1"/>
        <pt x="2099" y="1185" on="1"/>
        <pt x="2111" y="1185" on="0"/>
        <pt x="2135" y="1179" on="0"/>
        <pt x="2156" y="1163" on="0"/>
        <pt x="2169" y="1135" on="0"/>
        <pt x="2169" y="1113" on="1"/>
        <pt x="2169" y="1092" on="0"/>
        <pt x="2156" y="1064" on="0"/>
        <pt x="2135" y="1048" on="0"/>
        <pt x="2111" y="1042" on="0"/>
        <pt x="2099" y="1042" on="1"/>
        <pt x="118" y="1042" on="1"/>
        <pt x="107" y="1042" on="0"/>
        <pt x="83" y="1048" on="0"/>
        <pt x="62" y="1064" on="0"/>
        <pt x="48" y="1092" on="0"/>
      </contour>
      <contour>
        <pt x="1336" y="729" on="1"/>
        <pt x="885" y="729" on="1"/>
        <pt x="885" y="424" on="1"/>
        <pt x="885" y="379" on="0"/>
        <pt x="910" y="329" on="0"/>
        <pt x="946" y="303" on="0"/>
        <pt x="988" y="293" on="0"/>
        <pt x="1023" y="281" on="0"/>
        <pt x="1047" y="260" on="0"/>
        <pt x="1047" y="236" on="1"/>
        <pt x="1047" y="111" on="0"/>
        <pt x="789" y="0" on="0"/>
        <pt x="545" y="0" on="1"/>
        <pt x="427" y="0" on="0"/>
        <pt x="244" y="27" on="0"/>
        <pt x="119" y="84" on="0"/>
        <pt x="54" y="174" on="0"/>
        <pt x="54" y="236" on="1"/>
        <pt x="54" y="260" on="0"/>
        <pt x="78" y="281" on="0"/>
        <pt x="113" y="292" on="0"/>
        <pt x="154" y="302" on="0"/>
        <pt x="189" y="327" on="0"/>
        <pt x="213" y="375" on="0"/>
        <pt x="213" y="420" on="1"/>
        <pt x="213" y="1174" on="1"/>
        <pt x="213" y="1218" on="0"/>
        <pt x="189" y="1267" on="0"/>
        <pt x="154" y="1292" on="0"/>
        <pt x="113" y="1302" on="0"/>
        <pt x="78" y="1313" on="0"/>
        <pt x="54" y="1334" on="0"/>
        <pt x="54" y="1358" on="1"/>
        <pt x="54" y="1420" on="0"/>
        <pt x="119" y="1509" on="0"/>
        <pt x="244" y="1566" on="0"/>
        <pt x="427" y="1593" on="0"/>
        <pt x="545" y="1593" on="1"/>
        <pt x="667" y="1593" on="0"/>
        <pt x="855" y="1566" on="0"/>
        <pt x="982" y="1509" on="0"/>
        <pt x="1047" y="1420" on="0"/>
        <pt x="1047" y="1358" on="1"/>
        <pt x="1047" y="1334" on="0"/>
        <pt x="1023" y="1313" on="0"/>
        <pt x="988" y="1302" on="0"/>
        <pt x="946" y="1292" on="0"/>
        <pt x="911" y="1267" on="0"/>
        <pt x="887" y="1218" on="0"/>
        <pt x="887" y="1174" on="1"/>
        <pt x="887" y="922" on="1"/>
        <pt x="1336" y="922" on="1"/>
        <pt x="1336" y="1174" on="1"/>
        <pt x="1336" y="1218" on="0"/>
        <pt x="1312" y="1267" on="0"/>
        <pt x="1277" y="1292" on="0"/>
        <pt x="1235" y="1302" on="0"/>
        <pt x="1200" y="1313" on="0"/>
        <pt x="1176" y="1334" on="0"/>
        <pt x="1176" y="1358" on="1"/>
        <pt x="1176" y="1482" on="0"/>
        <pt x="1433" y="1593" on="0"/>
        <pt x="1678" y="1593" on="1"/>
        <pt x="1919" y="1593" on="0"/>
        <pt x="2175" y="1482" on="0"/>
        <pt x="2175" y="1358" on="1"/>
        <pt x="2175" y="1334" on="0"/>
        <pt x="2150" y="1313" on="0"/>
        <pt x="2113" y="1302" on="0"/>
        <pt x="2069" y="1292" on="0"/>
        <pt x="2032" y="1267" on="0"/>
        <pt x="2007" y="1218" on="0"/>
        <pt x="2007" y="1174" on="1"/>
        <pt x="2007" y="424" on="1"/>
        <pt x="2007" y="379" on="0"/>
        <pt x="2032" y="329" on="0"/>
        <pt x="2069" y="303" on="0"/>
        <pt x="2113" y="293" on="0"/>
        <pt x="2150" y="281" on="0"/>
        <pt x="2175" y="260" on="0"/>
        <pt x="2175" y="236" on="1"/>
        <pt x="2175" y="174" on="0"/>
        <pt x="2110" y="84" on="0"/>
        <pt x="1984" y="27" on="0"/>
        <pt x="1798" y="0" on="0"/>
        <pt x="1678" y="0" on="1"/>
        <pt x="1556" y="0" on="0"/>
        <pt x="1368" y="27" on="0"/>
        <pt x="1241" y="84" on="0"/>
        <pt x="1176" y="174" on="0"/>
        <pt x="1176" y="236" on="1"/>
        <pt x="1176" y="260" on="0"/>
        <pt x="1200" y="281" on="0"/>
        <pt x="1235" y="293" on="0"/>
        <pt x="1277" y="303" on="0"/>
        <pt x="1312" y="329" on="0"/>
        <pt x="1336" y="378" on="0"/>
        <pt x="1336" y="424" on="1"/>
      </contour>
    </TTGlyph>
    <TTGlyph name="Hcircumflex" xMin="55" yMin="0" xMax="2176" yMax="2498">
      <component glyphName="H" x="0" y="0" flags="0x1204"/>
      <component glyphName="circumflex" x="644" y="1638" flags="0x1004"/>
    </TTGlyph>
    <TTGlyph name="I" xMin="54" yMin="0" xMax="1047" yMax="1593">
      <contour>
        <pt x="885" y="424" on="1"/>
        <pt x="885" y="379" on="0"/>
        <pt x="909" y="329" on="0"/>
        <pt x="945" y="303" on="0"/>
        <pt x="987" y="293" on="0"/>
        <pt x="1023" y="281" on="0"/>
        <pt x="1047" y="260" on="0"/>
        <pt x="1047" y="236" on="1"/>
        <pt x="1047" y="111" on="0"/>
        <pt x="789" y="0" on="0"/>
        <pt x="545" y="0" on="1"/>
        <pt x="427" y="0" on="0"/>
        <pt x="244" y="27" on="0"/>
        <pt x="119" y="84" on="0"/>
        <pt x="54" y="174" on="0"/>
        <pt x="54" y="236" on="1"/>
        <pt x="54" y="260" on="0"/>
        <pt x="78" y="281" on="0"/>
        <pt x="113" y="292" on="0"/>
        <pt x="154" y="302" on="0"/>
        <pt x="189" y="327" on="0"/>
        <pt x="213" y="375" on="0"/>
        <pt x="213" y="420" on="1"/>
        <pt x="213" y="1174" on="1"/>
        <pt x="213" y="1218" on="0"/>
        <pt x="189" y="1267" on="0"/>
        <pt x="154" y="1292" on="0"/>
        <pt x="113" y="1302" on="0"/>
        <pt x="78" y="1313" on="0"/>
        <pt x="54" y="1334" on="0"/>
        <pt x="54" y="1358" on="1"/>
        <pt x="54" y="1420" on="0"/>
        <pt x="119" y="1509" on="0"/>
        <pt x="244" y="1566" on="0"/>
        <pt x="427" y="1593" on="0"/>
        <pt x="545" y="1593" on="1"/>
        <pt x="667" y="1593" on="0"/>
        <pt x="855" y="1566" on="0"/>
        <pt x="982" y="1509" on="0"/>
        <pt x="1047" y="1420" on="0"/>
        <pt x="1047" y="1358" on="1"/>
        <pt x="1047" y="1334" on="0"/>
        <pt x="1023" y="1313" on="0"/>
        <pt x="988" y="1302" on="0"/>
        <pt x="946" y="1292" on="0"/>
        <pt x="911" y="1267" on="0"/>
        <pt x="887" y="1218" on="0"/>
        <pt x="887" y="1174" on="1"/>
      </contour>
    </TTGlyph>
    <TTGlyph name="Iacute" xMin="54" yMin="0" xMax="1047" yMax="2529">
      <component glyphName="I" x="0" y="0" flags="0x1004"/>
      <component glyphName="acute" x="155" y="1638" flags="0x1004"/>
    </TTGlyph>
    <TTGlyph name="Icircumflex" xMin="54" yMin="0" xMax="1047" yMax="2498">
      <component glyphName="I" x="0" y="0" flags="0x1204"/>
      <component glyphName="circumflex" x="79" y="1638" flags="0x1004"/>
    </TTGlyph>
    <TTGlyph name="Idieresis" xMin="-150" yMin="0" xMax="1281" yMax="2195">
      <component glyphName="I" x="1" y="0" flags="0x1204"/>
      <component glyphName="dieresis" x="-190" y="1638" flags="0x1004"/>
    </TTGlyph>
    <TTGlyph name="Idotaccent" xMin="54" yMin="0" xMax="1047" yMax="2355">
      <component glyphName="I" x="0" y="0" flags="0x1004"/>
      <component glyphName="period" x="206" y="1880" flags="0x1004"/>
    </TTGlyph>
    <TTGlyph name="Igrave" xMin="54" yMin="0" xMax="1047" yMax="2529">
      <component glyphName="I" x="0" y="0" flags="0x1204"/>
      <component glyphName="grave" x="102" y="1638" flags="0x1004"/>
    </TTGlyph>
    <TTGlyph name="Imacron" xMin="-47" yMin="0" xMax="1121" yMax="2142">
      <component glyphName="I" x="1" y="0" flags="0x1004"/>
      <component glyphName="macron" x="-88" y="1638" flags="0x1004"/>
    </TTGlyph>
    <TTGlyph name="Iogonek" xMin="51" yMin="-701" xMax="1044" yMax="1593">
      <component glyphName="I" x="-3" y="0" flags="0x1004"/>
      <component glyphName="ogonek" x="216" y="0" flags="0x1004"/>
    </TTGlyph>
    <TTGlyph name="Itilde" xMin="-57" yMin="0" xMax="1307" yMax="2345">
      <component glyphName="I" x="0" y="0" flags="0x1204"/>
      <component glyphName="tilde" x="-90" y="1638" flags="0x1004"/>
    </TTGlyph>
    <TTGlyph name="J" xMin="13" yMin="-25" xMax="1592" yMax="1593">
      <contour>
        <pt x="325" y="858" on="1"/>
        <pt x="376" y="858" on="0"/>
        <pt x="486" y="831" on="0"/>
        <pt x="578" y="774" on="0"/>
        <pt x="638" y="685" on="0"/>
        <pt x="638" y="623" on="1"/>
        <pt x="638" y="585" on="0"/>
        <pt x="616" y="517" on="0"/>
        <pt x="583" y="456" on="0"/>
        <pt x="544" y="404" on="0"/>
        <pt x="511" y="359" on="0"/>
        <pt x="489" y="323" on="0"/>
        <pt x="489" y="309" on="1"/>
        <pt x="489" y="288" on="0"/>
        <pt x="538" y="262" on="0"/>
        <pt x="577" y="262" on="1"/>
        <pt x="613" y="262" on="0"/>
        <pt x="679" y="289" on="0"/>
        <pt x="729" y="350" on="0"/>
        <pt x="759" y="449" on="0"/>
        <pt x="759" y="520" on="1"/>
        <pt x="759" y="1176" on="1"/>
        <pt x="759" y="1220" on="0"/>
        <pt x="735" y="1269" on="0"/>
        <pt x="700" y="1293" on="0"/>
        <pt x="658" y="1302" on="0"/>
        <pt x="623" y="1313" on="0"/>
        <pt x="599" y="1334" on="0"/>
        <pt x="599" y="1358" on="1"/>
        <pt x="599" y="1482" on="0"/>
        <pt x="856" y="1593" on="0"/>
        <pt x="1101" y="1593" on="1"/>
        <pt x="1219" y="1593" on="0"/>
        <pt x="1402" y="1566" on="0"/>
        <pt x="1527" y="1509" on="0"/>
        <pt x="1592" y="1420" on="0"/>
        <pt x="1592" y="1358" on="1"/>
        <pt x="1592" y="1334" on="0"/>
        <pt x="1568" y="1313" on="0"/>
        <pt x="1532" y="1302" on="0"/>
        <pt x="1491" y="1292" on="0"/>
        <pt x="1455" y="1267" on="0"/>
        <pt x="1431" y="1218" on="0"/>
        <pt x="1431" y="1174" on="1"/>
        <pt x="1431" y="520" on="1"/>
        <pt x="1431" y="428" on="0"/>
        <pt x="1376" y="275" on="0"/>
        <pt x="1280" y="154" on="0"/>
        <pt x="1148" y="64" on="0"/>
        <pt x="994" y="4" on="0"/>
        <pt x="823" y="-25" on="0"/>
        <pt x="736" y="-25" on="1"/>
        <pt x="647" y="-25" on="0"/>
        <pt x="470" y="6" on="0"/>
        <pt x="309" y="67" on="0"/>
        <pt x="171" y="158" on="0"/>
        <pt x="70" y="279" on="0"/>
        <pt x="13" y="430" on="0"/>
        <pt x="13" y="520" on="1"/>
        <pt x="13" y="587" on="0"/>
        <pt x="55" y="710" on="0"/>
        <pt x="135" y="803" on="0"/>
        <pt x="251" y="858" on="0"/>
      </contour>
    </TTGlyph>
    <TTGlyph name="Jcircumflex" xMin="13" yMin="-25" xMax="1592" yMax="2498">
      <component glyphName="J" x="0" y="0" flags="0x1204"/>
      <component glyphName="circumflex" x="574" y="1638" flags="0x1004"/>
    </TTGlyph>
    <TTGlyph name="K" xMin="55" yMin="0" xMax="2096" yMax="1593">
      <contour>
        <pt x="1343" y="1174" on="1"/>
        <pt x="1372" y="1192" on="0"/>
        <pt x="1388" y="1229" on="0"/>
        <pt x="1388" y="1241" on="1"/>
        <pt x="1388" y="1258" on="0"/>
        <pt x="1355" y="1285" on="0"/>
        <pt x="1314" y="1314" on="0"/>
        <pt x="1281" y="1348" on="0"/>
        <pt x="1281" y="1372" on="1"/>
        <pt x="1281" y="1436" on="0"/>
        <pt x="1344" y="1522" on="0"/>
        <pt x="1447" y="1572" on="0"/>
        <pt x="1578" y="1593" on="0"/>
        <pt x="1646" y="1593" on="1"/>
        <pt x="1726" y="1593" on="0"/>
        <pt x="1869" y="1569" on="0"/>
        <pt x="1977" y="1519" on="0"/>
        <pt x="2041" y="1439" on="0"/>
        <pt x="2041" y="1384" on="1"/>
        <pt x="2041" y="1349" on="0"/>
        <pt x="2004" y="1307" on="0"/>
        <pt x="1941" y="1278" on="0"/>
        <pt x="1859" y="1257" on="0"/>
        <pt x="1771" y="1229" on="0"/>
        <pt x="1682" y="1186" on="0"/>
        <pt x="1644" y="1151" on="1"/>
        <pt x="1433" y="956" on="1"/>
        <pt x="1851" y="424" on="1"/>
        <pt x="1882" y="384" on="0"/>
        <pt x="1943" y="340" on="0"/>
        <pt x="1997" y="314" on="0"/>
        <pt x="2043" y="299" on="0"/>
        <pt x="2077" y="279" on="0"/>
        <pt x="2096" y="244" on="0"/>
        <pt x="2096" y="211" on="1"/>
        <pt x="2096" y="100" on="0"/>
        <pt x="1851" y="0" on="0"/>
        <pt x="1619" y="0" on="1"/>
        <pt x="1503" y="0" on="0"/>
        <pt x="1319" y="28" on="0"/>
        <pt x="1190" y="87" on="0"/>
        <pt x="1122" y="178" on="0"/>
        <pt x="1122" y="242" on="1"/>
        <pt x="1122" y="267" on="0"/>
        <pt x="1157" y="293" on="0"/>
        <pt x="1199" y="312" on="0"/>
        <pt x="1234" y="332" on="0"/>
        <pt x="1234" y="352" on="1"/>
        <pt x="1234" y="365" on="0"/>
        <pt x="1217" y="396" on="0"/>
        <pt x="1199" y="420" on="1"/>
        <pt x="1027" y="645" on="1"/>
        <pt x="1017" y="658" on="0"/>
        <pt x="989" y="673" on="0"/>
        <pt x="958" y="681" on="0"/>
        <pt x="923" y="682" on="0"/>
        <pt x="906" y="682" on="1"/>
        <pt x="886" y="682" on="1"/>
        <pt x="886" y="424" on="1"/>
        <pt x="886" y="379" on="0"/>
        <pt x="910" y="329" on="0"/>
        <pt x="946" y="303" on="0"/>
        <pt x="988" y="293" on="0"/>
        <pt x="1024" y="281" on="0"/>
        <pt x="1048" y="260" on="0"/>
        <pt x="1048" y="236" on="1"/>
        <pt x="1048" y="111" on="0"/>
        <pt x="790" y="0" on="0"/>
        <pt x="546" y="0" on="1"/>
        <pt x="428" y="0" on="0"/>
        <pt x="245" y="27" on="0"/>
        <pt x="120" y="84" on="0"/>
        <pt x="55" y="174" on="0"/>
        <pt x="55" y="236" on="1"/>
        <pt x="55" y="260" on="0"/>
        <pt x="79" y="281" on="0"/>
        <pt x="114" y="292" on="0"/>
        <pt x="155" y="302" on="0"/>
        <pt x="190" y="327" on="0"/>
        <pt x="214" y="375" on="0"/>
        <pt x="214" y="420" on="1"/>
        <pt x="214" y="1174" on="1"/>
        <pt x="214" y="1218" on="0"/>
        <pt x="190" y="1267" on="0"/>
        <pt x="155" y="1292" on="0"/>
        <pt x="114" y="1302" on="0"/>
        <pt x="79" y="1313" on="0"/>
        <pt x="55" y="1334" on="0"/>
        <pt x="55" y="1358" on="1"/>
        <pt x="55" y="1420" on="0"/>
        <pt x="120" y="1509" on="0"/>
        <pt x="245" y="1566" on="0"/>
        <pt x="428" y="1593" on="0"/>
        <pt x="546" y="1593" on="1"/>
        <pt x="668" y="1593" on="0"/>
        <pt x="856" y="1566" on="0"/>
        <pt x="983" y="1509" on="0"/>
        <pt x="1048" y="1420" on="0"/>
        <pt x="1048" y="1358" on="1"/>
        <pt x="1048" y="1334" on="0"/>
        <pt x="1024" y="1313" on="0"/>
        <pt x="988" y="1302" on="0"/>
        <pt x="946" y="1292" on="0"/>
        <pt x="910" y="1267" on="0"/>
        <pt x="886" y="1218" on="0"/>
        <pt x="886" y="1174" on="1"/>
        <pt x="886" y="862" on="1"/>
        <pt x="914" y="862" on="0"/>
        <pt x="976" y="868" on="0"/>
        <pt x="1001" y="887" on="1"/>
      </contour>
    </TTGlyph>
    <TTGlyph name="Kcommaaccent" xMin="55" yMin="-924" xMax="2096" yMax="1593">
      <component glyphName="K" x="0" y="0" flags="0x1004"/>
      <component glyphName="commaaccent" x="745" y="0" flags="0x1004"/>
    </TTGlyph>
    <TTGlyph name="L" xMin="55" yMin="0" xMax="1533" yMax="1593">
      <contour>
        <pt x="886" y="360" on="1"/>
        <pt x="886" y="314" on="0"/>
        <pt x="909" y="258" on="0"/>
        <pt x="944" y="227" on="0"/>
        <pt x="986" y="216" on="0"/>
        <pt x="1004" y="216" on="1"/>
        <pt x="1006" y="216" on="0"/>
        <pt x="1012" y="217" on="0"/>
        <pt x="1031" y="218" on="0"/>
        <pt x="1068" y="222" on="0"/>
        <pt x="1101" y="225" on="1"/>
        <pt x="1142" y="399" on="1"/>
        <pt x="1159" y="456" on="0"/>
        <pt x="1207" y="535" on="0"/>
        <pt x="1264" y="584" on="0"/>
        <pt x="1327" y="606" on="0"/>
        <pt x="1359" y="606" on="1"/>
        <pt x="1397" y="606" on="0"/>
        <pt x="1461" y="581" on="0"/>
        <pt x="1507" y="534" on="0"/>
        <pt x="1533" y="466" on="0"/>
        <pt x="1533" y="424" on="1"/>
        <pt x="1533" y="383" on="0"/>
        <pt x="1517" y="287" on="0"/>
        <pt x="1483" y="193" on="0"/>
        <pt x="1433" y="106" on="0"/>
        <pt x="1366" y="40" on="0"/>
        <pt x="1281" y="0" on="0"/>
        <pt x="1230" y="0" on="1"/>
        <pt x="546" y="0" on="1"/>
        <pt x="428" y="0" on="0"/>
        <pt x="245" y="27" on="0"/>
        <pt x="120" y="84" on="0"/>
        <pt x="55" y="174" on="0"/>
        <pt x="55" y="236" on="1"/>
        <pt x="55" y="260" on="0"/>
        <pt x="79" y="281" on="0"/>
        <pt x="114" y="292" on="0"/>
        <pt x="155" y="302" on="0"/>
        <pt x="190" y="327" on="0"/>
        <pt x="214" y="375" on="0"/>
        <pt x="214" y="420" on="1"/>
        <pt x="214" y="1174" on="1"/>
        <pt x="214" y="1218" on="0"/>
        <pt x="190" y="1267" on="0"/>
        <pt x="155" y="1292" on="0"/>
        <pt x="114" y="1302" on="0"/>
        <pt x="79" y="1313" on="0"/>
        <pt x="55" y="1334" on="0"/>
        <pt x="55" y="1358" on="1"/>
        <pt x="55" y="1420" on="0"/>
        <pt x="120" y="1509" on="0"/>
        <pt x="245" y="1566" on="0"/>
        <pt x="428" y="1593" on="0"/>
        <pt x="546" y="1593" on="1"/>
        <pt x="668" y="1593" on="0"/>
        <pt x="856" y="1566" on="0"/>
        <pt x="983" y="1509" on="0"/>
        <pt x="1048" y="1420" on="0"/>
        <pt x="1048" y="1358" on="1"/>
        <pt x="1048" y="1334" on="0"/>
        <pt x="1024" y="1313" on="0"/>
        <pt x="989" y="1302" on="0"/>
        <pt x="947" y="1292" on="0"/>
        <pt x="912" y="1267" on="0"/>
        <pt x="888" y="1218" on="0"/>
        <pt x="888" y="1174" on="1"/>
      </contour>
    </TTGlyph>
    <TTGlyph name="Lacute" xMin="55" yMin="0" xMax="1533" yMax="2529">
      <component glyphName="L" x="0" y="0" flags="0x1204"/>
      <component glyphName="acute" x="162" y="1638" flags="0x1004"/>
    </TTGlyph>
    <TTGlyph name="Lcaron" xMin="55" yMin="0" xMax="1733" yMax="1892">
      <component glyphName="L" x="0" y="0" flags="0x1004"/>
      <component glyphName="quoteright" x="1055" y="297" flags="0x1004"/>
    </TTGlyph>
    <TTGlyph name="Lcommaaccent" xMin="55" yMin="-924" xMax="1533" yMax="1593">
      <component glyphName="L" x="0" y="0" flags="0x1204"/>
      <component glyphName="commaaccent" x="461" y="0" flags="0x1004"/>
    </TTGlyph>
    <TTGlyph name="Lslash" xMin="3" yMin="0" xMax="1543" yMax="1593">
      <contour>
        <pt x="7" y="704" on="1"/>
        <pt x="-2" y="737" on="0"/>
        <pt x="8" y="780" on="0"/>
        <pt x="40" y="809" on="0"/>
        <pt x="91" y="827" on="0"/>
        <pt x="123" y="836" on="1"/>
        <pt x="1006" y="1072" on="1"/>
        <pt x="1041" y="1081" on="0"/>
        <pt x="1098" y="1094" on="0"/>
        <pt x="1142" y="1086" on="0"/>
        <pt x="1174" y="1054" on="0"/>
        <pt x="1183" y="1018" on="1"/>
        <pt x="1193" y="983" on="0"/>
        <pt x="1182" y="939" on="0"/>
        <pt x="1147" y="910" on="0"/>
        <pt x="1092" y="892" on="0"/>
        <pt x="1057" y="883" on="1"/>
        <pt x="174" y="647" on="1"/>
        <pt x="142" y="638" on="0"/>
        <pt x="89" y="627" on="0"/>
        <pt x="47" y="635" on="0"/>
        <pt x="16" y="668" on="0"/>
      </contour>
      <contour>
        <pt x="896" y="360" on="1"/>
        <pt x="896" y="314" on="0"/>
        <pt x="919" y="258" on="0"/>
        <pt x="954" y="227" on="0"/>
        <pt x="996" y="216" on="0"/>
        <pt x="1014" y="216" on="1"/>
        <pt x="1016" y="216" on="0"/>
        <pt x="1022" y="217" on="0"/>
        <pt x="1041" y="218" on="0"/>
        <pt x="1078" y="222" on="0"/>
        <pt x="1111" y="225" on="1"/>
        <pt x="1152" y="399" on="1"/>
        <pt x="1169" y="456" on="0"/>
        <pt x="1217" y="535" on="0"/>
        <pt x="1274" y="584" on="0"/>
        <pt x="1337" y="606" on="0"/>
        <pt x="1369" y="606" on="1"/>
        <pt x="1407" y="606" on="0"/>
        <pt x="1471" y="581" on="0"/>
        <pt x="1517" y="534" on="0"/>
        <pt x="1543" y="466" on="0"/>
        <pt x="1543" y="424" on="1"/>
        <pt x="1543" y="383" on="0"/>
        <pt x="1527" y="287" on="0"/>
        <pt x="1493" y="193" on="0"/>
        <pt x="1443" y="106" on="0"/>
        <pt x="1376" y="40" on="0"/>
        <pt x="1291" y="0" on="0"/>
        <pt x="1240" y="0" on="1"/>
        <pt x="556" y="0" on="1"/>
        <pt x="438" y="0" on="0"/>
        <pt x="255" y="27" on="0"/>
        <pt x="130" y="84" on="0"/>
        <pt x="65" y="174" on="0"/>
        <pt x="65" y="236" on="1"/>
        <pt x="65" y="260" on="0"/>
        <pt x="89" y="281" on="0"/>
        <pt x="124" y="292" on="0"/>
        <pt x="165" y="302" on="0"/>
        <pt x="200" y="327" on="0"/>
        <pt x="224" y="375" on="0"/>
        <pt x="224" y="420" on="1"/>
        <pt x="224" y="1174" on="1"/>
        <pt x="224" y="1218" on="0"/>
        <pt x="200" y="1267" on="0"/>
        <pt x="165" y="1292" on="0"/>
        <pt x="124" y="1302" on="0"/>
        <pt x="89" y="1313" on="0"/>
        <pt x="65" y="1334" on="0"/>
        <pt x="65" y="1358" on="1"/>
        <pt x="65" y="1420" on="0"/>
        <pt x="130" y="1509" on="0"/>
        <pt x="255" y="1566" on="0"/>
        <pt x="438" y="1593" on="0"/>
        <pt x="556" y="1593" on="1"/>
        <pt x="678" y="1593" on="0"/>
        <pt x="866" y="1566" on="0"/>
        <pt x="993" y="1509" on="0"/>
        <pt x="1058" y="1420" on="0"/>
        <pt x="1058" y="1358" on="1"/>
        <pt x="1058" y="1334" on="0"/>
        <pt x="1034" y="1313" on="0"/>
        <pt x="999" y="1302" on="0"/>
        <pt x="957" y="1292" on="0"/>
        <pt x="922" y="1267" on="0"/>
        <pt x="898" y="1218" on="0"/>
        <pt x="898" y="1174" on="1"/>
      </contour>
    </TTGlyph>
    <TTGlyph name="M" xMin="62" yMin="0" xMax="2165" yMax="1593">
      <contour>
        <pt x="512" y="838" on="1"/>
        <pt x="512" y="424" on="1"/>
        <pt x="512" y="379" on="0"/>
        <pt x="536" y="329" on="0"/>
        <pt x="572" y="303" on="0"/>
        <pt x="614" y="293" on="0"/>
        <pt x="650" y="281" on="0"/>
        <pt x="674" y="260" on="0"/>
        <pt x="674" y="236" on="1"/>
        <pt x="674" y="174" on="0"/>
        <pt x="619" y="84" on="0"/>
        <pt x="533" y="27" on="0"/>
        <pt x="426" y="0" on="0"/>
        <pt x="375" y="0" on="1"/>
        <pt x="315" y="0" on="0"/>
        <pt x="202" y="27" on="0"/>
        <pt x="115" y="84" on="0"/>
        <pt x="62" y="174" on="0"/>
        <pt x="62" y="236" on="1"/>
        <pt x="62" y="260" on="0"/>
        <pt x="86" y="281" on="0"/>
        <pt x="121" y="292" on="0"/>
        <pt x="162" y="302" on="0"/>
        <pt x="197" y="327" on="0"/>
        <pt x="221" y="375" on="0"/>
        <pt x="221" y="420" on="1"/>
        <pt x="221" y="1174" on="1"/>
        <pt x="221" y="1218" on="0"/>
        <pt x="197" y="1267" on="0"/>
        <pt x="162" y="1292" on="0"/>
        <pt x="121" y="1302" on="0"/>
        <pt x="86" y="1313" on="0"/>
        <pt x="62" y="1334" on="0"/>
        <pt x="62" y="1358" on="1"/>
        <pt x="62" y="1420" on="0"/>
        <pt x="120" y="1509" on="0"/>
        <pt x="221" y="1566" on="0"/>
        <pt x="356" y="1593" on="0"/>
        <pt x="434" y="1593" on="1"/>
        <pt x="508" y="1593" on="0"/>
        <pt x="609" y="1565" on="0"/>
        <pt x="689" y="1504" on="0"/>
        <pt x="760" y="1406" on="0"/>
        <pt x="803" y="1337" on="1"/>
        <pt x="1071" y="903" on="1"/>
        <pt x="1313" y="1315" on="1"/>
        <pt x="1346" y="1372" on="0"/>
        <pt x="1421" y="1473" on="0"/>
        <pt x="1513" y="1549" on="0"/>
        <pt x="1627" y="1593" on="0"/>
        <pt x="1700" y="1593" on="1"/>
        <pt x="1822" y="1593" on="0"/>
        <pt x="1998" y="1566" on="0"/>
        <pt x="2111" y="1509" on="0"/>
        <pt x="2165" y="1420" on="0"/>
        <pt x="2165" y="1358" on="1"/>
        <pt x="2165" y="1334" on="0"/>
        <pt x="2141" y="1313" on="0"/>
        <pt x="2105" y="1302" on="0"/>
        <pt x="2063" y="1292" on="0"/>
        <pt x="2027" y="1267" on="0"/>
        <pt x="2003" y="1218" on="0"/>
        <pt x="2003" y="1174" on="1"/>
        <pt x="2003" y="424" on="1"/>
        <pt x="2003" y="379" on="0"/>
        <pt x="2027" y="329" on="0"/>
        <pt x="2063" y="303" on="0"/>
        <pt x="2105" y="293" on="0"/>
        <pt x="2141" y="281" on="0"/>
        <pt x="2165" y="260" on="0"/>
        <pt x="2165" y="236" on="1"/>
        <pt x="2165" y="111" on="0"/>
        <pt x="1907" y="0" on="0"/>
        <pt x="1663" y="0" on="1"/>
        <pt x="1545" y="0" on="0"/>
        <pt x="1362" y="27" on="0"/>
        <pt x="1237" y="84" on="0"/>
        <pt x="1172" y="174" on="0"/>
        <pt x="1172" y="236" on="1"/>
        <pt x="1172" y="260" on="0"/>
        <pt x="1196" y="281" on="0"/>
        <pt x="1231" y="292" on="0"/>
        <pt x="1272" y="302" on="0"/>
        <pt x="1307" y="327" on="0"/>
        <pt x="1331" y="375" on="0"/>
        <pt x="1331" y="420" on="1"/>
        <pt x="1331" y="836" on="1"/>
        <pt x="973" y="236" on="1"/>
        <pt x="961" y="213" on="0"/>
        <pt x="935" y="213" on="1"/>
        <pt x="912" y="213" on="0"/>
        <pt x="895" y="236" on="1"/>
      </contour>
    </TTGlyph>
    <TTGlyph name="N" xMin="64" yMin="0" xMax="1761" yMax="1593">
      <contour>
        <pt x="533" y="776" on="1"/>
        <pt x="526" y="781" on="0"/>
        <pt x="522" y="781" on="1"/>
        <pt x="513" y="781" on="0"/>
        <pt x="513" y="771" on="1"/>
        <pt x="513" y="768" on="0"/>
        <pt x="514" y="766" on="1"/>
        <pt x="514" y="424" on="1"/>
        <pt x="514" y="379" on="0"/>
        <pt x="538" y="329" on="0"/>
        <pt x="574" y="303" on="0"/>
        <pt x="616" y="293" on="0"/>
        <pt x="652" y="281" on="0"/>
        <pt x="676" y="260" on="0"/>
        <pt x="676" y="236" on="1"/>
        <pt x="676" y="174" on="0"/>
        <pt x="621" y="84" on="0"/>
        <pt x="535" y="27" on="0"/>
        <pt x="428" y="0" on="0"/>
        <pt x="377" y="0" on="1"/>
        <pt x="317" y="0" on="0"/>
        <pt x="204" y="27" on="0"/>
        <pt x="117" y="84" on="0"/>
        <pt x="64" y="174" on="0"/>
        <pt x="64" y="236" on="1"/>
        <pt x="64" y="260" on="0"/>
        <pt x="88" y="281" on="0"/>
        <pt x="123" y="292" on="0"/>
        <pt x="164" y="302" on="0"/>
        <pt x="199" y="327" on="0"/>
        <pt x="223" y="375" on="0"/>
        <pt x="223" y="420" on="1"/>
        <pt x="223" y="1174" on="1"/>
        <pt x="223" y="1218" on="0"/>
        <pt x="199" y="1267" on="0"/>
        <pt x="164" y="1292" on="0"/>
        <pt x="123" y="1302" on="0"/>
        <pt x="88" y="1313" on="0"/>
        <pt x="64" y="1334" on="0"/>
        <pt x="64" y="1358" on="1"/>
        <pt x="64" y="1420" on="0"/>
        <pt x="114" y="1509" on="0"/>
        <pt x="201" y="1566" on="0"/>
        <pt x="319" y="1593" on="0"/>
        <pt x="387" y="1593" on="1"/>
        <pt x="439" y="1593" on="0"/>
        <pt x="514" y="1576" on="0"/>
        <pt x="581" y="1537" on="0"/>
        <pt x="655" y="1471" on="0"/>
        <pt x="707" y="1423" on="1"/>
        <pt x="1280" y="889" on="1"/>
        <pt x="1282" y="887" on="0"/>
        <pt x="1289" y="883" on="0"/>
        <pt x="1294" y="883" on="1"/>
        <pt x="1300" y="883" on="0"/>
        <pt x="1311" y="894" on="0"/>
        <pt x="1311" y="911" on="1"/>
        <pt x="1311" y="1169" on="1"/>
        <pt x="1311" y="1215" on="0"/>
        <pt x="1287" y="1265" on="0"/>
        <pt x="1251" y="1291" on="0"/>
        <pt x="1209" y="1301" on="0"/>
        <pt x="1173" y="1313" on="0"/>
        <pt x="1149" y="1334" on="0"/>
        <pt x="1149" y="1358" on="1"/>
        <pt x="1149" y="1420" on="0"/>
        <pt x="1204" y="1509" on="0"/>
        <pt x="1290" y="1566" on="0"/>
        <pt x="1397" y="1593" on="0"/>
        <pt x="1448" y="1593" on="1"/>
        <pt x="1508" y="1593" on="0"/>
        <pt x="1621" y="1566" on="0"/>
        <pt x="1708" y="1509" on="0"/>
        <pt x="1761" y="1420" on="0"/>
        <pt x="1761" y="1358" on="1"/>
        <pt x="1761" y="1334" on="0"/>
        <pt x="1738" y="1313" on="0"/>
        <pt x="1703" y="1302" on="0"/>
        <pt x="1662" y="1292" on="0"/>
        <pt x="1627" y="1267" on="0"/>
        <pt x="1604" y="1218" on="0"/>
        <pt x="1604" y="1174" on="1"/>
        <pt x="1604" y="215" on="1"/>
        <pt x="1604" y="149" on="0"/>
        <pt x="1582" y="65" on="0"/>
        <pt x="1541" y="18" on="0"/>
        <pt x="1484" y="0" on="0"/>
        <pt x="1450" y="0" on="1"/>
        <pt x="1426" y="0" on="0"/>
        <pt x="1374" y="20" on="0"/>
        <pt x="1316" y="59" on="0"/>
        <pt x="1246" y="117" on="0"/>
        <pt x="1204" y="154" on="1"/>
      </contour>
    </TTGlyph>
    <TTGlyph name="Nacute" xMin="64" yMin="0" xMax="1761" yMax="2529">
      <component glyphName="N" x="0" y="0" flags="0x1004"/>
      <component glyphName="acute" x="584" y="1638" flags="0x1004"/>
    </TTGlyph>
    <TTGlyph name="Ncaron" xMin="64" yMin="0" xMax="1761" yMax="2507">
      <component glyphName="N" x="0" y="0" flags="0x1004"/>
      <component glyphName="caron" x="410" y="1638" flags="0x1004"/>
    </TTGlyph>
    <TTGlyph name="Ncommaaccent" xMin="64" yMin="-924" xMax="1761" yMax="1593">
      <component glyphName="N" x="0" y="0" flags="0x1204"/>
      <component glyphName="commaaccent" x="581" y="0" flags="0x1004"/>
    </TTGlyph>
    <TTGlyph name="Ntilde" xMin="64" yMin="0" xMax="1761" yMax="2345">
      <component glyphName="N" x="0" y="0" flags="0x1004"/>
      <component glyphName="tilde" x="268" y="1638" flags="0x1004"/>
    </TTGlyph>
    <TTGlyph name="O" xMin="59" yMin="-25" xMax="1839" yMax="1620">
      <contour>
        <pt x="907" y="-25" on="1"/>
        <pt x="756" y="-25" on="0"/>
        <pt x="512" y="34" on="0"/>
        <pt x="324" y="140" on="0"/>
        <pt x="188" y="286" on="0"/>
        <pt x="100" y="460" on="0"/>
        <pt x="59" y="655" on="0"/>
        <pt x="59" y="758" on="1"/>
        <pt x="59" y="876" on="0"/>
        <pt x="86" y="1095" on="0"/>
        <pt x="159" y="1287" on="0"/>
        <pt x="289" y="1445" on="0"/>
        <pt x="496" y="1558" on="0"/>
        <pt x="790" y="1620" on="0"/>
        <pt x="991" y="1620" on="1"/>
        <pt x="1153" y="1620" on="0"/>
        <pt x="1405" y="1561" on="0"/>
        <pt x="1594" y="1455" on="0"/>
        <pt x="1723" y="1310" on="0"/>
        <pt x="1804" y="1139" on="0"/>
        <pt x="1839" y="947" on="0"/>
        <pt x="1839" y="848" on="1"/>
        <pt x="1839" y="736" on="0"/>
        <pt x="1812" y="519" on="0"/>
        <pt x="1739" y="325" on="0"/>
        <pt x="1608" y="161" on="0"/>
        <pt x="1401" y="42" on="0"/>
        <pt x="1107" y="-25" on="0"/>
      </contour>
      <contour>
        <pt x="964" y="238" on="1"/>
        <pt x="1009" y="238" on="0"/>
        <pt x="1066" y="288" on="0"/>
        <pt x="1099" y="382" on="0"/>
        <pt x="1112" y="518" on="0"/>
        <pt x="1112" y="604" on="1"/>
        <pt x="1112" y="649" on="1"/>
        <pt x="1112" y="725" on="0"/>
        <pt x="1110" y="888" on="0"/>
        <pt x="1100" y="1045" on="0"/>
        <pt x="1077" y="1185" on="0"/>
        <pt x="1036" y="1292" on="0"/>
        <pt x="973" y="1354" on="0"/>
        <pt x="927" y="1354" on="1"/>
        <pt x="880" y="1354" on="0"/>
        <pt x="822" y="1311" on="0"/>
        <pt x="791" y="1228" on="0"/>
        <pt x="780" y="1106" on="0"/>
        <pt x="780" y="1026" on="1"/>
        <pt x="780" y="953" on="0"/>
        <pt x="782" y="779" on="0"/>
        <pt x="792" y="604" on="0"/>
        <pt x="814" y="440" on="0"/>
        <pt x="855" y="314" on="0"/>
        <pt x="918" y="238" on="0"/>
      </contour>
    </TTGlyph>
    <TTGlyph name="OE" xMin="62" yMin="-2" xMax="2620" yMax="1595">
      <contour>
        <pt x="910" y="-2" on="1"/>
        <pt x="759" y="-2" on="0"/>
        <pt x="515" y="54" on="0"/>
        <pt x="327" y="154" on="0"/>
        <pt x="191" y="294" on="0"/>
        <pt x="103" y="463" on="0"/>
        <pt x="62" y="655" on="0"/>
        <pt x="62" y="758" on="1"/>
        <pt x="62" y="876" on="0"/>
        <pt x="89" y="1091" on="0"/>
        <pt x="162" y="1277" on="0"/>
        <pt x="292" y="1429" on="0"/>
        <pt x="499" y="1536" on="0"/>
        <pt x="793" y="1595" on="0"/>
        <pt x="994" y="1595" on="1"/>
        <pt x="2305" y="1595" on="1"/>
        <pt x="2378" y="1595" on="0"/>
        <pt x="2485" y="1514" on="0"/>
        <pt x="2556" y="1393" on="0"/>
        <pt x="2591" y="1252" on="0"/>
        <pt x="2591" y="1192" on="1"/>
        <pt x="2591" y="1152" on="0"/>
        <pt x="2566" y="1088" on="0"/>
        <pt x="2521" y="1044" on="0"/>
        <pt x="2461" y="1020" on="0"/>
        <pt x="2425" y="1020" on="1"/>
        <pt x="2394" y="1020" on="0"/>
        <pt x="2334" y="1041" on="0"/>
        <pt x="2280" y="1088" on="0"/>
        <pt x="2235" y="1163" on="0"/>
        <pt x="2219" y="1217" on="1"/>
        <pt x="2180" y="1384" on="1"/>
        <pt x="1846" y="1384" on="1"/>
        <pt x="1846" y="924" on="1"/>
        <pt x="1926" y="934" on="1"/>
        <pt x="1946" y="974" on="0"/>
        <pt x="1977" y="1042" on="0"/>
        <pt x="2011" y="1091" on="0"/>
        <pt x="2055" y="1118" on="0"/>
        <pt x="2087" y="1118" on="1"/>
        <pt x="2142" y="1118" on="0"/>
        <pt x="2220" y="1071" on="0"/>
        <pt x="2270" y="995" on="0"/>
        <pt x="2294" y="896" on="0"/>
        <pt x="2294" y="844" on="1"/>
        <pt x="2294" y="791" on="0"/>
        <pt x="2270" y="691" on="0"/>
        <pt x="2220" y="614" on="0"/>
        <pt x="2142" y="567" on="0"/>
        <pt x="2087" y="567" on="1"/>
        <pt x="2055" y="567" on="0"/>
        <pt x="2011" y="594" on="0"/>
        <pt x="1977" y="643" on="0"/>
        <pt x="1946" y="711" on="0"/>
        <pt x="1926" y="752" on="1"/>
        <pt x="1846" y="762" on="1"/>
        <pt x="1846" y="205" on="1"/>
        <pt x="2188" y="221" on="1"/>
        <pt x="2229" y="395" on="1"/>
        <pt x="2246" y="452" on="0"/>
        <pt x="2294" y="531" on="0"/>
        <pt x="2351" y="580" on="0"/>
        <pt x="2414" y="602" on="0"/>
        <pt x="2446" y="602" on="1"/>
        <pt x="2483" y="602" on="0"/>
        <pt x="2547" y="577" on="0"/>
        <pt x="2594" y="529" on="0"/>
        <pt x="2620" y="462" on="0"/>
        <pt x="2620" y="420" on="1"/>
        <pt x="2620" y="379" on="0"/>
        <pt x="2604" y="284" on="0"/>
        <pt x="2570" y="190" on="0"/>
        <pt x="2520" y="104" on="0"/>
        <pt x="2453" y="37" on="0"/>
        <pt x="2368" y="-2" on="0"/>
        <pt x="2317" y="-2" on="1"/>
      </contour>
      <contour>
        <pt x="1104" y="256" on="1"/>
        <pt x="1104" y="1331" on="1"/>
        <pt x="930" y="1331" on="1"/>
        <pt x="883" y="1331" on="0"/>
        <pt x="825" y="1296" on="0"/>
        <pt x="794" y="1221" on="0"/>
        <pt x="783" y="1106" on="0"/>
        <pt x="783" y="1026" on="1"/>
        <pt x="783" y="953" on="0"/>
        <pt x="785" y="782" on="0"/>
        <pt x="795" y="611" on="0"/>
        <pt x="817" y="452" on="0"/>
        <pt x="858" y="329" on="0"/>
        <pt x="921" y="256" on="0"/>
        <pt x="967" y="256" on="1"/>
      </contour>
    </TTGlyph>
    <TTGlyph name="Oacute" xMin="59" yMin="-25" xMax="1839" yMax="2529">
      <component glyphName="O" x="0" y="0" flags="0x1204"/>
      <component glyphName="acute" x="510" y="1638" flags="0x1004"/>
    </TTGlyph>
    <TTGlyph name="Ocircumflex" xMin="59" yMin="-25" xMax="1839" yMax="2498">
      <component glyphName="O" x="0" y="0" flags="0x1204"/>
      <component glyphName="circumflex" x="464" y="1638" flags="0x1004"/>
    </TTGlyph>
    <TTGlyph name="Odieresis" xMin="59" yMin="-25" xMax="1839" yMax="2195">
      <component glyphName="O" x="0" y="0" flags="0x1204"/>
      <component glyphName="dieresis" x="206" y="1638" flags="0x1004"/>
    </TTGlyph>
    <TTGlyph name="Ograve" xMin="59" yMin="-25" xMax="1839" yMax="2529">
      <component glyphName="O" x="0" y="0" flags="0x1204"/>
      <component glyphName="grave" x="340" y="1638" flags="0x1004"/>
    </TTGlyph>
    <TTGlyph name="Ohungarumlaut" xMin="59" yMin="-25" xMax="1839" yMax="2611">
      <component glyphName="O" x="0" y="0" flags="0x1204"/>
      <component glyphName="hungarumlaut" x="289" y="1638" flags="0x1004"/>
    </TTGlyph>
    <TTGlyph name="Omacron" xMin="59" yMin="-25" xMax="1839" yMax="2142">
      <component glyphName="O" x="0" y="0" flags="0x1204"/>
      <component glyphName="macron" x="308" y="1638" flags="0x1004"/>
    </TTGlyph>
    <TTGlyph name="Oslash" xMin="56" yMin="-186" xMax="1836" yMax="1776">
      <contour>
        <pt x="321" y="-74" on="1"/>
        <pt x="321" y="-54" on="0"/>
        <pt x="331" y="-22" on="0"/>
        <pt x="341" y="-6" on="1"/>
        <pt x="1390" y="1712" on="1"/>
        <pt x="1405" y="1737" on="0"/>
        <pt x="1457" y="1776" on="0"/>
        <pt x="1492" y="1776" on="1"/>
        <pt x="1533" y="1776" on="0"/>
        <pt x="1587" y="1751" on="0"/>
        <pt x="1620" y="1716" on="0"/>
        <pt x="1634" y="1677" on="0"/>
        <pt x="1634" y="1663" on="1"/>
        <pt x="1634" y="1643" on="0"/>
        <pt x="1623" y="1611" on="0"/>
        <pt x="1613" y="1595" on="1"/>
        <pt x="565" y="-123" on="1"/>
        <pt x="551" y="-146" on="0"/>
        <pt x="496" y="-186" on="0"/>
        <pt x="458" y="-186" on="1"/>
        <pt x="434" y="-186" on="0"/>
        <pt x="385" y="-169" on="0"/>
        <pt x="346" y="-139" on="0"/>
        <pt x="321" y="-98" on="0"/>
      </contour>
      <contour>
        <pt x="904" y="-25" on="1"/>
        <pt x="752" y="-25" on="0"/>
        <pt x="509" y="34" on="0"/>
        <pt x="321" y="140" on="0"/>
        <pt x="185" y="286" on="0"/>
        <pt x="97" y="460" on="0"/>
        <pt x="56" y="655" on="0"/>
        <pt x="56" y="758" on="1"/>
        <pt x="56" y="876" on="0"/>
        <pt x="83" y="1095" on="0"/>
        <pt x="156" y="1287" on="0"/>
        <pt x="286" y="1445" on="0"/>
        <pt x="493" y="1558" on="0"/>
        <pt x="787" y="1620" on="0"/>
        <pt x="988" y="1620" on="1"/>
        <pt x="1150" y="1620" on="0"/>
        <pt x="1402" y="1561" on="0"/>
        <pt x="1591" y="1455" on="0"/>
        <pt x="1720" y="1310" on="0"/>
        <pt x="1801" y="1139" on="0"/>
        <pt x="1836" y="947" on="0"/>
        <pt x="1836" y="848" on="1"/>
        <pt x="1836" y="736" on="0"/>
        <pt x="1809" y="519" on="0"/>
        <pt x="1736" y="325" on="0"/>
        <pt x="1605" y="161" on="0"/>
        <pt x="1398" y="42" on="0"/>
        <pt x="1104" y="-25" on="0"/>
      </contour>
      <contour>
        <pt x="961" y="238" on="1"/>
        <pt x="1006" y="238" on="0"/>
        <pt x="1063" y="288" on="0"/>
        <pt x="1096" y="382" on="0"/>
        <pt x="1109" y="518" on="0"/>
        <pt x="1109" y="604" on="1"/>
        <pt x="1109" y="649" on="1"/>
        <pt x="1109" y="725" on="0"/>
        <pt x="1107" y="888" on="0"/>
        <pt x="1097" y="1045" on="0"/>
        <pt x="1074" y="1185" on="0"/>
        <pt x="1033" y="1292" on="0"/>
        <pt x="970" y="1354" on="0"/>
        <pt x="924" y="1354" on="1"/>
        <pt x="877" y="1354" on="0"/>
        <pt x="819" y="1311" on="0"/>
        <pt x="788" y="1228" on="0"/>
        <pt x="777" y="1106" on="0"/>
        <pt x="777" y="1026" on="1"/>
        <pt x="777" y="953" on="0"/>
        <pt x="779" y="779" on="0"/>
        <pt x="789" y="604" on="0"/>
        <pt x="811" y="440" on="0"/>
        <pt x="852" y="314" on="0"/>
        <pt x="915" y="238" on="0"/>
      </contour>
    </TTGlyph>
    <TTGlyph name="Otilde" xMin="59" yMin="-25" xMax="1839" yMax="2345">
      <component glyphName="O" x="0" y="0" flags="0x1204"/>
      <component glyphName="tilde" x="330" y="1638" flags="0x1004"/>
    </TTGlyph>
    <TTGlyph name="P" xMin="56" yMin="0" xMax="1872" yMax="1593">
      <contour>
        <pt x="1035" y="754" on="1"/>
        <pt x="1081" y="754" on="0"/>
        <pt x="1137" y="798" on="0"/>
        <pt x="1165" y="866" on="0"/>
        <pt x="1174" y="950" on="0"/>
        <pt x="1174" y="989" on="1"/>
        <pt x="1174" y="1015" on="0"/>
        <pt x="1172" y="1059" on="0"/>
        <pt x="1172" y="1077" on="1"/>
        <pt x="1172" y="1134" on="0"/>
        <pt x="1163" y="1249" on="0"/>
        <pt x="1128" y="1341" on="0"/>
        <pt x="1058" y="1399" on="0"/>
        <pt x="998" y="1399" on="1"/>
        <pt x="960" y="1399" on="0"/>
        <pt x="917" y="1374" on="0"/>
        <pt x="896" y="1330" on="0"/>
        <pt x="891" y="1273" on="0"/>
        <pt x="891" y="1240" on="1"/>
        <pt x="891" y="764" on="1"/>
        <pt x="894" y="761" on="0"/>
        <pt x="910" y="759" on="1"/>
        <pt x="924" y="757" on="0"/>
        <pt x="981" y="754" on="0"/>
      </contour>
      <contour>
        <pt x="1129" y="1593" on="1"/>
        <pt x="1317" y="1593" on="0"/>
        <pt x="1596" y="1506" on="0"/>
        <pt x="1781" y="1365" on="0"/>
        <pt x="1872" y="1184" on="0"/>
        <pt x="1872" y="1090" on="1"/>
        <pt x="1872" y="993" on="0"/>
        <pt x="1777" y="806" on="0"/>
        <pt x="1590" y="660" on="0"/>
        <pt x="1312" y="571" on="0"/>
        <pt x="1129" y="571" on="1"/>
        <pt x="1113" y="571" on="0"/>
        <pt x="1045" y="572" on="0"/>
        <pt x="970" y="573" on="0"/>
        <pt x="902" y="574" on="0"/>
        <pt x="887" y="575" on="1"/>
        <pt x="887" y="424" on="1"/>
        <pt x="887" y="379" on="0"/>
        <pt x="911" y="329" on="0"/>
        <pt x="947" y="303" on="0"/>
        <pt x="989" y="293" on="0"/>
        <pt x="1025" y="281" on="0"/>
        <pt x="1049" y="260" on="0"/>
        <pt x="1049" y="236" on="1"/>
        <pt x="1049" y="111" on="0"/>
        <pt x="791" y="0" on="0"/>
        <pt x="547" y="0" on="1"/>
        <pt x="429" y="0" on="0"/>
        <pt x="246" y="27" on="0"/>
        <pt x="121" y="84" on="0"/>
        <pt x="56" y="174" on="0"/>
        <pt x="56" y="236" on="1"/>
        <pt x="56" y="260" on="0"/>
        <pt x="80" y="281" on="0"/>
        <pt x="115" y="292" on="0"/>
        <pt x="156" y="302" on="0"/>
        <pt x="191" y="327" on="0"/>
        <pt x="215" y="375" on="0"/>
        <pt x="215" y="420" on="1"/>
        <pt x="215" y="1174" on="1"/>
        <pt x="215" y="1218" on="0"/>
        <pt x="191" y="1267" on="0"/>
        <pt x="156" y="1292" on="0"/>
        <pt x="115" y="1302" on="0"/>
        <pt x="80" y="1313" on="0"/>
        <pt x="56" y="1334" on="0"/>
        <pt x="56" y="1358" on="1"/>
        <pt x="56" y="1419" on="0"/>
        <pt x="119" y="1508" on="0"/>
        <pt x="241" y="1566" on="0"/>
        <pt x="419" y="1593" on="0"/>
        <pt x="534" y="1593" on="1"/>
        <pt x="547" y="1593" on="1"/>
      </contour>
    </TTGlyph>
    <TTGlyph name="Q" xMin="61" yMin="-467" xMax="1840" yMax="1620">
      <contour>
        <pt x="1840" y="848" on="1"/>
        <pt x="1840" y="725" on="0"/>
        <pt x="1807" y="489" on="0"/>
        <pt x="1716" y="282" on="0"/>
        <pt x="1552" y="114" on="0"/>
        <pt x="1421" y="59" on="1"/>
        <pt x="1607" y="-66" on="1"/>
        <pt x="1645" y="-91" on="0"/>
        <pt x="1725" y="-102" on="0"/>
        <pt x="1756" y="-102" on="1"/>
        <pt x="1782" y="-102" on="0"/>
        <pt x="1799" y="-99" on="1"/>
        <pt x="1809" y="-98" on="0"/>
        <pt x="1816" y="-96" on="1"/>
        <pt x="1824" y="-113" on="0"/>
        <pt x="1832" y="-147" on="0"/>
        <pt x="1832" y="-164" on="1"/>
        <pt x="1832" y="-196" on="0"/>
        <pt x="1796" y="-259" on="0"/>
        <pt x="1720" y="-325" on="0"/>
        <pt x="1604" y="-394" on="0"/>
        <pt x="1523" y="-432" on="1"/>
        <pt x="1485" y="-451" on="0"/>
        <pt x="1417" y="-467" on="0"/>
        <pt x="1386" y="-467" on="1"/>
        <pt x="1346" y="-467" on="0"/>
        <pt x="1276" y="-441" on="0"/>
        <pt x="1212" y="-402" on="0"/>
        <pt x="1153" y="-354" on="0"/>
        <pt x="1123" y="-331" on="1"/>
        <pt x="765" y="-16" on="1"/>
        <pt x="640" y="-3" on="0"/>
        <pt x="438" y="70" on="0"/>
        <pt x="281" y="179" on="0"/>
        <pt x="168" y="320" on="0"/>
        <pt x="96" y="483" on="0"/>
        <pt x="61" y="664" on="0"/>
        <pt x="61" y="758" on="1"/>
        <pt x="61" y="876" on="0"/>
        <pt x="88" y="1095" on="0"/>
        <pt x="161" y="1287" on="0"/>
        <pt x="291" y="1445" on="0"/>
        <pt x="498" y="1558" on="0"/>
        <pt x="792" y="1620" on="0"/>
        <pt x="993" y="1620" on="1"/>
        <pt x="1155" y="1620" on="0"/>
        <pt x="1407" y="1561" on="0"/>
        <pt x="1595" y="1455" on="0"/>
        <pt x="1725" y="1310" on="0"/>
        <pt x="1805" y="1139" on="0"/>
        <pt x="1840" y="947" on="0"/>
      </contour>
      <contour>
        <pt x="966" y="238" on="1"/>
        <pt x="1011" y="238" on="0"/>
        <pt x="1068" y="288" on="0"/>
        <pt x="1101" y="382" on="0"/>
        <pt x="1113" y="518" on="0"/>
        <pt x="1113" y="604" on="1"/>
        <pt x="1113" y="653" on="1"/>
        <pt x="1113" y="729" on="0"/>
        <pt x="1111" y="892" on="0"/>
        <pt x="1101" y="1047" on="0"/>
        <pt x="1078" y="1187" on="0"/>
        <pt x="1038" y="1292" on="0"/>
        <pt x="975" y="1354" on="0"/>
        <pt x="929" y="1354" on="1"/>
        <pt x="882" y="1354" on="0"/>
        <pt x="824" y="1311" on="0"/>
        <pt x="793" y="1228" on="0"/>
        <pt x="782" y="1106" on="0"/>
        <pt x="782" y="1026" on="1"/>
        <pt x="782" y="953" on="0"/>
        <pt x="784" y="779" on="0"/>
        <pt x="794" y="604" on="0"/>
        <pt x="816" y="440" on="0"/>
        <pt x="857" y="314" on="0"/>
        <pt x="920" y="238" on="0"/>
      </contour>
    </TTGlyph>
    <TTGlyph name="R" xMin="54" yMin="0" xMax="2079" yMax="1593">
      <contour>
        <pt x="1821" y="414" on="1"/>
        <pt x="1849" y="372" on="0"/>
        <pt x="1909" y="325" on="0"/>
        <pt x="1966" y="301" on="0"/>
        <pt x="2017" y="290" on="0"/>
        <pt x="2056" y="280" on="0"/>
        <pt x="2079" y="261" on="0"/>
        <pt x="2079" y="240" on="1"/>
        <pt x="2079" y="169" on="0"/>
        <pt x="2027" y="76" on="0"/>
        <pt x="1901" y="22" on="0"/>
        <pt x="1691" y="0" on="0"/>
        <pt x="1534" y="0" on="1"/>
        <pt x="1464" y="0" on="0"/>
        <pt x="1357" y="28" on="0"/>
        <pt x="1275" y="78" on="0"/>
        <pt x="1212" y="145" on="0"/>
        <pt x="1164" y="223" on="0"/>
        <pt x="1124" y="308" on="0"/>
        <pt x="1106" y="351" on="1"/>
        <pt x="1006" y="629" on="1"/>
        <pt x="994" y="629" on="1"/>
        <pt x="962" y="629" on="0"/>
        <pt x="917" y="631" on="0"/>
        <pt x="885" y="633" on="1"/>
        <pt x="885" y="418" on="1"/>
        <pt x="885" y="375" on="0"/>
        <pt x="909" y="327" on="0"/>
        <pt x="945" y="303" on="0"/>
        <pt x="987" y="293" on="0"/>
        <pt x="1023" y="281" on="0"/>
        <pt x="1047" y="260" on="0"/>
        <pt x="1047" y="236" on="1"/>
        <pt x="1047" y="111" on="0"/>
        <pt x="789" y="0" on="0"/>
        <pt x="545" y="0" on="1"/>
        <pt x="427" y="0" on="0"/>
        <pt x="244" y="27" on="0"/>
        <pt x="119" y="84" on="0"/>
        <pt x="54" y="174" on="0"/>
        <pt x="54" y="236" on="1"/>
        <pt x="54" y="260" on="0"/>
        <pt x="78" y="281" on="0"/>
        <pt x="113" y="292" on="0"/>
        <pt x="154" y="302" on="0"/>
        <pt x="189" y="327" on="0"/>
        <pt x="213" y="375" on="0"/>
        <pt x="213" y="420" on="1"/>
        <pt x="213" y="1174" on="1"/>
        <pt x="213" y="1218" on="0"/>
        <pt x="189" y="1267" on="0"/>
        <pt x="154" y="1292" on="0"/>
        <pt x="113" y="1302" on="0"/>
        <pt x="78" y="1313" on="0"/>
        <pt x="54" y="1334" on="0"/>
        <pt x="54" y="1358" on="1"/>
        <pt x="54" y="1420" on="0"/>
        <pt x="122" y="1509" on="0"/>
        <pt x="251" y="1566" on="0"/>
        <pt x="437" y="1593" on="0"/>
        <pt x="555" y="1593" on="1"/>
        <pt x="1096" y="1593" on="1"/>
        <pt x="1255" y="1593" on="0"/>
        <pt x="1501" y="1559" on="0"/>
        <pt x="1685" y="1498" on="0"/>
        <pt x="1812" y="1413" on="0"/>
        <pt x="1890" y="1312" on="0"/>
        <pt x="1925" y="1199" on="0"/>
        <pt x="1925" y="1139" on="1"/>
        <pt x="1925" y="1074" on="0"/>
        <pt x="1900" y="950" on="0"/>
        <pt x="1833" y="840" on="0"/>
        <pt x="1716" y="747" on="0"/>
        <pt x="1624" y="713" on="1"/>
      </contour>
      <contour>
        <pt x="1022" y="784" on="1"/>
        <pt x="1112" y="784" on="0"/>
        <pt x="1198" y="900" on="0"/>
        <pt x="1198" y="1004" on="1"/>
        <pt x="1198" y="1034" on="1"/>
        <pt x="1198" y="1100" on="0"/>
        <pt x="1192" y="1231" on="0"/>
        <pt x="1157" y="1334" on="0"/>
        <pt x="1083" y="1399" on="0"/>
        <pt x="1014" y="1399" on="1"/>
        <pt x="972" y="1399" on="0"/>
        <pt x="921" y="1371" on="0"/>
        <pt x="895" y="1324" on="0"/>
        <pt x="887" y="1263" on="0"/>
        <pt x="887" y="1229" on="1"/>
        <pt x="887" y="795" on="1"/>
        <pt x="888" y="792" on="0"/>
        <pt x="902" y="789" on="1"/>
        <pt x="914" y="787" on="0"/>
        <pt x="968" y="784" on="0"/>
      </contour>
    </TTGlyph>
    <TTGlyph name="Racute" xMin="54" yMin="0" xMax="2079" yMax="2529">
      <component glyphName="R" x="0" y="0" flags="0x1204"/>
      <component glyphName="acute" x="431" y="1638" flags="0x1004"/>
    </TTGlyph>
    <TTGlyph name="Rcaron" xMin="54" yMin="0" xMax="2079" yMax="2507">
      <component glyphName="R" x="0" y="0" flags="0x1204"/>
      <component glyphName="caron" x="431" y="1638" flags="0x1004"/>
    </TTGlyph>
    <TTGlyph name="Rcommaaccent" xMin="54" yMin="-924" xMax="2079" yMax="1593">
      <component glyphName="R" x="0" y="0" flags="0x1204"/>
      <component glyphName="commaaccent" x="723" y="0" flags="0x1004"/>
    </TTGlyph>
    <TTGlyph name="S" xMin="53" yMin="-25" xMax="1517" yMax="1620">
      <contour>
        <pt x="987" y="1298" on="1"/>
        <pt x="987" y="1326" on="0"/>
        <pt x="886" y="1372" on="0"/>
        <pt x="782" y="1372" on="1"/>
        <pt x="710" y="1372" on="0"/>
        <pt x="626" y="1352" on="0"/>
        <pt x="583" y="1319" on="0"/>
        <pt x="571" y="1278" on="0"/>
        <pt x="571" y="1257" on="1"/>
        <pt x="571" y="1214" on="0"/>
        <pt x="652" y="1149" on="0"/>
        <pt x="785" y="1091" on="0"/>
        <pt x="955" y="1033" on="0"/>
        <pt x="1133" y="962" on="0"/>
        <pt x="1303" y="870" on="0"/>
        <pt x="1436" y="746" on="0"/>
        <pt x="1517" y="580" on="0"/>
        <pt x="1517" y="471" on="1"/>
        <pt x="1517" y="331" on="0"/>
        <pt x="1409" y="141" on="0"/>
        <pt x="1216" y="25" on="0"/>
        <pt x="951" y="-25" on="0"/>
        <pt x="794" y="-25" on="1"/>
        <pt x="702" y="-25" on="0"/>
        <pt x="520" y="3" on="0"/>
        <pt x="356" y="56" on="0"/>
        <pt x="215" y="133" on="0"/>
        <pt x="112" y="230" on="0"/>
        <pt x="53" y="347" on="0"/>
        <pt x="53" y="414" on="1"/>
        <pt x="53" y="465" on="0"/>
        <pt x="85" y="541" on="0"/>
        <pt x="138" y="590" on="0"/>
        <pt x="206" y="614" on="0"/>
        <pt x="243" y="614" on="1"/>
        <pt x="288" y="614" on="0"/>
        <pt x="378" y="580" on="0"/>
        <pt x="450" y="514" on="0"/>
        <pt x="495" y="418" on="0"/>
        <pt x="495" y="356" on="1"/>
        <pt x="495" y="341" on="0"/>
        <pt x="524" y="307" on="0"/>
        <pt x="579" y="278" on="0"/>
        <pt x="661" y="258" on="0"/>
        <pt x="714" y="258" on="1"/>
        <pt x="788" y="258" on="0"/>
        <pt x="876" y="277" on="0"/>
        <pt x="923" y="309" on="0"/>
        <pt x="937" y="349" on="0"/>
        <pt x="937" y="369" on="1"/>
        <pt x="937" y="394" on="0"/>
        <pt x="863" y="432" on="0"/>
        <pt x="743" y="471" on="0"/>
        <pt x="588" y="515" on="0"/>
        <pt x="428" y="576" on="0"/>
        <pt x="273" y="660" on="0"/>
        <pt x="153" y="779" on="0"/>
        <pt x="79" y="938" on="0"/>
        <pt x="79" y="1044" on="1"/>
        <pt x="79" y="1149" on="0"/>
        <pt x="130" y="1315" on="0"/>
        <pt x="223" y="1443" on="0"/>
        <pt x="353" y="1534" on="0"/>
        <pt x="512" y="1593" on="0"/>
        <pt x="695" y="1620" on="0"/>
        <pt x="794" y="1620" on="1"/>
        <pt x="971" y="1620" on="0"/>
        <pt x="1220" y="1549" on="0"/>
        <pt x="1376" y="1437" on="0"/>
        <pt x="1447" y="1300" on="0"/>
        <pt x="1447" y="1235" on="1"/>
        <pt x="1447" y="1176" on="0"/>
        <pt x="1397" y="1090" on="0"/>
        <pt x="1317" y="1034" on="0"/>
        <pt x="1215" y="1008" on="0"/>
        <pt x="1163" y="1008" on="1"/>
        <pt x="1113" y="1008" on="0"/>
        <pt x="1018" y="1030" on="0"/>
        <pt x="945" y="1074" on="0"/>
        <pt x="900" y="1137" on="0"/>
        <pt x="900" y="1178" on="1"/>
        <pt x="900" y="1208" on="0"/>
        <pt x="927" y="1238" on="0"/>
        <pt x="960" y="1258" on="0"/>
        <pt x="987" y="1278" on="0"/>
      </contour>
    </TTGlyph>
    <TTGlyph name="S.alt" xMin="60" yMin="-20" xMax="1496" yMax="1620">
      <contour>
        <pt x="1496" y="492" on="1"/>
        <pt x="1496" y="403" on="0"/>
        <pt x="1436" y="258" on="0"/>
        <pt x="1332" y="145" on="0"/>
        <pt x="1190" y="61" on="0"/>
        <pt x="1024" y="7" on="0"/>
        <pt x="842" y="-20" on="0"/>
        <pt x="751" y="-20" on="1"/>
        <pt x="563" y="-20" on="0"/>
        <pt x="301" y="55" on="0"/>
        <pt x="135" y="174" on="0"/>
        <pt x="60" y="318" on="0"/>
        <pt x="60" y="387" on="1"/>
        <pt x="60" y="436" on="0"/>
        <pt x="95" y="522" on="0"/>
        <pt x="159" y="586" on="0"/>
        <pt x="249" y="623" on="0"/>
        <pt x="304" y="623" on="1"/>
        <pt x="408" y="623" on="0"/>
        <pt x="540" y="581" on="0"/>
        <pt x="616" y="512" on="0"/>
        <pt x="644" y="426" on="0"/>
        <pt x="644" y="381" on="1"/>
        <pt x="596" y="381" on="0"/>
        <pt x="548" y="341" on="0"/>
        <pt x="548" y="319" on="1"/>
        <pt x="548" y="290" on="0"/>
        <pt x="654" y="242" on="0"/>
        <pt x="765" y="242" on="1"/>
        <pt x="841" y="242" on="0"/>
        <pt x="927" y="267" on="0"/>
        <pt x="970" y="305" on="0"/>
        <pt x="980" y="351" on="0"/>
        <pt x="980" y="373" on="1"/>
        <pt x="980" y="435" on="0"/>
        <pt x="901" y="514" on="0"/>
        <pt x="772" y="568" on="0"/>
        <pt x="607" y="608" on="0"/>
        <pt x="435" y="655" on="0"/>
        <pt x="270" y="722" on="0"/>
        <pt x="141" y="827" on="0"/>
        <pt x="62" y="984" on="0"/>
        <pt x="62" y="1098" on="1"/>
        <pt x="62" y="1187" on="0"/>
        <pt x="123" y="1334" on="0"/>
        <pt x="230" y="1450" on="0"/>
        <pt x="374" y="1535" on="0"/>
        <pt x="542" y="1592" on="0"/>
        <pt x="726" y="1620" on="0"/>
        <pt x="818" y="1620" on="1"/>
        <pt x="945" y="1620" on="0"/>
        <pt x="1184" y="1569" on="0"/>
        <pt x="1370" y="1468" on="0"/>
        <pt x="1482" y="1321" on="0"/>
        <pt x="1482" y="1225" on="1"/>
        <pt x="1482" y="1184" on="0"/>
        <pt x="1462" y="1103" on="0"/>
        <pt x="1406" y="1039" on="0"/>
        <pt x="1305" y="999" on="0"/>
        <pt x="1224" y="999" on="1"/>
        <pt x="1129" y="999" on="0"/>
        <pt x="1016" y="1040" on="0"/>
        <pt x="954" y="1105" on="0"/>
        <pt x="935" y="1186" on="0"/>
        <pt x="935" y="1227" on="1"/>
        <pt x="978" y="1227" on="0"/>
        <pt x="1021" y="1263" on="0"/>
        <pt x="1021" y="1282" on="1"/>
        <pt x="1021" y="1310" on="0"/>
        <pt x="924" y="1354" on="0"/>
        <pt x="824" y="1354" on="1"/>
        <pt x="755" y="1354" on="0"/>
        <pt x="670" y="1331" on="0"/>
        <pt x="623" y="1296" on="0"/>
        <pt x="607" y="1254" on="0"/>
        <pt x="607" y="1235" on="1"/>
        <pt x="607" y="1194" on="0"/>
        <pt x="657" y="1135" on="0"/>
        <pt x="742" y="1087" on="0"/>
        <pt x="856" y="1047" on="0"/>
        <pt x="984" y="1007" on="0"/>
        <pt x="1119" y="961" on="0"/>
        <pt x="1247" y="901" on="0"/>
        <pt x="1361" y="823" on="0"/>
        <pt x="1446" y="718" on="0"/>
        <pt x="1496" y="581" on="0"/>
      </contour>
    </TTGlyph>
    <TTGlyph name="Sacute" xMin="53" yMin="-25" xMax="1517" yMax="2529">
      <component glyphName="S" x="0" y="0" flags="0x1204"/>
      <component glyphName="acute" x="453" y="1638" flags="0x1004"/>
    </TTGlyph>
    <TTGlyph name="Scaron" xMin="53" yMin="-25" xMax="1517" yMax="2507">
      <component glyphName="S" x="0" y="0" flags="0x1204"/>
      <component glyphName="caron" x="323" y="1638" flags="0x1004"/>
    </TTGlyph>
    <TTGlyph name="Scedilla" xMin="53" yMin="-614" xMax="1517" yMax="1620">
      <component glyphName="S" x="0" y="0" flags="0x1004"/>
      <component glyphName="cedilla" x="675" y="0" flags="0x1004"/>
    </TTGlyph>
    <TTGlyph name="Scircumflex" xMin="53" yMin="-25" xMax="1517" yMax="2498">
      <component glyphName="S" x="0" y="0" flags="0x1204"/>
      <component glyphName="circumflex" x="336" y="1638" flags="0x1004"/>
    </TTGlyph>
    <TTGlyph name="Scommaaccent" xMin="53" yMin="-924" xMax="1517" yMax="1620">
      <component glyphName="S" x="0" y="0" flags="0x1204"/>
      <component glyphName="commaaccent" x="474" y="0" flags="0x1004"/>
    </TTGlyph>
    <TTGlyph name="T" xMin="10" yMin="0" xMax="1730" yMax="1593">
      <contour>
        <pt x="1206" y="424" on="1"/>
        <pt x="1206" y="379" on="0"/>
        <pt x="1230" y="329" on="0"/>
        <pt x="1266" y="303" on="0"/>
        <pt x="1308" y="293" on="0"/>
        <pt x="1344" y="281" on="0"/>
        <pt x="1368" y="260" on="0"/>
        <pt x="1368" y="236" on="1"/>
        <pt x="1368" y="111" on="0"/>
        <pt x="1110" y="0" on="0"/>
        <pt x="866" y="0" on="1"/>
        <pt x="748" y="0" on="0"/>
        <pt x="565" y="27" on="0"/>
        <pt x="440" y="84" on="0"/>
        <pt x="375" y="174" on="0"/>
        <pt x="375" y="236" on="1"/>
        <pt x="375" y="260" on="0"/>
        <pt x="399" y="281" on="0"/>
        <pt x="434" y="292" on="0"/>
        <pt x="475" y="302" on="0"/>
        <pt x="510" y="327" on="0"/>
        <pt x="534" y="375" on="0"/>
        <pt x="534" y="420" on="1"/>
        <pt x="534" y="1378" on="1"/>
        <pt x="422" y="1374" on="1"/>
        <pt x="383" y="1214" on="1"/>
        <pt x="367" y="1160" on="0"/>
        <pt x="321" y="1086" on="0"/>
        <pt x="267" y="1039" on="0"/>
        <pt x="207" y="1018" on="0"/>
        <pt x="176" y="1018" on="1"/>
        <pt x="141" y="1018" on="0"/>
        <pt x="80" y="1042" on="0"/>
        <pt x="35" y="1086" on="0"/>
        <pt x="10" y="1150" on="0"/>
        <pt x="10" y="1190" on="1"/>
        <pt x="10" y="1250" on="0"/>
        <pt x="45" y="1391" on="0"/>
        <pt x="116" y="1512" on="0"/>
        <pt x="224" y="1593" on="0"/>
        <pt x="297" y="1593" on="1"/>
        <pt x="1444" y="1593" on="1"/>
        <pt x="1517" y="1593" on="0"/>
        <pt x="1624" y="1513" on="0"/>
        <pt x="1695" y="1392" on="0"/>
        <pt x="1730" y="1252" on="0"/>
        <pt x="1730" y="1192" on="1"/>
        <pt x="1730" y="1152" on="0"/>
        <pt x="1705" y="1088" on="0"/>
        <pt x="1661" y="1044" on="0"/>
        <pt x="1600" y="1020" on="0"/>
        <pt x="1565" y="1020" on="1"/>
        <pt x="1534" y="1020" on="0"/>
        <pt x="1472" y="1040" on="0"/>
        <pt x="1416" y="1087" on="0"/>
        <pt x="1371" y="1162" on="0"/>
        <pt x="1358" y="1217" on="1"/>
        <pt x="1319" y="1376" on="1"/>
        <pt x="1206" y="1380" on="1"/>
      </contour>
    </TTGlyph>
    <TTGlyph name="Tbar" xMin="10" yMin="0" xMax="1730" yMax="1593">
      <contour>
        <pt x="305" y="845" on="1"/>
        <pt x="305" y="872" on="0"/>
        <pt x="322" y="906" on="0"/>
        <pt x="348" y="925" on="0"/>
        <pt x="379" y="933" on="0"/>
        <pt x="392" y="933" on="1"/>
        <pt x="1335" y="933" on="1"/>
        <pt x="1350" y="933" on="0"/>
        <pt x="1380" y="925" on="0"/>
        <pt x="1406" y="906" on="0"/>
        <pt x="1422" y="872" on="0"/>
        <pt x="1422" y="845" on="1"/>
        <pt x="1422" y="818" on="0"/>
        <pt x="1406" y="784" on="0"/>
        <pt x="1380" y="765" on="0"/>
        <pt x="1350" y="757" on="0"/>
        <pt x="1335" y="757" on="1"/>
        <pt x="392" y="757" on="1"/>
        <pt x="379" y="757" on="0"/>
        <pt x="348" y="765" on="0"/>
        <pt x="322" y="784" on="0"/>
        <pt x="305" y="818" on="0"/>
      </contour>
      <contour>
        <pt x="1206" y="424" on="1"/>
        <pt x="1206" y="379" on="0"/>
        <pt x="1230" y="329" on="0"/>
        <pt x="1266" y="303" on="0"/>
        <pt x="1308" y="293" on="0"/>
        <pt x="1344" y="281" on="0"/>
        <pt x="1368" y="260" on="0"/>
        <pt x="1368" y="236" on="1"/>
        <pt x="1368" y="111" on="0"/>
        <pt x="1110" y="0" on="0"/>
        <pt x="866" y="0" on="1"/>
        <pt x="748" y="0" on="0"/>
        <pt x="565" y="27" on="0"/>
        <pt x="440" y="84" on="0"/>
        <pt x="375" y="174" on="0"/>
        <pt x="375" y="236" on="1"/>
        <pt x="375" y="260" on="0"/>
        <pt x="399" y="281" on="0"/>
        <pt x="434" y="292" on="0"/>
        <pt x="475" y="302" on="0"/>
        <pt x="510" y="327" on="0"/>
        <pt x="534" y="375" on="0"/>
        <pt x="534" y="420" on="1"/>
        <pt x="534" y="1378" on="1"/>
        <pt x="422" y="1374" on="1"/>
        <pt x="383" y="1214" on="1"/>
        <pt x="367" y="1160" on="0"/>
        <pt x="321" y="1086" on="0"/>
        <pt x="267" y="1039" on="0"/>
        <pt x="207" y="1018" on="0"/>
        <pt x="176" y="1018" on="1"/>
        <pt x="141" y="1018" on="0"/>
        <pt x="80" y="1042" on="0"/>
        <pt x="35" y="1086" on="0"/>
        <pt x="10" y="1150" on="0"/>
        <pt x="10" y="1190" on="1"/>
        <pt x="10" y="1250" on="0"/>
        <pt x="45" y="1391" on="0"/>
        <pt x="116" y="1512" on="0"/>
        <pt x="224" y="1593" on="0"/>
        <pt x="297" y="1593" on="1"/>
        <pt x="1444" y="1593" on="1"/>
        <pt x="1517" y="1593" on="0"/>
        <pt x="1624" y="1513" on="0"/>
        <pt x="1695" y="1392" on="0"/>
        <pt x="1730" y="1252" on="0"/>
        <pt x="1730" y="1192" on="1"/>
        <pt x="1730" y="1152" on="0"/>
        <pt x="1705" y="1088" on="0"/>
        <pt x="1661" y="1044" on="0"/>
        <pt x="1600" y="1020" on="0"/>
        <pt x="1565" y="1020" on="1"/>
        <pt x="1534" y="1020" on="0"/>
        <pt x="1472" y="1040" on="0"/>
        <pt x="1416" y="1087" on="0"/>
        <pt x="1371" y="1162" on="0"/>
        <pt x="1358" y="1217" on="1"/>
        <pt x="1319" y="1376" on="1"/>
        <pt x="1206" y="1380" on="1"/>
      </contour>
    </TTGlyph>
    <TTGlyph name="Tcaron" xMin="10" yMin="0" xMax="1730" yMax="2507">
      <component glyphName="T" x="0" y="0" flags="0x1204"/>
      <component glyphName="caron" x="406" y="1638" flags="0x1004"/>
    </TTGlyph>
    <TTGlyph name="Tcommaaccent" xMin="10" yMin="-924" xMax="1730" yMax="1593">
      <component glyphName="T" x="0" y="0" flags="0x1204"/>
      <component glyphName="commaaccent" x="532" y="0" flags="0x1004"/>
    </TTGlyph>
    <TTGlyph name="Thorn" xMin="66" yMin="0" xMax="1792" yMax="1847">
      <contour>
        <pt x="903" y="625" on="1"/>
        <pt x="1034" y="625" on="1"/>
        <pt x="1081" y="625" on="0"/>
        <pt x="1148" y="673" on="0"/>
        <pt x="1190" y="751" on="0"/>
        <pt x="1210" y="852" on="0"/>
        <pt x="1210" y="905" on="1"/>
        <pt x="1210" y="960" on="0"/>
        <pt x="1188" y="1068" on="0"/>
        <pt x="1139" y="1152" on="0"/>
        <pt x="1061" y="1204" on="0"/>
        <pt x="1004" y="1204" on="1"/>
        <pt x="901" y="1204" on="1"/>
      </contour>
      <contour>
        <pt x="225" y="1427" on="1"/>
        <pt x="225" y="1472" on="0"/>
        <pt x="201" y="1521" on="0"/>
        <pt x="166" y="1546" on="0"/>
        <pt x="125" y="1556" on="0"/>
        <pt x="90" y="1567" on="0"/>
        <pt x="66" y="1588" on="0"/>
        <pt x="66" y="1612" on="1"/>
        <pt x="66" y="1674" on="0"/>
        <pt x="131" y="1763" on="0"/>
        <pt x="256" y="1820" on="0"/>
        <pt x="439" y="1847" on="0"/>
        <pt x="557" y="1847" on="1"/>
        <pt x="679" y="1847" on="0"/>
        <pt x="867" y="1820" on="0"/>
        <pt x="994" y="1763" on="0"/>
        <pt x="1059" y="1674" on="0"/>
        <pt x="1059" y="1612" on="1"/>
        <pt x="1059" y="1588" on="0"/>
        <pt x="1035" y="1567" on="0"/>
        <pt x="999" y="1555" on="0"/>
        <pt x="957" y="1545" on="0"/>
        <pt x="921" y="1519" on="0"/>
        <pt x="897" y="1469" on="0"/>
        <pt x="897" y="1423" on="1"/>
        <pt x="897" y="1384" on="1"/>
        <pt x="1141" y="1384" on="1"/>
        <pt x="1304" y="1384" on="0"/>
        <pt x="1548" y="1305" on="0"/>
        <pt x="1711" y="1176" on="0"/>
        <pt x="1792" y="1011" on="0"/>
        <pt x="1792" y="924" on="1"/>
        <pt x="1792" y="838" on="0"/>
        <pt x="1711" y="673" on="0"/>
        <pt x="1548" y="544" on="0"/>
        <pt x="1304" y="465" on="0"/>
        <pt x="1141" y="465" on="1"/>
        <pt x="1125" y="465" on="0"/>
        <pt x="1056" y="466" on="0"/>
        <pt x="981" y="467" on="0"/>
        <pt x="914" y="468" on="0"/>
        <pt x="899" y="469" on="1"/>
        <pt x="899" y="412" on="1"/>
        <pt x="899" y="370" on="0"/>
        <pt x="923" y="325" on="0"/>
        <pt x="959" y="302" on="0"/>
        <pt x="1001" y="292" on="0"/>
        <pt x="1037" y="281" on="0"/>
        <pt x="1061" y="259" on="0"/>
        <pt x="1061" y="236" on="1"/>
        <pt x="1061" y="111" on="0"/>
        <pt x="803" y="0" on="0"/>
        <pt x="559" y="0" on="1"/>
        <pt x="441" y="0" on="0"/>
        <pt x="258" y="27" on="0"/>
        <pt x="133" y="84" on="0"/>
        <pt x="68" y="174" on="0"/>
        <pt x="68" y="236" on="1"/>
        <pt x="68" y="260" on="0"/>
        <pt x="92" y="281" on="0"/>
        <pt x="127" y="292" on="0"/>
        <pt x="168" y="302" on="0"/>
        <pt x="203" y="327" on="0"/>
        <pt x="227" y="375" on="0"/>
        <pt x="227" y="420" on="1"/>
      </contour>
    </TTGlyph>
    <TTGlyph name="U" xMin="33" yMin="-25" xMax="1849" yMax="1593">
      <contour>
        <pt x="1689" y="516" on="1"/>
        <pt x="1689" y="419" on="0"/>
        <pt x="1637" y="263" on="0"/>
        <pt x="1543" y="142" on="0"/>
        <pt x="1412" y="56" on="0"/>
        <pt x="1256" y="1" on="0"/>
        <pt x="1080" y="-25" on="0"/>
        <pt x="987" y="-25" on="1"/>
        <pt x="876" y="-25" on="0"/>
        <pt x="672" y="1" on="0"/>
        <pt x="495" y="57" on="0"/>
        <pt x="351" y="143" on="0"/>
        <pt x="248" y="265" on="0"/>
        <pt x="192" y="422" on="0"/>
        <pt x="192" y="520" on="1"/>
        <pt x="192" y="1174" on="1"/>
        <pt x="192" y="1218" on="0"/>
        <pt x="168" y="1267" on="0"/>
        <pt x="133" y="1292" on="0"/>
        <pt x="92" y="1302" on="0"/>
        <pt x="57" y="1313" on="0"/>
        <pt x="33" y="1334" on="0"/>
        <pt x="33" y="1358" on="1"/>
        <pt x="33" y="1420" on="0"/>
        <pt x="98" y="1509" on="0"/>
        <pt x="223" y="1566" on="0"/>
        <pt x="406" y="1593" on="0"/>
        <pt x="524" y="1593" on="1"/>
        <pt x="646" y="1593" on="0"/>
        <pt x="834" y="1566" on="0"/>
        <pt x="961" y="1509" on="0"/>
        <pt x="1026" y="1420" on="0"/>
        <pt x="1026" y="1358" on="1"/>
        <pt x="1026" y="1334" on="0"/>
        <pt x="1002" y="1313" on="0"/>
        <pt x="967" y="1302" on="0"/>
        <pt x="925" y="1293" on="0"/>
        <pt x="890" y="1269" on="0"/>
        <pt x="866" y="1220" on="0"/>
        <pt x="866" y="1176" on="1"/>
        <pt x="866" y="520" on="1"/>
        <pt x="866" y="450" on="0"/>
        <pt x="906" y="352" on="0"/>
        <pt x="978" y="290" on="0"/>
        <pt x="1077" y="262" on="0"/>
        <pt x="1136" y="262" on="1"/>
        <pt x="1191" y="262" on="0"/>
        <pt x="1286" y="291" on="0"/>
        <pt x="1356" y="353" on="0"/>
        <pt x="1397" y="451" on="0"/>
        <pt x="1397" y="520" on="1"/>
        <pt x="1397" y="1174" on="1"/>
        <pt x="1397" y="1218" on="0"/>
        <pt x="1373" y="1267" on="0"/>
        <pt x="1338" y="1292" on="0"/>
        <pt x="1296" y="1302" on="0"/>
        <pt x="1261" y="1313" on="0"/>
        <pt x="1237" y="1334" on="0"/>
        <pt x="1237" y="1358" on="1"/>
        <pt x="1237" y="1420" on="0"/>
        <pt x="1297" y="1509" on="0"/>
        <pt x="1389" y="1566" on="0"/>
        <pt x="1499" y="1593" on="0"/>
        <pt x="1550" y="1593" on="1"/>
        <pt x="1595" y="1593" on="0"/>
        <pt x="1700" y="1566" on="0"/>
        <pt x="1790" y="1509" on="0"/>
        <pt x="1849" y="1420" on="0"/>
        <pt x="1849" y="1358" on="1"/>
        <pt x="1849" y="1334" on="0"/>
        <pt x="1825" y="1313" on="0"/>
        <pt x="1789" y="1301" on="0"/>
        <pt x="1747" y="1291" on="0"/>
        <pt x="1711" y="1265" on="0"/>
        <pt x="1687" y="1215" on="0"/>
        <pt x="1687" y="1169" on="1"/>
      </contour>
    </TTGlyph>
    <TTGlyph name="Uacute" xMin="33" yMin="-25" xMax="1849" yMax="2529">
      <component glyphName="U" x="0" y="0" flags="0x1204"/>
      <component glyphName="acute" x="625" y="1638" flags="0x1004"/>
    </TTGlyph>
    <TTGlyph name="Ubreve" xMin="33" yMin="-25" xMax="1849" yMax="2195">
      <component glyphName="U" x="0" y="0" flags="0x1204"/>
      <component glyphName="breve" x="392" y="1638" flags="0x1004"/>
    </TTGlyph>
    <TTGlyph name="Ucircumflex" xMin="33" yMin="-25" xMax="1849" yMax="2498">
      <component glyphName="U" x="0" y="0" flags="0x1204"/>
      <component glyphName="circumflex" x="536" y="1638" flags="0x1004"/>
    </TTGlyph>
    <TTGlyph name="Udieresis" xMin="33" yMin="-25" xMax="1849" yMax="2195">
      <component glyphName="U" x="0" y="0" flags="0x1204"/>
      <component glyphName="dieresis" x="225" y="1638" flags="0x1004"/>
    </TTGlyph>
    <TTGlyph name="Ugrave" xMin="33" yMin="-25" xMax="1849" yMax="2529">
      <component glyphName="U" x="0" y="0" flags="0x1204"/>
      <component glyphName="grave" x="313" y="1638" flags="0x1004"/>
    </TTGlyph>
    <TTGlyph name="Uhungarumlaut" xMin="33" yMin="-25" xMax="1849" yMax="2611">
      <component glyphName="U" x="0" y="0" flags="0x1204"/>
      <component glyphName="hungarumlaut" x="351" y="1638" flags="0x1004"/>
    </TTGlyph>
    <TTGlyph name="Umacron" xMin="33" yMin="-25" xMax="1849" yMax="2142">
      <component glyphName="U" x="0" y="0" flags="0x1204"/>
      <component glyphName="macron" x="382" y="1638" flags="0x1004"/>
    </TTGlyph>
    <TTGlyph name="Uogonek" xMin="39" yMin="-701" xMax="1855" yMax="1593">
      <component glyphName="U" x="6" y="0" flags="0x1004"/>
      <component glyphName="ogonek" x="702" y="0" flags="0x1004"/>
    </TTGlyph>
    <TTGlyph name="Uring" xMin="33" yMin="-25" xMax="1849" yMax="2496">
      <component glyphName="U" x="0" y="0" flags="0x1204"/>
      <component glyphName="ring" x="467" y="1638" flags="0x1004"/>
    </TTGlyph>
    <TTGlyph name="Utilde" xMin="33" yMin="-25" xMax="1849" yMax="2345">
      <component glyphName="U" x="0" y="0" flags="0x1204"/>
      <component glyphName="tilde" x="303" y="1638" flags="0x1004"/>
    </TTGlyph>
    <TTGlyph name="V" xMin="-9" yMin="-47" xMax="1725" yMax="1593">
      <contour>
        <pt x="1262" y="1174" on="1"/>
        <pt x="1275" y="1210" on="0"/>
        <pt x="1275" y="1234" on="1"/>
        <pt x="1275" y="1258" on="0"/>
        <pt x="1253" y="1283" on="0"/>
        <pt x="1221" y="1297" on="0"/>
        <pt x="1183" y="1304" on="0"/>
        <pt x="1151" y="1316" on="0"/>
        <pt x="1129" y="1337" on="0"/>
        <pt x="1129" y="1358" on="1"/>
        <pt x="1129" y="1406" on="0"/>
        <pt x="1167" y="1491" on="0"/>
        <pt x="1242" y="1555" on="0"/>
        <pt x="1353" y="1593" on="0"/>
        <pt x="1426" y="1593" on="1"/>
        <pt x="1500" y="1593" on="0"/>
        <pt x="1612" y="1555" on="0"/>
        <pt x="1687" y="1491" on="0"/>
        <pt x="1725" y="1406" on="0"/>
        <pt x="1725" y="1358" on="1"/>
        <pt x="1725" y="1334" on="0"/>
        <pt x="1700" y="1313" on="0"/>
        <pt x="1659" y="1301" on="0"/>
        <pt x="1608" y="1291" on="0"/>
        <pt x="1558" y="1265" on="0"/>
        <pt x="1513" y="1215" on="0"/>
        <pt x="1498" y="1169" on="1"/>
        <pt x="1197" y="435" on="1"/>
        <pt x="1141" y="297" on="0"/>
        <pt x="1061" y="112" on="0"/>
        <pt x="987" y="0" on="0"/>
        <pt x="908" y="-47" on="0"/>
        <pt x="853" y="-47" on="1"/>
        <pt x="805" y="-47" on="0"/>
        <pt x="729" y="11" on="0"/>
        <pt x="646" y="147" on="0"/>
        <pt x="543" y="371" on="0"/>
        <pt x="470" y="537" on="1"/>
        <pt x="191" y="1169" on="1"/>
        <pt x="172" y="1212" on="0"/>
        <pt x="128" y="1261" on="0"/>
        <pt x="83" y="1287" on="0"/>
        <pt x="42" y="1298" on="0"/>
        <pt x="10" y="1311" on="0"/>
        <pt x="-9" y="1334" on="0"/>
        <pt x="-9" y="1358" on="1"/>
        <pt x="-9" y="1482" on="0"/>
        <pt x="248" y="1593" on="0"/>
        <pt x="492" y="1593" on="1"/>
        <pt x="610" y="1593" on="0"/>
        <pt x="794" y="1566" on="0"/>
        <pt x="919" y="1509" on="0"/>
        <pt x="984" y="1420" on="0"/>
        <pt x="984" y="1358" on="1"/>
        <pt x="984" y="1338" on="0"/>
        <pt x="964" y="1316" on="0"/>
        <pt x="934" y="1304" on="0"/>
        <pt x="898" y="1296" on="0"/>
        <pt x="868" y="1282" on="0"/>
        <pt x="848" y="1259" on="0"/>
        <pt x="848" y="1237" on="1"/>
        <pt x="848" y="1225" on="0"/>
        <pt x="855" y="1194" on="0"/>
        <pt x="863" y="1174" on="1"/>
        <pt x="1027" y="774" on="1"/>
        <pt x="1037" y="751" on="0"/>
        <pt x="1059" y="716" on="0"/>
        <pt x="1073" y="716" on="1"/>
        <pt x="1084" y="716" on="0"/>
        <pt x="1109" y="746" on="0"/>
        <pt x="1123" y="784" on="1"/>
      </contour>
    </TTGlyph>
    <TTGlyph name="W" xMin="-15" yMin="-47" xMax="2743" yMax="1593">
      <contour>
        <pt x="1248" y="1194" on="1"/>
        <pt x="1229" y="1229" on="0"/>
        <pt x="1186" y="1267" on="0"/>
        <pt x="1144" y="1288" on="0"/>
        <pt x="1107" y="1299" on="0"/>
        <pt x="1079" y="1312" on="0"/>
        <pt x="1062" y="1335" on="0"/>
        <pt x="1062" y="1358" on="1"/>
        <pt x="1062" y="1482" on="0"/>
        <pt x="1319" y="1593" on="0"/>
        <pt x="1564" y="1593" on="1"/>
        <pt x="1682" y="1593" on="0"/>
        <pt x="1865" y="1566" on="0"/>
        <pt x="1990" y="1509" on="0"/>
        <pt x="2055" y="1420" on="0"/>
        <pt x="2055" y="1358" on="1"/>
        <pt x="2055" y="1337" on="0"/>
        <pt x="2035" y="1316" on="0"/>
        <pt x="2005" y="1304" on="0"/>
        <pt x="1970" y="1297" on="0"/>
        <pt x="1940" y="1283" on="0"/>
        <pt x="1920" y="1259" on="0"/>
        <pt x="1920" y="1236" on="1"/>
        <pt x="1920" y="1224" on="0"/>
        <pt x="1926" y="1194" on="0"/>
        <pt x="1934" y="1174" on="1"/>
        <pt x="2067" y="815" on="1"/>
        <pt x="2076" y="791" on="0"/>
        <pt x="2101" y="756" on="0"/>
        <pt x="2115" y="756" on="1"/>
        <pt x="2126" y="756" on="0"/>
        <pt x="2151" y="787" on="0"/>
        <pt x="2164" y="825" on="1"/>
        <pt x="2280" y="1174" on="1"/>
        <pt x="2292" y="1210" on="0"/>
        <pt x="2292" y="1233" on="1"/>
        <pt x="2292" y="1257" on="0"/>
        <pt x="2271" y="1283" on="0"/>
        <pt x="2238" y="1297" on="0"/>
        <pt x="2201" y="1304" on="0"/>
        <pt x="2168" y="1316" on="0"/>
        <pt x="2147" y="1337" on="0"/>
        <pt x="2147" y="1358" on="1"/>
        <pt x="2147" y="1406" on="0"/>
        <pt x="2185" y="1491" on="0"/>
        <pt x="2260" y="1555" on="0"/>
        <pt x="2371" y="1593" on="0"/>
        <pt x="2444" y="1593" on="1"/>
        <pt x="2518" y="1593" on="0"/>
        <pt x="2630" y="1555" on="0"/>
        <pt x="2705" y="1491" on="0"/>
        <pt x="2743" y="1406" on="0"/>
        <pt x="2743" y="1358" on="1"/>
        <pt x="2743" y="1334" on="0"/>
        <pt x="2719" y="1312" on="0"/>
        <pt x="2680" y="1301" on="0"/>
        <pt x="2630" y="1290" on="0"/>
        <pt x="2580" y="1264" on="0"/>
        <pt x="2533" y="1214" on="0"/>
        <pt x="2516" y="1169" on="1"/>
        <pt x="2249" y="459" on="1"/>
        <pt x="2212" y="361" on="0"/>
        <pt x="2154" y="210" on="0"/>
        <pt x="2103" y="97" on="0"/>
        <pt x="2056" y="21" on="0"/>
        <pt x="2005" y="-26" on="0"/>
        <pt x="1945" y="-47" on="0"/>
        <pt x="1908" y="-47" on="1"/>
        <pt x="1860" y="-47" on="0"/>
        <pt x="1778" y="9" on="0"/>
        <pt x="1691" y="143" on="0"/>
        <pt x="1590" y="368" on="0"/>
        <pt x="1525" y="537" on="1"/>
        <pt x="1377" y="918" on="1"/>
        <pt x="1203" y="460" on="1"/>
        <pt x="1147" y="313" on="0"/>
        <pt x="1069" y="118" on="0"/>
        <pt x="997" y="1" on="0"/>
        <pt x="918" y="-47" on="0"/>
        <pt x="861" y="-47" on="1"/>
        <pt x="813" y="-47" on="0"/>
        <pt x="739" y="12" on="0"/>
        <pt x="658" y="148" on="0"/>
        <pt x="554" y="372" on="0"/>
        <pt x="478" y="537" on="1"/>
        <pt x="185" y="1169" on="1"/>
        <pt x="165" y="1211" on="0"/>
        <pt x="120" y="1259" on="0"/>
        <pt x="76" y="1285" on="0"/>
        <pt x="35" y="1297" on="0"/>
        <pt x="4" y="1311" on="0"/>
        <pt x="-15" y="1334" on="0"/>
        <pt x="-15" y="1358" on="1"/>
        <pt x="-15" y="1482" on="0"/>
        <pt x="242" y="1593" on="0"/>
        <pt x="486" y="1593" on="1"/>
        <pt x="604" y="1593" on="0"/>
        <pt x="788" y="1566" on="0"/>
        <pt x="913" y="1509" on="0"/>
        <pt x="978" y="1420" on="0"/>
        <pt x="978" y="1358" on="1"/>
        <pt x="978" y="1338" on="0"/>
        <pt x="957" y="1316" on="0"/>
        <pt x="927" y="1303" on="0"/>
        <pt x="890" y="1294" on="0"/>
        <pt x="860" y="1281" on="0"/>
        <pt x="839" y="1258" on="0"/>
        <pt x="839" y="1238" on="1"/>
        <pt x="839" y="1226" on="0"/>
        <pt x="847" y="1194" on="0"/>
        <pt x="857" y="1174" on="1"/>
        <pt x="1021" y="815" on="1"/>
        <pt x="1032" y="792" on="0"/>
        <pt x="1054" y="757" on="0"/>
        <pt x="1068" y="757" on="1"/>
        <pt x="1079" y="757" on="0"/>
        <pt x="1103" y="787" on="0"/>
        <pt x="1117" y="825" on="1"/>
      </contour>
    </TTGlyph>
    <TTGlyph name="Wacute" xMin="-15" yMin="-47" xMax="2743" yMax="2529">
      <component glyphName="W" x="0" y="0" flags="0x1204"/>
      <component glyphName="acute" x="1087" y="1638" flags="0x1004"/>
    </TTGlyph>
    <TTGlyph name="Wcircumflex" xMin="-15" yMin="-47" xMax="2743" yMax="2498">
      <component glyphName="W" x="0" y="0" flags="0x1204"/>
      <component glyphName="circumflex" x="875" y="1638" flags="0x1004"/>
    </TTGlyph>
    <TTGlyph name="Wdieresis" xMin="-15" yMin="-47" xMax="2743" yMax="2195">
      <component glyphName="W" x="0" y="0" flags="0x1204"/>
      <component glyphName="dieresis" x="657" y="1638" flags="0x1004"/>
    </TTGlyph>
    <TTGlyph name="Wgrave" xMin="-15" yMin="-47" xMax="2743" yMax="2529">
      <component glyphName="W" x="0" y="0" flags="0x1204"/>
      <component glyphName="grave" x="766" y="1638" flags="0x1004"/>
    </TTGlyph>
    <TTGlyph name="X" xMin="3" yMin="0" xMax="1797" yMax="1593">
      <contour>
        <pt x="618" y="715" on="1"/>
        <pt x="247" y="1174" on="1"/>
        <pt x="216" y="1212" on="0"/>
        <pt x="157" y="1254" on="0"/>
        <pt x="102" y="1278" on="0"/>
        <pt x="56" y="1293" on="0"/>
        <pt x="22" y="1313" on="0"/>
        <pt x="3" y="1348" on="0"/>
        <pt x="3" y="1380" on="1"/>
        <pt x="3" y="1436" on="0"/>
        <pt x="73" y="1517" on="0"/>
        <pt x="197" y="1569" on="0"/>
        <pt x="369" y="1593" on="0"/>
        <pt x="470" y="1593" on="1"/>
        <pt x="621" y="1593" on="0"/>
        <pt x="824" y="1565" on="0"/>
        <pt x="947" y="1507" on="0"/>
        <pt x="999" y="1416" on="0"/>
        <pt x="999" y="1352" on="1"/>
        <pt x="999" y="1326" on="0"/>
        <pt x="964" y="1300" on="0"/>
        <pt x="921" y="1281" on="0"/>
        <pt x="886" y="1261" on="0"/>
        <pt x="886" y="1241" on="1"/>
        <pt x="886" y="1229" on="0"/>
        <pt x="901" y="1197" on="0"/>
        <pt x="921" y="1174" on="1"/>
        <pt x="994" y="1085" on="1"/>
        <pt x="1085" y="1174" on="1"/>
        <pt x="1109" y="1197" on="0"/>
        <pt x="1130" y="1229" on="0"/>
        <pt x="1130" y="1241" on="1"/>
        <pt x="1130" y="1258" on="0"/>
        <pt x="1103" y="1278" on="0"/>
        <pt x="1071" y="1299" on="0"/>
        <pt x="1044" y="1326" on="0"/>
        <pt x="1044" y="1350" on="1"/>
        <pt x="1044" y="1414" on="0"/>
        <pt x="1107" y="1507" on="0"/>
        <pt x="1209" y="1565" on="0"/>
        <pt x="1340" y="1593" on="0"/>
        <pt x="1408" y="1593" on="1"/>
        <pt x="1469" y="1593" on="0"/>
        <pt x="1580" y="1569" on="0"/>
        <pt x="1662" y="1519" on="0"/>
        <pt x="1711" y="1439" on="0"/>
        <pt x="1711" y="1384" on="1"/>
        <pt x="1711" y="1349" on="0"/>
        <pt x="1680" y="1311" on="0"/>
        <pt x="1628" y="1289" on="0"/>
        <pt x="1558" y="1274" on="0"/>
        <pt x="1482" y="1251" on="0"/>
        <pt x="1402" y="1211" on="0"/>
        <pt x="1365" y="1174" on="1"/>
        <pt x="1124" y="932" on="1"/>
        <pt x="1552" y="424" on="1"/>
        <pt x="1584" y="385" on="0"/>
        <pt x="1646" y="342" on="0"/>
        <pt x="1701" y="316" on="0"/>
        <pt x="1746" y="301" on="0"/>
        <pt x="1779" y="279" on="0"/>
        <pt x="1797" y="244" on="0"/>
        <pt x="1797" y="211" on="1"/>
        <pt x="1797" y="100" on="0"/>
        <pt x="1552" y="0" on="0"/>
        <pt x="1320" y="0" on="1"/>
        <pt x="1204" y="0" on="0"/>
        <pt x="1007" y="28" on="0"/>
        <pt x="863" y="87" on="0"/>
        <pt x="781" y="178" on="0"/>
        <pt x="781" y="242" on="1"/>
        <pt x="781" y="267" on="0"/>
        <pt x="816" y="293" on="0"/>
        <pt x="859" y="312" on="0"/>
        <pt x="894" y="332" on="0"/>
        <pt x="894" y="352" on="1"/>
        <pt x="894" y="365" on="0"/>
        <pt x="879" y="396" on="0"/>
        <pt x="859" y="420" on="1"/>
        <pt x="747" y="557" on="1"/>
        <pt x="607" y="420" on="1"/>
        <pt x="586" y="400" on="0"/>
        <pt x="568" y="369" on="0"/>
        <pt x="568" y="358" on="1"/>
        <pt x="568" y="339" on="0"/>
        <pt x="603" y="317" on="0"/>
        <pt x="646" y="296" on="0"/>
        <pt x="681" y="268" on="0"/>
        <pt x="681" y="242" on="1"/>
        <pt x="681" y="178" on="0"/>
        <pt x="613" y="87" on="0"/>
        <pt x="501" y="28" on="0"/>
        <pt x="359" y="0" on="0"/>
        <pt x="286" y="0" on="1"/>
        <pt x="238" y="0" on="0"/>
        <pt x="141" y="24" on="0"/>
        <pt x="63" y="74" on="0"/>
        <pt x="13" y="153" on="0"/>
        <pt x="13" y="209" on="1"/>
        <pt x="13" y="243" on="0"/>
        <pt x="38" y="280" on="0"/>
        <pt x="81" y="303" on="0"/>
        <pt x="140" y="320" on="0"/>
        <pt x="209" y="345" on="0"/>
        <pt x="283" y="387" on="0"/>
        <pt x="321" y="424" on="1"/>
      </contour>
    </TTGlyph>
    <TTGlyph name="Y" xMin="8" yMin="0" xMax="1742" yMax="1593">
      <contour>
        <pt x="862" y="0" on="1"/>
        <pt x="743" y="0" on="0"/>
        <pt x="559" y="27" on="0"/>
        <pt x="433" y="84" on="0"/>
        <pt x="368" y="174" on="0"/>
        <pt x="368" y="236" on="1"/>
        <pt x="368" y="260" on="0"/>
        <pt x="392" y="281" on="0"/>
        <pt x="428" y="292" on="0"/>
        <pt x="470" y="302" on="0"/>
        <pt x="506" y="327" on="0"/>
        <pt x="530" y="375" on="0"/>
        <pt x="530" y="420" on="1"/>
        <pt x="530" y="780" on="1"/>
        <pt x="249" y="1169" on="1"/>
        <pt x="222" y="1207" on="0"/>
        <pt x="164" y="1251" on="0"/>
        <pt x="111" y="1277" on="0"/>
        <pt x="64" y="1292" on="0"/>
        <pt x="28" y="1308" on="0"/>
        <pt x="8" y="1334" on="0"/>
        <pt x="8" y="1358" on="1"/>
        <pt x="8" y="1482" on="0"/>
        <pt x="265" y="1593" on="0"/>
        <pt x="509" y="1593" on="1"/>
        <pt x="627" y="1593" on="0"/>
        <pt x="811" y="1566" on="0"/>
        <pt x="936" y="1509" on="0"/>
        <pt x="1001" y="1420" on="0"/>
        <pt x="1001" y="1358" on="1"/>
        <pt x="1001" y="1330" on="0"/>
        <pt x="965" y="1304" on="0"/>
        <pt x="922" y="1286" on="0"/>
        <pt x="886" y="1267" on="0"/>
        <pt x="886" y="1246" on="1"/>
        <pt x="886" y="1234" on="0"/>
        <pt x="902" y="1199" on="0"/>
        <pt x="921" y="1174" on="1"/>
        <pt x="1027" y="1004" on="1"/>
        <pt x="1051" y="976" on="0"/>
        <pt x="1072" y="976" on="1"/>
        <pt x="1087" y="976" on="0"/>
        <pt x="1113" y="998" on="0"/>
        <pt x="1124" y="1014" on="1"/>
        <pt x="1238" y="1174" on="1"/>
        <pt x="1255" y="1198" on="0"/>
        <pt x="1267" y="1233" on="0"/>
        <pt x="1267" y="1246" on="1"/>
        <pt x="1267" y="1262" on="0"/>
        <pt x="1249" y="1280" on="0"/>
        <pt x="1222" y="1292" on="0"/>
        <pt x="1191" y="1302" on="0"/>
        <pt x="1164" y="1316" on="0"/>
        <pt x="1146" y="1339" on="0"/>
        <pt x="1146" y="1358" on="1"/>
        <pt x="1146" y="1406" on="0"/>
        <pt x="1184" y="1491" on="0"/>
        <pt x="1259" y="1555" on="0"/>
        <pt x="1370" y="1593" on="0"/>
        <pt x="1443" y="1593" on="1"/>
        <pt x="1517" y="1593" on="0"/>
        <pt x="1629" y="1555" on="0"/>
        <pt x="1704" y="1491" on="0"/>
        <pt x="1742" y="1406" on="0"/>
        <pt x="1742" y="1358" on="1"/>
        <pt x="1742" y="1334" on="0"/>
        <pt x="1718" y="1309" on="0"/>
        <pt x="1676" y="1294" on="0"/>
        <pt x="1622" y="1280" on="0"/>
        <pt x="1563" y="1254" on="0"/>
        <pt x="1501" y="1208" on="0"/>
        <pt x="1474" y="1169" on="1"/>
        <pt x="1202" y="780" on="1"/>
        <pt x="1202" y="424" on="1"/>
        <pt x="1202" y="379" on="0"/>
        <pt x="1226" y="329" on="0"/>
        <pt x="1262" y="303" on="0"/>
        <pt x="1303" y="293" on="0"/>
        <pt x="1339" y="281" on="0"/>
        <pt x="1363" y="260" on="0"/>
        <pt x="1363" y="236" on="1"/>
        <pt x="1363" y="174" on="0"/>
        <pt x="1298" y="84" on="0"/>
        <pt x="1171" y="27" on="0"/>
        <pt x="984" y="0" on="0"/>
      </contour>
    </TTGlyph>
    <TTGlyph name="Yacute" xMin="8" yMin="0" xMax="1742" yMax="2529">
      <component glyphName="Y" x="0" y="0" flags="0x1004"/>
      <component glyphName="acute" x="560" y="1638" flags="0x1004"/>
    </TTGlyph>
    <TTGlyph name="Ycircumflex" xMin="8" yMin="0" xMax="1742" yMax="2498">
      <component glyphName="Y" x="0" y="0" flags="0x1004"/>
      <component glyphName="circumflex" x="451" y="1638" flags="0x1004"/>
    </TTGlyph>
    <TTGlyph name="Ydieresis" xMin="8" yMin="0" xMax="1742" yMax="2195">
      <component glyphName="Y" x="0" y="0" flags="0x1004"/>
      <component glyphName="dieresis" x="171" y="1638" flags="0x1004"/>
    </TTGlyph>
    <TTGlyph name="Ygrave" xMin="8" yMin="0" xMax="1742" yMax="2529">
      <component glyphName="Y" x="0" y="0" flags="0x1004"/>
      <component glyphName="grave" x="248" y="1638" flags="0x1004"/>
    </TTGlyph>
    <TTGlyph name="Z" xMin="30" yMin="0" xMax="1570" yMax="1593">
      <contour>
        <pt x="694" y="1335" on="1"/>
        <pt x="696" y="1341" on="0"/>
        <pt x="696" y="1344" on="1"/>
        <pt x="696" y="1355" on="0"/>
        <pt x="680" y="1374" on="0"/>
        <pt x="669" y="1374" on="1"/>
        <pt x="442" y="1374" on="1"/>
        <pt x="403" y="1214" on="1"/>
        <pt x="387" y="1160" on="0"/>
        <pt x="341" y="1086" on="0"/>
        <pt x="287" y="1039" on="0"/>
        <pt x="227" y="1018" on="0"/>
        <pt x="196" y="1018" on="1"/>
        <pt x="161" y="1018" on="0"/>
        <pt x="100" y="1042" on="0"/>
        <pt x="55" y="1086" on="0"/>
        <pt x="30" y="1150" on="0"/>
        <pt x="30" y="1190" on="1"/>
        <pt x="30" y="1250" on="0"/>
        <pt x="65" y="1391" on="0"/>
        <pt x="136" y="1512" on="0"/>
        <pt x="244" y="1593" on="0"/>
        <pt x="317" y="1593" on="1"/>
        <pt x="1388" y="1593" on="1"/>
        <pt x="1446" y="1593" on="0"/>
        <pt x="1494" y="1548" on="0"/>
        <pt x="1494" y="1514" on="1"/>
        <pt x="1494" y="1491" on="0"/>
        <pt x="1475" y="1438" on="0"/>
        <pt x="1458" y="1413" on="1"/>
        <pt x="921" y="326" on="1"/>
        <pt x="901" y="295" on="0"/>
        <pt x="901" y="273" on="1"/>
        <pt x="901" y="258" on="0"/>
        <pt x="919" y="239" on="0"/>
        <pt x="946" y="228" on="0"/>
        <pt x="980" y="225" on="0"/>
        <pt x="995" y="225" on="1"/>
        <pt x="1057" y="225" on="0"/>
        <pt x="1134" y="256" on="0"/>
        <pt x="1180" y="306" on="0"/>
        <pt x="1205" y="370" on="0"/>
        <pt x="1223" y="437" on="0"/>
        <pt x="1244" y="501" on="0"/>
        <pt x="1284" y="551" on="0"/>
        <pt x="1350" y="582" on="0"/>
        <pt x="1405" y="582" on="1"/>
        <pt x="1440" y="582" on="0"/>
        <pt x="1501" y="558" on="0"/>
        <pt x="1545" y="513" on="0"/>
        <pt x="1570" y="450" on="0"/>
        <pt x="1570" y="410" on="1"/>
        <pt x="1570" y="350" on="0"/>
        <pt x="1535" y="207" on="0"/>
        <pt x="1464" y="83" on="0"/>
        <pt x="1357" y="0" on="0"/>
        <pt x="1284" y="0" on="1"/>
        <pt x="182" y="0" on="1"/>
        <pt x="163" y="0" on="0"/>
        <pt x="125" y="8" on="0"/>
        <pt x="95" y="27" on="0"/>
        <pt x="76" y="58" on="0"/>
        <pt x="76" y="82" on="1"/>
        <pt x="76" y="105" on="0"/>
        <pt x="97" y="164" on="0"/>
        <pt x="120" y="203" on="1"/>
      </contour>
    </TTGlyph>
    <TTGlyph name="Zacute" xMin="31" yMin="0" xMax="1571" yMax="2529">
      <component glyphName="Z" x="1" y="0" flags="0x1204"/>
      <component glyphName="acute" x="563" y="1638" flags="0x1004"/>
    </TTGlyph>
    <TTGlyph name="Zcaron" xMin="31" yMin="0" xMax="1571" yMax="2507">
      <component glyphName="Z" x="1" y="0" flags="0x1204"/>
      <component glyphName="caron" x="369" y="1638" flags="0x1004"/>
    </TTGlyph>
    <TTGlyph name="Zdotaccent" xMin="31" yMin="0" xMax="1571" yMax="2355">
      <component glyphName="Z" x="1" y="0" flags="0x1204"/>
      <component glyphName="period" x="549" y="1880" flags="0x1004"/>
    </TTGlyph>
    <TTGlyph name="a" xMin="40" yMin="-25" xMax="1551" yMax="1325">
      <contour>
        <pt x="717" y="205" on="1"/>
        <pt x="750" y="205" on="0"/>
        <pt x="791" y="226" on="0"/>
        <pt x="813" y="265" on="0"/>
        <pt x="820" y="322" on="0"/>
        <pt x="820" y="358" on="1"/>
        <pt x="820" y="389" on="0"/>
        <pt x="818" y="485" on="0"/>
        <pt x="817" y="531" on="1"/>
        <pt x="815" y="585" on="0"/>
        <pt x="814" y="643" on="1"/>
        <pt x="800" y="645" on="0"/>
        <pt x="775" y="648" on="0"/>
        <pt x="763" y="648" on="1"/>
        <pt x="712" y="648" on="0"/>
        <pt x="643" y="607" on="0"/>
        <pt x="601" y="534" on="0"/>
        <pt x="584" y="435" on="0"/>
        <pt x="584" y="377" on="1"/>
        <pt x="584" y="342" on="0"/>
        <pt x="592" y="279" on="0"/>
        <pt x="620" y="232" on="0"/>
        <pt x="673" y="205" on="0"/>
      </contour>
      <contour>
        <pt x="1199" y="0" on="1"/>
        <pt x="1148" y="0" on="0"/>
        <pt x="1047" y="11" on="0"/>
        <pt x="956" y="45" on="0"/>
        <pt x="880" y="109" on="0"/>
        <pt x="853" y="162" on="1"/>
        <pt x="833" y="115" on="0"/>
        <pt x="744" y="45" on="0"/>
        <pt x="631" y="-2" on="0"/>
        <pt x="506" y="-25" on="0"/>
        <pt x="449" y="-25" on="1"/>
        <pt x="348" y="-25" on="0"/>
        <pt x="196" y="23" on="0"/>
        <pt x="92" y="112" on="0"/>
        <pt x="40" y="236" on="0"/>
        <pt x="40" y="313" on="1"/>
        <pt x="40" y="404" on="0"/>
        <pt x="101" y="567" on="0"/>
        <pt x="248" y="689" on="0"/>
        <pt x="494" y="760" on="0"/>
        <pt x="679" y="760" on="1"/>
        <pt x="816" y="760" on="1"/>
        <pt x="816" y="871" on="0"/>
        <pt x="801" y="1017" on="0"/>
        <pt x="769" y="1103" on="0"/>
        <pt x="721" y="1137" on="0"/>
        <pt x="687" y="1137" on="1"/>
        <pt x="649" y="1137" on="0"/>
        <pt x="598" y="1091" on="0"/>
        <pt x="567" y="1004" on="0"/>
        <pt x="554" y="881" on="0"/>
        <pt x="554" y="803" on="1"/>
        <pt x="511" y="803" on="0"/>
        <pt x="416" y="806" on="0"/>
        <pt x="323" y="818" on="0"/>
        <pt x="240" y="843" on="0"/>
        <pt x="176" y="886" on="0"/>
        <pt x="138" y="952" on="0"/>
        <pt x="138" y="999" on="1"/>
        <pt x="138" y="1065" on="0"/>
        <pt x="207" y="1183" on="0"/>
        <pt x="350" y="1272" on="0"/>
        <pt x="570" y="1325" on="0"/>
        <pt x="722" y="1325" on="1"/>
        <pt x="899" y="1325" on="0"/>
        <pt x="1155" y="1253" on="0"/>
        <pt x="1320" y="1109" on="0"/>
        <pt x="1399" y="890" on="0"/>
        <pt x="1399" y="743" on="1"/>
        <pt x="1399" y="389" on="1"/>
        <pt x="1399" y="346" on="0"/>
        <pt x="1422" y="298" on="0"/>
        <pt x="1455" y="273" on="0"/>
        <pt x="1495" y="263" on="0"/>
        <pt x="1528" y="252" on="0"/>
        <pt x="1551" y="233" on="0"/>
        <pt x="1551" y="211" on="1"/>
        <pt x="1551" y="111" on="0"/>
        <pt x="1372" y="0" on="0"/>
      </contour>
    </TTGlyph>
    <TTGlyph name="a.sc" xMin="-13" yMin="0" xMax="1554" yMax="1389">
      <contour>
        <pt x="499" y="578" on="1"/>
        <pt x="725" y="578" on="1"/>
        <pt x="710" y="635" on="0"/>
        <pt x="683" y="738" on="0"/>
        <pt x="657" y="838" on="0"/>
        <pt x="630" y="941" on="0"/>
        <pt x="614" y="999" on="1"/>
      </contour>
      <contour>
        <pt x="258" y="0" on="1"/>
        <pt x="192" y="0" on="0"/>
        <pt x="91" y="34" on="0"/>
        <pt x="22" y="93" on="0"/>
        <pt x="-13" y="172" on="0"/>
        <pt x="-13" y="217" on="1"/>
        <pt x="-13" y="244" on="0"/>
        <pt x="6" y="267" on="0"/>
        <pt x="37" y="278" on="0"/>
        <pt x="75" y="285" on="0"/>
        <pt x="115" y="303" on="0"/>
        <pt x="151" y="342" on="0"/>
        <pt x="164" y="381" on="1"/>
        <pt x="226" y="571" on="0"/>
        <pt x="274" y="722" on="1"/>
        <pt x="295" y="786" on="0"/>
        <pt x="334" y="910" on="0"/>
        <pt x="366" y="1009" on="0"/>
        <pt x="385" y="1071" on="0"/>
        <pt x="385" y="1073" on="1"/>
        <pt x="385" y="1083" on="0"/>
        <pt x="368" y="1103" on="0"/>
        <pt x="357" y="1103" on="1"/>
        <pt x="356" y="1103" on="0"/>
        <pt x="355" y="1104" on="0"/>
        <pt x="354" y="1104" on="1"/>
        <pt x="353" y="1104" on="0"/>
        <pt x="351" y="1106" on="0"/>
        <pt x="350" y="1106" on="1"/>
        <pt x="349" y="1106" on="0"/>
        <pt x="347" y="1108" on="0"/>
        <pt x="346" y="1108" on="1"/>
        <pt x="326" y="1114" on="0"/>
        <pt x="293" y="1136" on="0"/>
        <pt x="293" y="1167" on="1"/>
        <pt x="293" y="1215" on="0"/>
        <pt x="347" y="1286" on="0"/>
        <pt x="434" y="1335" on="0"/>
        <pt x="543" y="1366" on="0"/>
        <pt x="655" y="1383" on="0"/>
        <pt x="759" y="1389" on="0"/>
        <pt x="796" y="1389" on="1"/>
        <pt x="850" y="1389" on="0"/>
        <pt x="965" y="1381" on="0"/>
        <pt x="1076" y="1362" on="0"/>
        <pt x="1175" y="1329" on="0"/>
        <pt x="1250" y="1278" on="0"/>
        <pt x="1294" y="1207" on="0"/>
        <pt x="1294" y="1159" on="1"/>
        <pt x="1294" y="1141" on="0"/>
        <pt x="1279" y="1122" on="0"/>
        <pt x="1255" y="1113" on="0"/>
        <pt x="1229" y="1107" on="0"/>
        <pt x="1205" y="1097" on="0"/>
        <pt x="1190" y="1077" on="0"/>
        <pt x="1190" y="1059" on="1"/>
        <pt x="1190" y="1043" on="0"/>
        <pt x="1196" y="1022" on="1"/>
        <pt x="1380" y="381" on="1"/>
        <pt x="1390" y="345" on="0"/>
        <pt x="1424" y="306" on="0"/>
        <pt x="1463" y="286" on="0"/>
        <pt x="1502" y="277" on="0"/>
        <pt x="1534" y="265" on="0"/>
        <pt x="1554" y="241" on="0"/>
        <pt x="1554" y="217" on="1"/>
        <pt x="1554" y="159" on="0"/>
        <pt x="1496" y="77" on="0"/>
        <pt x="1383" y="24" on="0"/>
        <pt x="1218" y="0" on="0"/>
        <pt x="1112" y="0" on="1"/>
        <pt x="1007" y="0" on="0"/>
        <pt x="843" y="24" on="0"/>
        <pt x="732" y="77" on="0"/>
        <pt x="674" y="159" on="0"/>
        <pt x="674" y="217" on="1"/>
        <pt x="674" y="240" on="0"/>
        <pt x="690" y="263" on="0"/>
        <pt x="714" y="275" on="0"/>
        <pt x="742" y="281" on="0"/>
        <pt x="766" y="292" on="0"/>
        <pt x="782" y="314" on="0"/>
        <pt x="782" y="336" on="1"/>
        <pt x="782" y="342" on="0"/>
        <pt x="780" y="359" on="0"/>
        <pt x="778" y="369" on="1"/>
        <pt x="766" y="416" on="1"/>
        <pt x="446" y="416" on="1"/>
        <pt x="441" y="404" on="0"/>
        <pt x="433" y="378" on="0"/>
        <pt x="426" y="352" on="0"/>
        <pt x="422" y="331" on="0"/>
        <pt x="422" y="324" on="1"/>
        <pt x="422" y="299" on="0"/>
        <pt x="455" y="283" on="0"/>
        <pt x="495" y="270" on="0"/>
        <pt x="528" y="248" on="0"/>
        <pt x="528" y="217" on="1"/>
        <pt x="528" y="172" on="0"/>
        <pt x="493" y="93" on="0"/>
        <pt x="425" y="34" on="0"/>
        <pt x="324" y="0" on="0"/>
      </contour>
    </TTGlyph>
    <TTGlyph name="aacute" xMin="40" yMin="-25" xMax="1551" yMax="2284">
      <component glyphName="a" x="0" y="0" flags="0x1204"/>
      <component glyphName="acute" x="448" y="1393" flags="0x1004"/>
    </TTGlyph>
    <TTGlyph name="aacute.sc" xMin="-13" yMin="0" xMax="1554" yMax="2298">
      <component glyphName="a.sc" x="0" y="0" flags="0x1204"/>
      <component glyphName="acute" x="401" y="1407" flags="0x1004"/>
    </TTGlyph>
    <TTGlyph name="abreve" xMin="40" yMin="-25" xMax="1551" yMax="1950">
      <component glyphName="a" x="0" y="0" flags="0x1204"/>
      <component glyphName="breve" x="230" y="1393" flags="0x1004"/>
    </TTGlyph>
    <TTGlyph name="abreve.sc" xMin="-13" yMin="0" xMax="1554" yMax="1966">
      <component glyphName="a.sc" x="0" y="0" flags="0x1204"/>
      <component glyphName="breve" x="238" y="1409" flags="0x1004"/>
    </TTGlyph>
    <TTGlyph name="acircumflex" xMin="40" yMin="-25" xMax="1551" yMax="2253">
      <component glyphName="a" x="0" y="0" flags="0x1204"/>
      <component glyphName="circumflex" x="318" y="1393" flags="0x1004"/>
    </TTGlyph>
    <TTGlyph name="acircumflex.sc" xMin="-13" yMin="0" xMax="1554" yMax="2277">
      <component glyphName="a.sc" x="0" y="0" flags="0x1204"/>
      <component glyphName="circumflex" x="326" y="1417" flags="0x1004"/>
    </TTGlyph>
    <TTGlyph name="acute" xMin="18" yMin="61" xMax="790" yMax="891">
      <contour>
        <pt x="18" y="158" on="1"/>
        <pt x="18" y="179" on="0"/>
        <pt x="30" y="228" on="0"/>
        <pt x="60" y="295" on="0"/>
        <pt x="110" y="385" on="0"/>
        <pt x="149" y="446" on="1"/>
        <pt x="197" y="522" on="0"/>
        <pt x="285" y="680" on="0"/>
        <pt x="378" y="809" on="0"/>
        <pt x="484" y="891" on="0"/>
        <pt x="552" y="891" on="1"/>
        <pt x="606" y="891" on="0"/>
        <pt x="693" y="850" on="0"/>
        <pt x="756" y="785" on="0"/>
        <pt x="790" y="703" on="0"/>
        <pt x="790" y="662" on="1"/>
        <pt x="790" y="616" on="0"/>
        <pt x="751" y="529" on="0"/>
        <pt x="685" y="446" on="0"/>
        <pt x="600" y="369" on="0"/>
        <pt x="508" y="297" on="0"/>
        <pt x="417" y="232" on="0"/>
        <pt x="378" y="203" on="1"/>
        <pt x="277" y="127" on="0"/>
        <pt x="149" y="61" on="0"/>
        <pt x="114" y="61" on="1"/>
        <pt x="96" y="61" on="0"/>
        <pt x="61" y="79" on="0"/>
        <pt x="34" y="108" on="0"/>
        <pt x="18" y="142" on="0"/>
      </contour>
    </TTGlyph>
    <TTGlyph name="adieresis" xMin="40" yMin="-25" xMax="1551" yMax="1950">
      <component glyphName="a" x="0" y="0" flags="0x1204"/>
      <component glyphName="dieresis" x="26" y="1393" flags="0x1004"/>
    </TTGlyph>
    <TTGlyph name="adieresis.sc" xMin="-13" yMin="0" xMax="1554" yMax="1952">
      <component glyphName="a.sc" x="0" y="0" flags="0x1204"/>
      <component glyphName="dieresis" x="9" y="1395" flags="0x1004"/>
    </TTGlyph>
    <TTGlyph name="ae" xMin="38" yMin="-25" xMax="2083" yMax="1325">
      <contour>
        <pt x="1502" y="1325" on="1"/>
        <pt x="1636" y="1325" on="0"/>
        <pt x="1851" y="1245" on="0"/>
        <pt x="2002" y="1105" on="0"/>
        <pt x="2083" y="916" on="0"/>
        <pt x="2083" y="807" on="1"/>
        <pt x="2083" y="762" on="0"/>
        <pt x="2058" y="712" on="0"/>
        <pt x="2012" y="688" on="0"/>
        <pt x="1944" y="682" on="0"/>
        <pt x="1901" y="682" on="1"/>
        <pt x="1420" y="682" on="1"/>
        <pt x="1420" y="572" on="0"/>
        <pt x="1465" y="435" on="0"/>
        <pt x="1545" y="359" on="0"/>
        <pt x="1657" y="332" on="0"/>
        <pt x="1725" y="332" on="1"/>
        <pt x="1771" y="332" on="0"/>
        <pt x="1867" y="357" on="0"/>
        <pt x="1949" y="387" on="0"/>
        <pt x="2009" y="412" on="0"/>
        <pt x="2020" y="412" on="1"/>
        <pt x="2043" y="412" on="0"/>
        <pt x="2069" y="373" on="0"/>
        <pt x="2069" y="348" on="1"/>
        <pt x="2069" y="340" on="0"/>
        <pt x="2068" y="326" on="0"/>
        <pt x="2065" y="319" on="1"/>
        <pt x="2036" y="245" on="0"/>
        <pt x="1936" y="120" on="0"/>
        <pt x="1792" y="27" on="0"/>
        <pt x="1605" y="-25" on="0"/>
        <pt x="1488" y="-25" on="1"/>
        <pt x="1443" y="-25" on="0"/>
        <pt x="1364" y="-11" on="0"/>
        <pt x="1295" y="13" on="0"/>
        <pt x="1237" y="43" on="0"/>
        <pt x="1213" y="59" on="1"/>
        <pt x="1158" y="96" on="0"/>
        <pt x="1117" y="143" on="1"/>
        <pt x="1105" y="110" on="0"/>
        <pt x="1002" y="49" on="0"/>
        <pt x="850" y="3" on="0"/>
        <pt x="663" y="-25" on="0"/>
        <pt x="566" y="-25" on="1"/>
        <pt x="466" y="-25" on="0"/>
        <pt x="276" y="10" on="0"/>
        <pt x="128" y="89" on="0"/>
        <pt x="38" y="218" on="0"/>
        <pt x="38" y="313" on="1"/>
        <pt x="38" y="404" on="0"/>
        <pt x="99" y="567" on="0"/>
        <pt x="246" y="689" on="0"/>
        <pt x="492" y="760" on="0"/>
        <pt x="677" y="760" on="1"/>
        <pt x="814" y="760" on="1"/>
        <pt x="814" y="871" on="0"/>
        <pt x="799" y="1017" on="0"/>
        <pt x="767" y="1103" on="0"/>
        <pt x="719" y="1137" on="0"/>
        <pt x="685" y="1137" on="1"/>
        <pt x="647" y="1137" on="0"/>
        <pt x="596" y="1091" on="0"/>
        <pt x="565" y="1004" on="0"/>
        <pt x="552" y="881" on="0"/>
        <pt x="552" y="803" on="1"/>
        <pt x="509" y="803" on="0"/>
        <pt x="414" y="806" on="0"/>
        <pt x="321" y="818" on="0"/>
        <pt x="238" y="843" on="0"/>
        <pt x="174" y="886" on="0"/>
        <pt x="136" y="952" on="0"/>
        <pt x="136" y="999" on="1"/>
        <pt x="136" y="1065" on="0"/>
        <pt x="205" y="1183" on="0"/>
        <pt x="348" y="1272" on="0"/>
        <pt x="568" y="1325" on="0"/>
        <pt x="720" y="1325" on="1"/>
        <pt x="829" y="1325" on="0"/>
        <pt x="981" y="1285" on="0"/>
        <pt x="1028" y="1262" on="1"/>
        <pt x="1083" y="1235" on="0"/>
        <pt x="1117" y="1200" on="1"/>
        <pt x="1168" y="1235" on="0"/>
        <pt x="1229" y="1262" on="1"/>
        <pt x="1281" y="1285" on="0"/>
        <pt x="1421" y="1325" on="0"/>
      </contour>
      <contour>
        <pt x="715" y="205" on="1"/>
        <pt x="748" y="205" on="0"/>
        <pt x="788" y="226" on="0"/>
        <pt x="811" y="265" on="0"/>
        <pt x="818" y="322" on="0"/>
        <pt x="818" y="358" on="1"/>
        <pt x="818" y="389" on="0"/>
        <pt x="816" y="485" on="0"/>
        <pt x="815" y="531" on="1"/>
        <pt x="813" y="585" on="0"/>
        <pt x="812" y="643" on="1"/>
        <pt x="798" y="645" on="0"/>
        <pt x="773" y="647" on="0"/>
        <pt x="760" y="647" on="1"/>
        <pt x="709" y="647" on="0"/>
        <pt x="640" y="606" on="0"/>
        <pt x="599" y="533" on="0"/>
        <pt x="582" y="434" on="0"/>
        <pt x="582" y="377" on="1"/>
        <pt x="582" y="342" on="0"/>
        <pt x="590" y="279" on="0"/>
        <pt x="618" y="232" on="0"/>
        <pt x="671" y="205" on="0"/>
      </contour>
      <contour>
        <pt x="1576" y="1069" on="1"/>
        <pt x="1544" y="1069" on="0"/>
        <pt x="1488" y="1040" on="0"/>
        <pt x="1447" y="980" on="0"/>
        <pt x="1424" y="887" on="0"/>
        <pt x="1424" y="823" on="1"/>
        <pt x="1744" y="823" on="1"/>
        <pt x="1744" y="893" on="0"/>
        <pt x="1722" y="988" on="0"/>
        <pt x="1679" y="1045" on="0"/>
        <pt x="1616" y="1069" on="0"/>
      </contour>
    </TTGlyph>
    <TTGlyph name="ae.sc" xMin="-18" yMin="0" xMax="2147" yMax="1389">
      <contour>
        <pt x="1869" y="735" on="1"/>
        <pt x="1869" y="687" on="0"/>
        <pt x="1847" y="597" on="0"/>
        <pt x="1801" y="526" on="0"/>
        <pt x="1727" y="483" on="0"/>
        <pt x="1676" y="483" on="1"/>
        <pt x="1650" y="483" on="0"/>
        <pt x="1614" y="531" on="0"/>
        <pt x="1583" y="589" on="0"/>
        <pt x="1552" y="640" on="0"/>
        <pt x="1531" y="643" on="1"/>
        <pt x="1488" y="649" on="1"/>
        <pt x="1488" y="221" on="1"/>
        <pt x="1748" y="221" on="1"/>
        <pt x="1785" y="356" on="1"/>
        <pt x="1799" y="408" on="0"/>
        <pt x="1841" y="480" on="0"/>
        <pt x="1893" y="525" on="0"/>
        <pt x="1952" y="545" on="0"/>
        <pt x="1983" y="545" on="1"/>
        <pt x="2056" y="545" on="0"/>
        <pt x="2147" y="453" on="0"/>
        <pt x="2147" y="373" on="1"/>
        <pt x="2147" y="317" on="0"/>
        <pt x="2113" y="187" on="0"/>
        <pt x="2045" y="75" on="0"/>
        <pt x="1942" y="0" on="0"/>
        <pt x="1873" y="0" on="1"/>
        <pt x="1058" y="0" on="1"/>
        <pt x="870" y="0" on="0"/>
        <pt x="669" y="81" on="0"/>
        <pt x="669" y="170" on="1"/>
        <pt x="669" y="209" on="0"/>
        <pt x="692" y="251" on="0"/>
        <pt x="726" y="272" on="0"/>
        <pt x="765" y="279" on="0"/>
        <pt x="799" y="290" on="0"/>
        <pt x="822" y="311" on="0"/>
        <pt x="822" y="336" on="1"/>
        <pt x="822" y="416" on="1"/>
        <pt x="497" y="416" on="1"/>
        <pt x="494" y="407" on="0"/>
        <pt x="478" y="370" on="0"/>
        <pt x="461" y="334" on="0"/>
        <pt x="447" y="309" on="0"/>
        <pt x="447" y="311" on="1"/>
        <pt x="447" y="294" on="0"/>
        <pt x="473" y="281" on="0"/>
        <pt x="505" y="271" on="0"/>
        <pt x="531" y="254" on="0"/>
        <pt x="531" y="233" on="1"/>
        <pt x="531" y="186" on="0"/>
        <pt x="476" y="102" on="0"/>
        <pt x="385" y="38" on="0"/>
        <pt x="267" y="0" on="0"/>
        <pt x="204" y="0" on="1"/>
        <pt x="148" y="0" on="0"/>
        <pt x="65" y="25" on="0"/>
        <pt x="10" y="69" on="0"/>
        <pt x="-18" y="129" on="0"/>
        <pt x="-18" y="164" on="1"/>
        <pt x="-18" y="210" on="0"/>
        <pt x="1" y="254" on="0"/>
        <pt x="35" y="274" on="0"/>
        <pt x="79" y="281" on="0"/>
        <pt x="129" y="299" on="0"/>
        <pt x="181" y="338" on="0"/>
        <pt x="206" y="381" on="1"/>
        <pt x="316" y="571" on="0"/>
        <pt x="403" y="722" on="1"/>
        <pt x="440" y="786" on="0"/>
        <pt x="511" y="910" on="0"/>
        <pt x="567" y="1009" on="0"/>
        <pt x="601" y="1071" on="0"/>
        <pt x="601" y="1073" on="1"/>
        <pt x="601" y="1090" on="0"/>
        <pt x="579" y="1105" on="0"/>
        <pt x="553" y="1116" on="0"/>
        <pt x="531" y="1131" on="0"/>
        <pt x="531" y="1149" on="1"/>
        <pt x="531" y="1201" on="0"/>
        <pt x="596" y="1277" on="0"/>
        <pt x="698" y="1331" on="0"/>
        <pt x="825" y="1364" on="0"/>
        <pt x="950" y="1382" on="0"/>
        <pt x="1059" y="1389" on="0"/>
        <pt x="1092" y="1389" on="1"/>
        <pt x="1863" y="1389" on="1"/>
        <pt x="1929" y="1389" on="0"/>
        <pt x="2027" y="1321" on="0"/>
        <pt x="2091" y="1218" on="0"/>
        <pt x="2123" y="1096" on="0"/>
        <pt x="2123" y="1042" on="1"/>
        <pt x="2123" y="1004" on="0"/>
        <pt x="2099" y="948" on="0"/>
        <pt x="2057" y="912" on="0"/>
        <pt x="1999" y="895" on="0"/>
        <pt x="1965" y="895" on="1"/>
        <pt x="1936" y="895" on="0"/>
        <pt x="1877" y="919" on="0"/>
        <pt x="1823" y="968" on="0"/>
        <pt x="1779" y="1042" on="0"/>
        <pt x="1766" y="1092" on="1"/>
        <pt x="1742" y="1182" on="1"/>
        <pt x="1488" y="1182" on="1"/>
        <pt x="1488" y="821" on="1"/>
        <pt x="1531" y="827" on="1"/>
        <pt x="1545" y="829" on="0"/>
        <pt x="1568" y="855" on="0"/>
        <pt x="1589" y="890" on="0"/>
        <pt x="1609" y="930" on="0"/>
        <pt x="1632" y="965" on="0"/>
        <pt x="1659" y="987" on="0"/>
        <pt x="1676" y="987" on="1"/>
        <pt x="1727" y="987" on="0"/>
        <pt x="1801" y="944" on="0"/>
        <pt x="1847" y="873" on="0"/>
        <pt x="1869" y="783" on="0"/>
      </contour>
      <contour>
        <pt x="591" y="578" on="1"/>
        <pt x="822" y="578" on="1"/>
        <pt x="822" y="999" on="1"/>
      </contour>
    </TTGlyph>
    <TTGlyph name="afii00208" xMin="52" yMin="446" xMax="1800" yMax="788">
      <contour>
        <pt x="52" y="617" on="1"/>
        <pt x="52" y="669" on="0"/>
        <pt x="86" y="735" on="0"/>
        <pt x="136" y="773" on="0"/>
        <pt x="195" y="788" on="0"/>
        <pt x="221" y="788" on="1"/>
        <pt x="1632" y="788" on="1"/>
        <pt x="1660" y="788" on="0"/>
        <pt x="1719" y="773" on="0"/>
        <pt x="1768" y="735" on="0"/>
        <pt x="1800" y="669" on="0"/>
        <pt x="1800" y="617" on="1"/>
        <pt x="1800" y="565" on="0"/>
        <pt x="1768" y="499" on="0"/>
        <pt x="1719" y="461" on="0"/>
        <pt x="1660" y="446" on="0"/>
        <pt x="1632" y="446" on="1"/>
        <pt x="221" y="446" on="1"/>
        <pt x="195" y="446" on="0"/>
        <pt x="136" y="461" on="0"/>
        <pt x="86" y="499" on="0"/>
        <pt x="52" y="565" on="0"/>
      </contour>
    </TTGlyph>
    <TTGlyph name="agrave" xMin="40" yMin="-25" xMax="1551" yMax="2284">
      <component glyphName="a" x="0" y="0" flags="0x1204"/>
      <component glyphName="grave" x="95" y="1393" flags="0x1004"/>
    </TTGlyph>
    <TTGlyph name="agrave.sc" xMin="-13" yMin="0" xMax="1554" yMax="2304">
      <component glyphName="a.sc" x="0" y="0" flags="0x1204"/>
      <component glyphName="grave" x="189" y="1413" flags="0x1004"/>
    </TTGlyph>
    <TTGlyph name="amacron" xMin="40" yMin="-25" xMax="1551" yMax="1897">
      <component glyphName="a" x="0" y="0" flags="0x1204"/>
      <component glyphName="macron" x="132" y="1393" flags="0x1004"/>
    </TTGlyph>
    <TTGlyph name="amacron.sc" xMin="-13" yMin="0" xMax="1554" yMax="1946">
      <component glyphName="a.sc" x="0" y="0" flags="0x1204"/>
      <component glyphName="macron" x="138" y="1442" flags="0x1004"/>
    </TTGlyph>
    <TTGlyph name="ampersand" xMin="46" yMin="-49" xMax="2153" yMax="1665">
      <contour>
        <pt x="2153" y="1354" on="1"/>
        <pt x="2133" y="1255" on="0"/>
        <pt x="2054" y="1092" on="0"/>
        <pt x="1949" y="964" on="0"/>
        <pt x="1826" y="873" on="0"/>
        <pt x="1762" y="846" on="1"/>
        <pt x="1854" y="643" on="0"/>
        <pt x="1854" y="483" on="1"/>
        <pt x="1854" y="392" on="0"/>
        <pt x="1783" y="242" on="0"/>
        <pt x="1659" y="124" on="0"/>
        <pt x="1488" y="37" on="0"/>
        <pt x="1289" y="-21" on="0"/>
        <pt x="1068" y="-49" on="0"/>
        <pt x="955" y="-49" on="1"/>
        <pt x="842" y="-49" on="0"/>
        <pt x="619" y="-20" on="0"/>
        <pt x="417" y="40" on="0"/>
        <pt x="245" y="133" on="0"/>
        <pt x="118" y="260" on="0"/>
        <pt x="46" y="423" on="0"/>
        <pt x="46" y="524" on="1"/>
        <pt x="46" y="588" on="0"/>
        <pt x="76" y="717" on="0"/>
        <pt x="133" y="837" on="0"/>
        <pt x="215" y="947" on="0"/>
        <pt x="267" y="993" on="1"/>
        <pt x="192" y="1041" on="0"/>
        <pt x="120" y="1173" on="0"/>
        <pt x="120" y="1245" on="1"/>
        <pt x="120" y="1321" on="0"/>
        <pt x="199" y="1471" on="0"/>
        <pt x="355" y="1591" on="0"/>
        <pt x="589" y="1665" on="0"/>
        <pt x="744" y="1665" on="1"/>
        <pt x="779" y="1665" on="0"/>
        <pt x="871" y="1653" on="0"/>
        <pt x="968" y="1629" on="0"/>
        <pt x="1061" y="1590" on="0"/>
        <pt x="1133" y="1537" on="0"/>
        <pt x="1178" y="1468" on="0"/>
        <pt x="1178" y="1425" on="1"/>
        <pt x="1178" y="1415" on="0"/>
        <pt x="1172" y="1392" on="0"/>
        <pt x="1157" y="1372" on="0"/>
        <pt x="1134" y="1358" on="0"/>
        <pt x="1117" y="1358" on="1"/>
        <pt x="1109" y="1358" on="0"/>
        <pt x="1097" y="1359" on="0"/>
        <pt x="1090" y="1364" on="1"/>
        <pt x="1047" y="1386" on="0"/>
        <pt x="962" y="1413" on="0"/>
        <pt x="924" y="1413" on="1"/>
        <pt x="890" y="1413" on="0"/>
        <pt x="835" y="1371" on="0"/>
        <pt x="795" y="1305" on="0"/>
        <pt x="773" y="1222" on="0"/>
        <pt x="773" y="1182" on="1"/>
        <pt x="773" y="1154" on="0"/>
        <pt x="785" y="1103" on="0"/>
        <pt x="809" y="1062" on="0"/>
        <pt x="847" y="1034" on="0"/>
        <pt x="873" y="1030" on="1"/>
        <pt x="896" y="1015" on="0"/>
        <pt x="918" y="986" on="0"/>
        <pt x="918" y="965" on="1"/>
        <pt x="918" y="915" on="0"/>
        <pt x="862" y="854" on="0"/>
        <pt x="816" y="854" on="1"/>
        <pt x="790" y="854" on="0"/>
        <pt x="751" y="818" on="0"/>
        <pt x="725" y="757" on="0"/>
        <pt x="711" y="674" on="0"/>
        <pt x="711" y="627" on="1"/>
        <pt x="711" y="579" on="0"/>
        <pt x="734" y="478" on="0"/>
        <pt x="776" y="383" on="0"/>
        <pt x="837" y="298" on="0"/>
        <pt x="914" y="234" on="0"/>
        <pt x="1005" y="197" on="0"/>
        <pt x="1056" y="197" on="1"/>
        <pt x="1140" y="197" on="0"/>
        <pt x="1250" y="244" on="0"/>
        <pt x="1315" y="326" on="0"/>
        <pt x="1342" y="434" on="0"/>
        <pt x="1342" y="496" on="1"/>
        <pt x="1342" y="544" on="0"/>
        <pt x="1328" y="645" on="0"/>
        <pt x="1307" y="744" on="0"/>
        <pt x="1282" y="838" on="0"/>
        <pt x="1271" y="879" on="1"/>
        <pt x="1217" y="879" on="0"/>
        <pt x="1135" y="853" on="0"/>
        <pt x="1113" y="819" on="1"/>
        <pt x="1094" y="789" on="0"/>
        <pt x="1070" y="749" on="0"/>
        <pt x="1056" y="725" on="0"/>
        <pt x="1051" y="714" on="0"/>
        <pt x="1051" y="713" on="1"/>
        <pt x="929" y="807" on="1"/>
        <pt x="956" y="941" on="0"/>
        <pt x="1082" y="1145" on="0"/>
        <pt x="1241" y="1282" on="0"/>
        <pt x="1416" y="1352" on="0"/>
        <pt x="1494" y="1352" on="1"/>
        <pt x="1542" y="1352" on="0"/>
        <pt x="1629" y="1331" on="0"/>
        <pt x="1712" y="1305" on="0"/>
        <pt x="1791" y="1284" on="0"/>
        <pt x="1832" y="1284" on="1"/>
        <pt x="1851" y="1284" on="0"/>
        <pt x="1891" y="1289" on="0"/>
        <pt x="1927" y="1302" on="0"/>
        <pt x="1958" y="1324" on="0"/>
        <pt x="1969" y="1341" on="1"/>
        <pt x="1992" y="1377" on="0"/>
        <pt x="2017" y="1417" on="0"/>
        <pt x="2029" y="1438" on="0"/>
        <pt x="2032" y="1446" on="0"/>
        <pt x="2034" y="1448" on="1"/>
      </contour>
    </TTGlyph>
    <TTGlyph name="aogonek" xMin="40" yMin="-701" xMax="1551" yMax="1325">
      <component glyphName="a" x="0" y="0" flags="0x1004"/>
      <component glyphName="ogonek" x="830" y="0" flags="0x1004"/>
    </TTGlyph>
    <TTGlyph name="aogonek.sc" xMin="-13" yMin="-701" xMax="1554" yMax="1389">
      <component glyphName="a.sc" x="0" y="0" flags="0x1204"/>
      <component glyphName="ogonek" x="797" y="0" flags="0x1004"/>
    </TTGlyph>
    <TTGlyph name="aring" xMin="40" yMin="-25" xMax="1551" yMax="2251">
      <component glyphName="a" x="0" y="0" flags="0x1204"/>
      <component glyphName="ring" x="307" y="1393" flags="0x1004"/>
    </TTGlyph>
    <TTGlyph name="aring.sc" xMin="-13" yMin="0" xMax="1554" yMax="2283">
      <component glyphName="a.sc" x="0" y="0" flags="0x1204"/>
      <component glyphName="ring" x="275" y="1425" flags="0x1004"/>
    </TTGlyph>
    <TTGlyph name="asciicircum" xMin="25" yMin="679" xMax="1021" yMax="1591">
      <contour>
        <pt x="523" y="1591" on="1"/>
        <pt x="586" y="1591" on="0"/>
        <pt x="672" y="1549" on="0"/>
        <pt x="745" y="1449" on="0"/>
        <pt x="820" y="1283" on="0"/>
        <pt x="872" y="1160" on="1"/>
        <pt x="1009" y="834" on="1"/>
        <pt x="1016" y="818" on="0"/>
        <pt x="1021" y="790" on="0"/>
        <pt x="1021" y="777" on="1"/>
        <pt x="1021" y="753" on="0"/>
        <pt x="1004" y="716" on="0"/>
        <pt x="975" y="692" on="0"/>
        <pt x="939" y="679" on="0"/>
        <pt x="920" y="679" on="1"/>
        <pt x="895" y="679" on="0"/>
        <pt x="858" y="691" on="0"/>
        <pt x="817" y="727" on="0"/>
        <pt x="766" y="791" on="0"/>
        <pt x="727" y="843" on="1"/>
        <pt x="523" y="1163" on="1"/>
        <pt x="319" y="843" on="1"/>
        <pt x="280" y="791" on="0"/>
        <pt x="228" y="727" on="0"/>
        <pt x="188" y="691" on="0"/>
        <pt x="151" y="679" on="0"/>
        <pt x="126" y="679" on="1"/>
        <pt x="107" y="679" on="0"/>
        <pt x="71" y="692" on="0"/>
        <pt x="42" y="716" on="0"/>
        <pt x="25" y="753" on="0"/>
        <pt x="25" y="777" on="1"/>
        <pt x="25" y="790" on="0"/>
        <pt x="30" y="818" on="0"/>
        <pt x="37" y="834" on="1"/>
        <pt x="174" y="1160" on="1"/>
        <pt x="226" y="1283" on="0"/>
        <pt x="301" y="1449" on="0"/>
        <pt x="374" y="1549" on="0"/>
        <pt x="460" y="1591" on="0"/>
      </contour>
    </TTGlyph>
    <TTGlyph name="asciitilde" xMin="27" yMin="737" xMax="1391" yMax="1311">
      <contour>
        <pt x="1391" y="1186" on="1"/>
        <pt x="1356" y="1057" on="0"/>
        <pt x="1263" y="889" on="0"/>
        <pt x="1151" y="791" on="0"/>
        <pt x="1024" y="752" on="0"/>
        <pt x="955" y="752" on="1"/>
        <pt x="879" y="752" on="0"/>
        <pt x="717" y="786" on="0"/>
        <pt x="554" y="828" on="0"/>
        <pt x="391" y="862" on="0"/>
        <pt x="313" y="862" on="1"/>
        <pt x="279" y="862" on="0"/>
        <pt x="218" y="850" on="0"/>
        <pt x="172" y="821" on="0"/>
        <pt x="145" y="775" on="0"/>
        <pt x="145" y="741" on="1"/>
        <pt x="145" y="737" on="0"/>
        <pt x="149" y="737" on="1"/>
        <pt x="27" y="860" on="1"/>
        <pt x="70" y="989" on="0"/>
        <pt x="167" y="1157" on="0"/>
        <pt x="273" y="1256" on="0"/>
        <pt x="389" y="1295" on="0"/>
        <pt x="452" y="1295" on="1"/>
        <pt x="524" y="1295" on="0"/>
        <pt x="680" y="1258" on="0"/>
        <pt x="850" y="1215" on="0"/>
        <pt x="1035" y="1178" on="0"/>
        <pt x="1134" y="1178" on="1"/>
        <pt x="1164" y="1178" on="0"/>
        <pt x="1214" y="1191" on="0"/>
        <pt x="1250" y="1221" on="0"/>
        <pt x="1270" y="1269" on="0"/>
        <pt x="1270" y="1304" on="1"/>
        <pt x="1270" y="1309" on="0"/>
        <pt x="1268" y="1311" on="1"/>
      </contour>
    </TTGlyph>
    <TTGlyph name="asterisk" xMin="44" yMin="-39" xMax="2011" yMax="1970">
      <contour>
        <pt x="1032" y="604" on="1"/>
        <pt x="1004" y="529" on="0"/>
        <pt x="972" y="452" on="1"/>
        <pt x="945" y="386" on="0"/>
        <pt x="876" y="228" on="0"/>
        <pt x="841" y="156" on="1"/>
        <pt x="820" y="114" on="0"/>
        <pt x="774" y="43" on="0"/>
        <pt x="718" y="-9" on="0"/>
        <pt x="653" y="-39" on="0"/>
        <pt x="614" y="-39" on="1"/>
        <pt x="578" y="-39" on="0"/>
        <pt x="500" y="-11" on="0"/>
        <pt x="424" y="37" on="0"/>
        <pt x="356" y="99" on="0"/>
        <pt x="304" y="165" on="0"/>
        <pt x="274" y="233" on="0"/>
        <pt x="274" y="262" on="1"/>
        <pt x="274" y="321" on="0"/>
        <pt x="347" y="433" on="0"/>
        <pt x="403" y="481" on="1"/>
        <pt x="440" y="512" on="0"/>
        <pt x="521" y="583" on="0"/>
        <pt x="599" y="653" on="0"/>
        <pt x="671" y="717" on="0"/>
        <pt x="725" y="767" on="0"/>
        <pt x="757" y="796" on="0"/>
        <pt x="757" y="797" on="1"/>
        <pt x="683" y="803" on="0"/>
        <pt x="606" y="812" on="1"/>
        <pt x="540" y="819" on="0"/>
        <pt x="383" y="838" on="0"/>
        <pt x="309" y="849" on="1"/>
        <pt x="253" y="857" on="0"/>
        <pt x="157" y="888" on="0"/>
        <pt x="85" y="941" on="0"/>
        <pt x="44" y="1019" on="0"/>
        <pt x="44" y="1073" on="1"/>
        <pt x="44" y="1105" on="0"/>
        <pt x="58" y="1180" on="0"/>
        <pt x="73" y="1225" on="1"/>
        <pt x="111" y="1335" on="0"/>
        <pt x="226" y="1432" on="0"/>
        <pt x="292" y="1432" on="1"/>
        <pt x="321" y="1432" on="0"/>
        <pt x="400" y="1409" on="0"/>
        <pt x="488" y="1372" on="0"/>
        <pt x="582" y="1325" on="0"/>
        <pt x="627" y="1301" on="1"/>
        <pt x="732" y="1244" on="0"/>
        <pt x="845" y="1171" on="1"/>
        <pt x="831" y="1250" on="0"/>
        <pt x="817" y="1331" on="1"/>
        <pt x="811" y="1365" on="0"/>
        <pt x="797" y="1442" on="0"/>
        <pt x="782" y="1519" on="0"/>
        <pt x="766" y="1595" on="0"/>
        <pt x="759" y="1630" on="1"/>
        <pt x="753" y="1658" on="0"/>
        <pt x="745" y="1715" on="0"/>
        <pt x="745" y="1741" on="1"/>
        <pt x="745" y="1789" on="0"/>
        <pt x="773" y="1873" on="0"/>
        <pt x="839" y="1935" on="0"/>
        <pt x="947" y="1970" on="0"/>
        <pt x="1027" y="1970" on="1"/>
        <pt x="1107" y="1970" on="0"/>
        <pt x="1215" y="1935" on="0"/>
        <pt x="1281" y="1873" on="0"/>
        <pt x="1310" y="1789" on="0"/>
        <pt x="1310" y="1741" on="1"/>
        <pt x="1310" y="1715" on="0"/>
        <pt x="1302" y="1658" on="0"/>
        <pt x="1296" y="1630" on="1"/>
        <pt x="1288" y="1595" on="0"/>
        <pt x="1273" y="1519" on="0"/>
        <pt x="1258" y="1442" on="0"/>
        <pt x="1244" y="1365" on="0"/>
        <pt x="1238" y="1331" on="1"/>
        <pt x="1224" y="1250" on="0"/>
        <pt x="1210" y="1171" on="1"/>
        <pt x="1322" y="1244" on="0"/>
        <pt x="1427" y="1301" on="1"/>
        <pt x="1471" y="1325" on="0"/>
        <pt x="1565" y="1372" on="0"/>
        <pt x="1654" y="1409" on="0"/>
        <pt x="1733" y="1432" on="0"/>
        <pt x="1763" y="1432" on="1"/>
        <pt x="1829" y="1432" on="0"/>
        <pt x="1942" y="1335" on="0"/>
        <pt x="1981" y="1225" on="1"/>
        <pt x="1997" y="1180" on="0"/>
        <pt x="2011" y="1105" on="0"/>
        <pt x="2011" y="1073" on="1"/>
        <pt x="2011" y="1019" on="0"/>
        <pt x="1969" y="941" on="0"/>
        <pt x="1897" y="888" on="0"/>
        <pt x="1801" y="857" on="0"/>
        <pt x="1746" y="849" on="1"/>
        <pt x="1672" y="838" on="0"/>
        <pt x="1514" y="819" on="0"/>
        <pt x="1448" y="812" on="1"/>
        <pt x="1371" y="803" on="0"/>
        <pt x="1298" y="797" on="1"/>
        <pt x="1298" y="796" on="0"/>
        <pt x="1330" y="767" on="0"/>
        <pt x="1384" y="717" on="0"/>
        <pt x="1455" y="653" on="0"/>
        <pt x="1533" y="583" on="0"/>
        <pt x="1615" y="512" on="0"/>
        <pt x="1652" y="481" on="1"/>
        <pt x="1708" y="433" on="0"/>
        <pt x="1781" y="321" on="0"/>
        <pt x="1781" y="262" on="1"/>
        <pt x="1781" y="233" on="0"/>
        <pt x="1751" y="165" on="0"/>
        <pt x="1699" y="99" on="0"/>
        <pt x="1631" y="37" on="0"/>
        <pt x="1555" y="-11" on="0"/>
        <pt x="1475" y="-39" on="0"/>
        <pt x="1439" y="-39" on="1"/>
        <pt x="1392" y="-39" on="0"/>
        <pt x="1309" y="17" on="0"/>
        <pt x="1237" y="107" on="0"/>
        <pt x="1176" y="224" on="0"/>
        <pt x="1125" y="344" on="0"/>
        <pt x="1085" y="460" on="0"/>
        <pt x="1056" y="550" on="0"/>
        <pt x="1036" y="605" on="0"/>
      </contour>
    </TTGlyph>
    <TTGlyph name="at" xMin="51" yMin="-483" xMax="3010" yMax="2089">
      <contour>
        <pt x="1540" y="438" on="1"/>
        <pt x="1574" y="438" on="0"/>
        <pt x="1642" y="464" on="0"/>
        <pt x="1667" y="479" on="1"/>
        <pt x="1666" y="487" on="0"/>
        <pt x="1666" y="507" on="0"/>
        <pt x="1665" y="553" on="0"/>
        <pt x="1665" y="634" on="0"/>
        <pt x="1665" y="772" on="0"/>
        <pt x="1665" y="976" on="0"/>
        <pt x="1665" y="1122" on="1"/>
        <pt x="1637" y="1139" on="0"/>
        <pt x="1565" y="1171" on="0"/>
        <pt x="1528" y="1171" on="1"/>
        <pt x="1488" y="1171" on="0"/>
        <pt x="1437" y="1134" on="0"/>
        <pt x="1407" y="1047" on="0"/>
        <pt x="1396" y="903" on="0"/>
        <pt x="1396" y="795" on="1"/>
        <pt x="1396" y="730" on="0"/>
        <pt x="1404" y="602" on="0"/>
        <pt x="1434" y="501" on="0"/>
        <pt x="1491" y="438" on="0"/>
      </contour>
      <contour>
        <pt x="2003" y="240" on="1"/>
        <pt x="1929" y="240" on="0"/>
        <pt x="1822" y="256" on="0"/>
        <pt x="1748" y="285" on="0"/>
        <pt x="1703" y="326" on="0"/>
        <pt x="1691" y="352" on="1"/>
        <pt x="1670" y="331" on="0"/>
        <pt x="1604" y="284" on="0"/>
        <pt x="1512" y="245" on="0"/>
        <pt x="1391" y="219" on="0"/>
        <pt x="1315" y="219" on="1"/>
        <pt x="1226" y="219" on="0"/>
        <pt x="1091" y="268" on="0"/>
        <pt x="992" y="352" on="0"/>
        <pt x="925" y="465" on="0"/>
        <pt x="885" y="594" on="0"/>
        <pt x="868" y="732" on="0"/>
        <pt x="868" y="799" on="1"/>
        <pt x="868" y="867" on="0"/>
        <pt x="889" y="1008" on="0"/>
        <pt x="934" y="1140" on="0"/>
        <pt x="1007" y="1256" on="0"/>
        <pt x="1112" y="1343" on="0"/>
        <pt x="1250" y="1393" on="0"/>
        <pt x="1339" y="1393" on="1"/>
        <pt x="1408" y="1393" on="0"/>
        <pt x="1518" y="1370" on="0"/>
        <pt x="1603" y="1334" on="0"/>
        <pt x="1664" y="1289" on="0"/>
        <pt x="1685" y="1268" on="1"/>
        <pt x="1696" y="1296" on="0"/>
        <pt x="1732" y="1343" on="0"/>
        <pt x="1789" y="1376" on="0"/>
        <pt x="1871" y="1395" on="0"/>
        <pt x="1927" y="1395" on="1"/>
        <pt x="2012" y="1395" on="0"/>
        <pt x="2117" y="1380" on="0"/>
        <pt x="2176" y="1342" on="0"/>
        <pt x="2196" y="1280" on="0"/>
        <pt x="2196" y="1233" on="1"/>
        <pt x="2196" y="1230" on="0"/>
        <pt x="2196" y="1218" on="0"/>
        <pt x="2196" y="1178" on="0"/>
        <pt x="2196" y="1099" on="0"/>
        <pt x="2196" y="958" on="0"/>
        <pt x="2195" y="746" on="0"/>
        <pt x="2195" y="592" on="1"/>
        <pt x="2195" y="554" on="0"/>
        <pt x="2219" y="518" on="0"/>
        <pt x="2236" y="518" on="1"/>
        <pt x="2295" y="518" on="0"/>
        <pt x="2381" y="593" on="0"/>
        <pt x="2437" y="720" on="0"/>
        <pt x="2464" y="889" on="0"/>
        <pt x="2464" y="983" on="1"/>
        <pt x="2464" y="1084" on="0"/>
        <pt x="2397" y="1254" on="0"/>
        <pt x="2279" y="1392" on="0"/>
        <pt x="2117" y="1497" on="0"/>
        <pt x="1926" y="1568" on="0"/>
        <pt x="1714" y="1604" on="0"/>
        <pt x="1605" y="1604" on="1"/>
        <pt x="1487" y="1604" on="0"/>
        <pt x="1253" y="1561" on="0"/>
        <pt x="1039" y="1475" on="0"/>
        <pt x="855" y="1343" on="0"/>
        <pt x="720" y="1166" on="0"/>
        <pt x="643" y="941" on="0"/>
        <pt x="643" y="805" on="1"/>
        <pt x="643" y="606" on="0"/>
        <pt x="783" y="305" on="0"/>
        <pt x="1030" y="104" on="0"/>
        <pt x="1370" y="2" on="0"/>
        <pt x="1571" y="2" on="1"/>
        <pt x="1710" y="2" on="0"/>
        <pt x="2011" y="51" on="0"/>
        <pt x="2169" y="102" on="1"/>
        <pt x="2423" y="-291" on="1"/>
        <pt x="2236" y="-385" on="0"/>
        <pt x="1799" y="-483" on="0"/>
        <pt x="1569" y="-483" on="1"/>
        <pt x="1318" y="-483" on="0"/>
        <pt x="898" y="-383" on="0"/>
        <pt x="561" y="-206" on="0"/>
        <pt x="306" y="36" on="0"/>
        <pt x="136" y="320" on="0"/>
        <pt x="51" y="633" on="0"/>
        <pt x="51" y="793" on="1"/>
        <pt x="51" y="955" on="0"/>
        <pt x="139" y="1273" on="0"/>
        <pt x="315" y="1561" on="0"/>
        <pt x="580" y="1807" on="0"/>
        <pt x="936" y="1987" on="0"/>
        <pt x="1383" y="2089" on="0"/>
        <pt x="1652" y="2089" on="1"/>
        <pt x="1881" y="2089" on="0"/>
        <pt x="2260" y="2007" on="0"/>
        <pt x="2562" y="1863" on="0"/>
        <pt x="2787" y="1667" on="0"/>
        <pt x="2936" y="1440" on="0"/>
        <pt x="3010" y="1191" on="0"/>
        <pt x="3010" y="1067" on="1"/>
        <pt x="3010" y="955" on="0"/>
        <pt x="2957" y="745" on="0"/>
        <pt x="2850" y="561" on="0"/>
        <pt x="2685" y="409" on="0"/>
        <pt x="2462" y="300" on="0"/>
        <pt x="2177" y="240" on="0"/>
      </contour>
    </TTGlyph>
    <TTGlyph name="atilde" xMin="40" yMin="-25" xMax="1551" yMax="2100">
      <component glyphName="a" x="0" y="0" flags="0x1204"/>
      <component glyphName="tilde" x="85" y="1393" flags="0x1004"/>
    </TTGlyph>
    <TTGlyph name="atilde.sc" xMin="-13" yMin="0" xMax="1554" yMax="2073">
      <component glyphName="a.sc" x="0" y="0" flags="0x1204"/>
      <component glyphName="tilde" x="146" y="1366" flags="0x1004"/>
    </TTGlyph>
    <TTGlyph name="b" xMin="58" yMin="-25" xMax="1736" yMax="1886">
      <contour>
        <pt x="818" y="1196" on="1"/>
        <pt x="846" y="1219" on="0"/>
        <pt x="921" y="1265" on="0"/>
        <pt x="1019" y="1302" on="0"/>
        <pt x="1143" y="1325" on="0"/>
        <pt x="1220" y="1325" on="1"/>
        <pt x="1321" y="1325" on="0"/>
        <pt x="1476" y="1267" on="0"/>
        <pt x="1591" y="1168" on="0"/>
        <pt x="1669" y="1034" on="0"/>
        <pt x="1716" y="882" on="0"/>
        <pt x="1736" y="720" on="0"/>
        <pt x="1736" y="641" on="1"/>
        <pt x="1736" y="557" on="0"/>
        <pt x="1709" y="393" on="0"/>
        <pt x="1654" y="245" on="0"/>
        <pt x="1568" y="119" on="0"/>
        <pt x="1450" y="27" on="0"/>
        <pt x="1299" y="-25" on="0"/>
        <pt x="1205" y="-25" on="1"/>
        <pt x="1118" y="-25" on="0"/>
        <pt x="983" y="4" on="0"/>
        <pt x="880" y="48" on="0"/>
        <pt x="807" y="101" on="0"/>
        <pt x="783" y="125" on="1"/>
        <pt x="769" y="96" on="0"/>
        <pt x="725" y="49" on="0"/>
        <pt x="659" y="17" on="0"/>
        <pt x="566" y="0" on="0"/>
        <pt x="505" y="0" on="1"/>
        <pt x="397" y="0" on="0"/>
        <pt x="231" y="24" on="0"/>
        <pt x="117" y="77" on="0"/>
        <pt x="58" y="158" on="0"/>
        <pt x="58" y="215" on="1"/>
        <pt x="58" y="237" on="0"/>
        <pt x="80" y="256" on="0"/>
        <pt x="112" y="266" on="0"/>
        <pt x="150" y="274" on="0"/>
        <pt x="182" y="297" on="0"/>
        <pt x="204" y="340" on="0"/>
        <pt x="204" y="381" on="1"/>
        <pt x="204" y="1505" on="1"/>
        <pt x="204" y="1546" on="0"/>
        <pt x="182" y="1589" on="0"/>
        <pt x="150" y="1612" on="0"/>
        <pt x="112" y="1620" on="0"/>
        <pt x="80" y="1630" on="0"/>
        <pt x="58" y="1649" on="0"/>
        <pt x="58" y="1671" on="1"/>
        <pt x="58" y="1728" on="0"/>
        <pt x="117" y="1809" on="0"/>
        <pt x="231" y="1862" on="0"/>
        <pt x="397" y="1886" on="0"/>
        <pt x="505" y="1886" on="1"/>
        <pt x="613" y="1886" on="0"/>
        <pt x="738" y="1864" on="0"/>
        <pt x="802" y="1811" on="0"/>
        <pt x="820" y="1721" on="0"/>
        <pt x="820" y="1653" on="1"/>
      </contour>
      <contour>
        <pt x="937" y="1069" on="1"/>
        <pt x="902" y="1069" on="0"/>
        <pt x="841" y="1045" on="0"/>
        <pt x="816" y="1028" on="1"/>
        <pt x="816" y="385" on="1"/>
        <pt x="816" y="356" on="0"/>
        <pt x="816" y="300" on="0"/>
        <pt x="814" y="274" on="1"/>
        <pt x="842" y="257" on="0"/>
        <pt x="912" y="229" on="0"/>
        <pt x="955" y="229" on="1"/>
        <pt x="1011" y="229" on="0"/>
        <pt x="1072" y="268" on="0"/>
        <pt x="1100" y="362" on="0"/>
        <pt x="1105" y="519" on="0"/>
        <pt x="1105" y="637" on="1"/>
        <pt x="1105" y="761" on="0"/>
        <pt x="1087" y="928" on="0"/>
        <pt x="1047" y="1027" on="0"/>
        <pt x="983" y="1069" on="0"/>
      </contour>
    </TTGlyph>
    <TTGlyph name="b.sc" xMin="53" yMin="0" xMax="1622" yMax="1389">
      <contour>
        <pt x="912" y="797" on="1"/>
        <pt x="944" y="797" on="0"/>
        <pt x="984" y="822" on="0"/>
        <pt x="1006" y="870" on="0"/>
        <pt x="1014" y="940" on="0"/>
        <pt x="1014" y="985" on="1"/>
        <pt x="1014" y="1033" on="0"/>
        <pt x="1002" y="1110" on="0"/>
        <pt x="972" y="1162" on="0"/>
        <pt x="919" y="1190" on="0"/>
        <pt x="879" y="1190" on="1"/>
        <pt x="849" y="1190" on="0"/>
        <pt x="816" y="1166" on="0"/>
        <pt x="800" y="1127" on="0"/>
        <pt x="797" y="1076" on="0"/>
        <pt x="797" y="1049" on="1"/>
        <pt x="797" y="797" on="1"/>
      </contour>
      <contour>
        <pt x="797" y="621" on="1"/>
        <pt x="797" y="371" on="1"/>
        <pt x="797" y="342" on="0"/>
        <pt x="800" y="290" on="0"/>
        <pt x="816" y="251" on="0"/>
        <pt x="849" y="227" on="0"/>
        <pt x="879" y="227" on="1"/>
        <pt x="919" y="227" on="0"/>
        <pt x="972" y="256" on="0"/>
        <pt x="1002" y="310" on="0"/>
        <pt x="1014" y="386" on="0"/>
        <pt x="1014" y="434" on="1"/>
        <pt x="1014" y="478" on="0"/>
        <pt x="1008" y="548" on="0"/>
        <pt x="987" y="597" on="0"/>
        <pt x="948" y="623" on="0"/>
        <pt x="916" y="623" on="1"/>
      </contour>
      <contour>
        <pt x="488" y="0" on="1"/>
        <pt x="384" y="0" on="0"/>
        <pt x="222" y="24" on="0"/>
        <pt x="111" y="77" on="0"/>
        <pt x="53" y="159" on="0"/>
        <pt x="53" y="217" on="1"/>
        <pt x="53" y="243" on="0"/>
        <pt x="73" y="267" on="0"/>
        <pt x="103" y="277" on="0"/>
        <pt x="139" y="283" on="0"/>
        <pt x="169" y="300" on="0"/>
        <pt x="189" y="337" on="0"/>
        <pt x="189" y="373" on="1"/>
        <pt x="189" y="1016" on="1"/>
        <pt x="189" y="1052" on="0"/>
        <pt x="169" y="1089" on="0"/>
        <pt x="139" y="1107" on="0"/>
        <pt x="103" y="1113" on="0"/>
        <pt x="73" y="1125" on="0"/>
        <pt x="53" y="1148" on="0"/>
        <pt x="53" y="1174" on="1"/>
        <pt x="53" y="1231" on="0"/>
        <pt x="111" y="1313" on="0"/>
        <pt x="222" y="1365" on="0"/>
        <pt x="384" y="1389" on="0"/>
        <pt x="488" y="1389" on="1"/>
        <pt x="942" y="1389" on="1"/>
        <pt x="1088" y="1389" on="0"/>
        <pt x="1297" y="1358" on="0"/>
        <pt x="1439" y="1305" on="0"/>
        <pt x="1523" y="1233" on="0"/>
        <pt x="1568" y="1149" on="0"/>
        <pt x="1581" y="1057" on="0"/>
        <pt x="1581" y="1012" on="1"/>
        <pt x="1581" y="950" on="0"/>
        <pt x="1546" y="860" on="0"/>
        <pt x="1488" y="795" on="0"/>
        <pt x="1412" y="755" on="0"/>
        <pt x="1370" y="743" on="1"/>
        <pt x="1422" y="732" on="0"/>
        <pt x="1513" y="685" on="0"/>
        <pt x="1582" y="606" on="0"/>
        <pt x="1622" y="488" on="0"/>
        <pt x="1622" y="406" on="1"/>
        <pt x="1622" y="323" on="0"/>
        <pt x="1553" y="175" on="0"/>
        <pt x="1382" y="64" on="0"/>
        <pt x="1095" y="0" on="0"/>
        <pt x="877" y="0" on="1"/>
      </contour>
    </TTGlyph>
    <TTGlyph name="backslash" xMin="38" yMin="-123" xMax="996" yMax="1997">
      <contour>
        <pt x="831" y="-115" on="1"/>
        <pt x="814" y="-120" on="0"/>
        <pt x="780" y="-123" on="0"/>
        <pt x="765" y="-123" on="1"/>
        <pt x="717" y="-123" on="0"/>
        <pt x="645" y="-91" on="0"/>
        <pt x="594" y="-41" on="0"/>
        <pt x="562" y="18" on="0"/>
        <pt x="554" y="45" on="1"/>
        <pt x="51" y="1731" on="1"/>
        <pt x="46" y="1749" on="0"/>
        <pt x="38" y="1788" on="0"/>
        <pt x="38" y="1808" on="1"/>
        <pt x="38" y="1837" on="0"/>
        <pt x="60" y="1904" on="0"/>
        <pt x="114" y="1960" on="0"/>
        <pt x="205" y="1997" on="0"/>
        <pt x="273" y="1997" on="1"/>
        <pt x="321" y="1997" on="0"/>
        <pt x="392" y="1966" on="0"/>
        <pt x="442" y="1918" on="0"/>
        <pt x="474" y="1858" on="0"/>
        <pt x="482" y="1829" on="1"/>
        <pt x="486" y="1815" on="0"/>
        <pt x="517" y="1709" on="0"/>
        <pt x="565" y="1547" on="0"/>
        <pt x="627" y="1341" on="0"/>
        <pt x="695" y="1113" on="0"/>
        <pt x="767" y="872" on="0"/>
        <pt x="835" y="642" on="0"/>
        <pt x="897" y="434" on="0"/>
        <pt x="946" y="270" on="0"/>
        <pt x="979" y="160" on="0"/>
        <pt x="984" y="143" on="1"/>
        <pt x="996" y="110" on="0"/>
        <pt x="996" y="70" on="1"/>
        <pt x="996" y="42" on="0"/>
        <pt x="981" y="-14" on="0"/>
        <pt x="943" y="-63" on="0"/>
        <pt x="879" y="-103" on="0"/>
      </contour>
    </TTGlyph>
    <TTGlyph name="bar" xMin="154" yMin="-301" xMax="596" yMax="1888">
      <contour>
        <pt x="375" y="-301" on="1"/>
        <pt x="308" y="-301" on="0"/>
        <pt x="222" y="-258" on="0"/>
        <pt x="173" y="-193" on="0"/>
        <pt x="154" y="-117" on="0"/>
        <pt x="154" y="-84" on="1"/>
        <pt x="154" y="1671" on="1"/>
        <pt x="154" y="1707" on="0"/>
        <pt x="173" y="1784" on="0"/>
        <pt x="222" y="1847" on="0"/>
        <pt x="308" y="1888" on="0"/>
        <pt x="375" y="1888" on="1"/>
        <pt x="442" y="1888" on="0"/>
        <pt x="527" y="1847" on="0"/>
        <pt x="577" y="1784" on="0"/>
        <pt x="596" y="1707" on="0"/>
        <pt x="596" y="1671" on="1"/>
        <pt x="596" y="-84" on="1"/>
        <pt x="596" y="-117" on="0"/>
        <pt x="577" y="-193" on="0"/>
        <pt x="527" y="-258" on="0"/>
        <pt x="442" y="-301" on="0"/>
      </contour>
    </TTGlyph>
    <TTGlyph name="braceleft" xMin="3" yMin="-129" xMax="1193" yMax="1989">
      <contour>
        <pt x="3" y="1026" on="1"/>
        <pt x="59" y="1026" on="0"/>
        <pt x="133" y="1063" on="0"/>
        <pt x="177" y="1132" on="0"/>
        <pt x="195" y="1233" on="0"/>
        <pt x="195" y="1298" on="1"/>
        <pt x="195" y="1384" on="1"/>
        <pt x="195" y="1525" on="0"/>
        <pt x="290" y="1750" on="0"/>
        <pt x="450" y="1906" on="0"/>
        <pt x="660" y="1989" on="0"/>
        <pt x="775" y="1989" on="1"/>
        <pt x="880" y="1989" on="0"/>
        <pt x="1093" y="1918" on="0"/>
        <pt x="1193" y="1843" on="1"/>
        <pt x="1150" y="1724" on="1"/>
        <pt x="1123" y="1730" on="0"/>
        <pt x="1097" y="1734" on="1"/>
        <pt x="1074" y="1738" on="0"/>
        <pt x="1020" y="1745" on="0"/>
        <pt x="994" y="1745" on="1"/>
        <pt x="938" y="1745" on="0"/>
        <pt x="864" y="1708" on="0"/>
        <pt x="820" y="1639" on="0"/>
        <pt x="802" y="1537" on="0"/>
        <pt x="802" y="1473" on="1"/>
        <pt x="802" y="1386" on="1"/>
        <pt x="802" y="1311" on="0"/>
        <pt x="775" y="1192" on="0"/>
        <pt x="730" y="1100" on="0"/>
        <pt x="674" y="1032" on="0"/>
        <pt x="644" y="1008" on="1"/>
        <pt x="574" y="952" on="0"/>
        <pt x="486" y="930" on="1"/>
        <pt x="574" y="907" on="0"/>
        <pt x="644" y="851" on="1"/>
        <pt x="674" y="827" on="0"/>
        <pt x="730" y="759" on="0"/>
        <pt x="775" y="666" on="0"/>
        <pt x="802" y="548" on="0"/>
        <pt x="802" y="473" on="1"/>
        <pt x="802" y="387" on="1"/>
        <pt x="802" y="322" on="0"/>
        <pt x="820" y="221" on="0"/>
        <pt x="864" y="152" on="0"/>
        <pt x="938" y="115" on="0"/>
        <pt x="994" y="115" on="1"/>
        <pt x="1020" y="115" on="0"/>
        <pt x="1074" y="121" on="0"/>
        <pt x="1097" y="125" on="1"/>
        <pt x="1123" y="129" on="0"/>
        <pt x="1150" y="135" on="1"/>
        <pt x="1193" y="16" on="1"/>
        <pt x="1093" y="-58" on="0"/>
        <pt x="880" y="-129" on="0"/>
        <pt x="775" y="-129" on="1"/>
        <pt x="660" y="-129" on="0"/>
        <pt x="450" y="-46" on="0"/>
        <pt x="290" y="110" on="0"/>
        <pt x="195" y="334" on="0"/>
        <pt x="195" y="475" on="1"/>
        <pt x="195" y="561" on="1"/>
        <pt x="195" y="625" on="0"/>
        <pt x="177" y="727" on="0"/>
        <pt x="133" y="797" on="0"/>
        <pt x="59" y="834" on="0"/>
        <pt x="3" y="834" on="1"/>
      </contour>
    </TTGlyph>
</ttFont>
